<svg enable-background="new 0 0 1170 648.5" viewBox="0 0 1170 648.5" xmlns="http://www.w3.org/2000/svg"><path d="m192.5 45.7h974.6v17.2h-974.6zm284.6 218.5h690v14.4h-690zm158.2 86.3h531.9v20.1h-531.9zm74.7 120.7h457.1v31.6h-457.1zm-23 71.9h480.1v17.2h-480.1zm-51.7 51.7h531.9v8.6h-531.9zm-63.3 25.9h595.1v5.7h-595.1zm100.6-235.7h494.5v8.6h-494.5zm-310.4-284.7h805v51.7h-805z" fill="#c2d500" opacity=".7"/><path d="m192.5 8.4h974.6v31.6h-974.6zm184 74.7h790.6v8.6h-790.6zm97.8 94.9h692.9v60.4h-692.9zm-2.9 129.3h698.6v31.6h-698.6zm227.1 109.3h468.6v31.6h-468.6zm-2.9 103.5h471.5v11.5h-471.5zm-28.7 54.6h500.2v11.5h-500.2zm-48.9 34.5h552v5.7h-552z" fill="#a25eb5" opacity=".7"/><path d="m573.1 334.7c-27.9 0-53.9 7.8-76 21.4-3.9-6.5-12.2-21.3-14-25.2-2.1-4.7-8.9-19.1-8.9-19.1s.8-2.1 1-3.4c.3-1.3 1-3.9-.3-3.9h-5.2l17.6-59s2.4-8.4 3.4-9.7 9.7-3.7 11.1-3.7c1.3 0 2.1-1 3.1-1.6 1-.5 2.6-2.6 2.6-2.6s9.7-.3 11.3-1c1.6-.8 6-5.2 6.8-6.6.8-1.3 1-1.6 6.3-1.6 5.2 0 6.6-2.1 10-4.5s5.5-3.9 8.1-6 .3-3.4 0-5.1c-.3-1.6-4.2-.2-6.6 0-2.1.2-15 1.4-20.6 1.8 3.2-2.6 5.5-4.5 6.2-5.1 4.2-3.9 14.8-20.6 16.8-26.1 1.9-5.5-.6-24.5-2.3-31-1.6-6.5-10.6-18.7-14.8-24.2s-28.1-17.4-33.2-19c-5.2-1.6-9.7-4.5-15.8-7.4 0 0-14.8-10.6-24.8-14.2-10-3.5-67.7-14.2-78.4-14.5-10.6-.3-61.6-.3-67.1-.3s-47.4 7.1-53.6 7.4c-6.1.3-12.3-.6-17.1-2.3-4.8-1.6-9-6.8-10-7.7-1-1-1.6-5.2-1.3-6.1.3-1-1.3-5.5-1.3-5.5s1-4.5 1.9-5.2c1-.6 4.8-3.9 5.2-7.1.3-3.2-7.1-2.9-7.4-4.2s.6-2.3 1.9-3.2c1.3-1 1.6-4.2.6-5.8s-2.9-1.3-4.5-1.3-4.5-2.3-5.5-4.2 1.9-8.1 1.9-8.1-7.4 2.3-10.3 1.9c-2.9-.3-.3-11.6-.3-11.6s-10.6 7.3-12.5 9.6-6.8-.6-8.1 0-10 4.5-16.1 7.1-26.5 15.8-32.6 21-9.4 16.1-10 24.8 4.2 23.9 5.2 25.5 2.3 1.3 3.5 1.3c1.3 0 6.8-3.2 6.8-3.2s0 2.6 1.3 5.2 4.8 5.8 5.8 7.7-1.3 9.7-1 13.5c.3 3.9 1 6.8 3.5 6.1 2.6-.6 8.1-1.3 8.1-1.3s.3 3.5.6 4.8 1.9 1 2.9 1.3 3.5 2.6 3.5 3.5c0 1 .3 5.2.6 6.1.3 1 2.3 1.9 2.3 1.9s0 2.9.6 5.5 3.2 4.5 5.8 4.5 5.8-2.9 8.4-4.2 9-2.9 13.2-3.5 20.3-1 24.8-.3c4.5.6 4.8 1.6 9.7 5.8 3.8 3.3 8.2 9 12.1 13.2l3 6.5s3.5 22.6 4.5 26.8 2.9 19.4 2.6 20.6c-.3 1.3-3.9 8.1-9 13.5-2.5 2.6-7.5 5.6-12.8 8.4-1.7-.2-3.6-.4-4.4-.5-1.6-.3-21.2-4.2-21.2-4.2s-1.8-1-2.1-2.1c-.3-1-7.9-2.1-7.9-2.1s-7.6-1.3-9.7-1.6-8.9-1-8.9-1l-.5-1c-.5-1-7.9-2.1-11.5-2.9-3.7-.8-15.2-5.5-15.2-6.3s-1-5.5-1-8.4-2.1-5.5-3.1-6.6c-1-1-3.7-.5-3.7-.5l.3-2.1c.3-2.1-1.3-3.9-2.1-5.2s-4.2-1.3-6.6-1.6-3.1.8-8.9 6.6-2.1 3.7-2.9 4.5-1.8 4.2-2.1 5.5.5 2.9 1.6 4.3c1 1.3 3.1 3.1 3.1 3.1s-1 3.7-1.6 4.5c-.5.8-1.3 4.7-.8 6.3s.5 16 .3 18.1c-.3 2.1-1.8 17.3-2.4 18.9-.5 1.6-5 6-5 7.3s1 1.3 2.4 1c1.3-.3 5.5-3.1 8.3-5.5s4.3-6 4.3-6-.8 4.2-1 6c-.3 1.8-2.1 3.4-2.6 5.5s-1 1.8 0 2.4c1 .5 4.5-2.4 4.5-2.4s4.2-3.4 6-5.2 3.7-6.6 4.5-8.4.5-4.5.3-5.8c-.3-1.3-4.2-5.2-4.2-6s.3-8.7.3-10.8 1.3-1.8 2.6-1 4.2 3.4 4.2 3.4 5 3.4 5.2 4.5c.3 1-.8 3.4-.8 7.3 0 1.3 0 2.6.1 4.1-.5.5-2.5 2.3-3.1 3.1-.6 1-1 2.3-.6 4.5.3 2.3 3.5 3.2 3.5 3.2s0 1.9-.3 3.5.3 3.5 1.3 5.5c1 1.9 4.5 2.9 4.5 2.9s.3 1.9.3 4.2 1 2.6 2.6 2.9c1.3.3 4 .5 4.9.6l.3.3c0 1-.1 4 1 6.1 1.2 2.5 4 1.4 6.2.1 3.6 2.8 7.3 5.3 7.9 5.7 1 .8 6.8 3.1 11.3 4.5 4.5 1.3 11.3 5.2 12.3 5.5s4.5 7.6 4.5 7.6l-1.3 3.9-4.7 15s-3.1 9.7-3.7 11c-.3.7-1.5 3.5-2.5 6.2-16.3-6.3-33.9-9.7-52.4-9.7-80.8.2-146.1 65.5-146.1 146.1s65.3 145.9 145.9 145.9 145.9-65.3 145.9-145.9c0-54.9-30.4-102.7-75.2-127.6 3.3-5.2 7.2-11.2 7.8-11.9 1-1-1-2.6-1-2.6s11.8 4.7 15 6.6c3.1 1.8 11.3 9.2 14.9 12.9 3.7 3.7 9.4 11.3 14.2 17.3 4.7 6 17.6 21 21.5 25.2s60.1 70.6 62.2 73.4c.2.2.4.6.8 1-1.6 1.9-4 4.3-4.8 6.2-1.3 2.9-8.4 15.5-10.6 19.7s-14.5 16.1-19 19.4c-4.5 3.2-13.2 7.7-13.5 10.6s.3 6.8 1.6 9c1.3 2.3 8.7 2.3 15.8 1.9 1.2-.1 2.7-.2 4.5-.4 1.2 2.6 4.2 3.9 6.9 2.9l.6-.3v.1l9.5-3.5h.8c1.7-.3 3.1-1.4 3.9-2.9 2.6-.6 4.7-1.3 6.1-1.9 2-.9 4.6-2.6 7.4-4.7l.1.1c.2.5.1 1-.3 1.4 0 .2 0 .5.1.7s.2.4.4.6c0 .1 0 .1.1.2.1.2.3.4.5.6.5 0 .9.2 1.2.6.2.5.2 1-.1 1.4 0 .2.1.5.2.7.4.7 1.1 1 1.8 1 .1.1.3.1.4.3.3.4.3 1 0 1.4 0 .2.1.5.3.7.1.2.3.3.4.4 0 0 0 .1.1.1.2.2.4.4.6.5.4-.1.9 0 1.3.3.3.4.4.9.2 1.4.1.2.2.3.3.5s.2.5.4.7.4.3.6.4c.4-.1.9 0 1.3.3.3.4.4.9.2 1.4.1.2.2.5.4.6.2.2.4.3.6.4.2.2.4.3.6.4.4-.2.9-.1 1.3.2.4.4.5.9.3 1.4.1.2.2.4.4.6.2.1.3.2.5.3 0 0 0 .1.1.1.2.2.4.3.7.3.4-.2.9-.2 1.3 0 .4.3.6.8.5 1.3.1.2.3.4.5.6 0 0 .1 0 .1.1.1.2.3.3.5.4s.5.2.7.2c.4-.3.9-.4 1.3-.2.5.2.7.7.7 1.2.2.2.3.4.6.5.1.1.3.1.5.1.1 0 .2.1.3.1.2.1.5.1.7.1.3-.3.8-.5 1.3-.4.5.2.8.6.9 1.1.2.2.4.3.7.4.2.1.4.1.7.1.1 0 .1.1.2.1.3.1.5.1.8 0 .3-.4.7-.6 1.2-.5s.9.5 1 1c.2.1.4.3.7.3h.3c.1 0 .2.1.3.1.3.1.5.1.8 0 .3-.4.7-.6 1.2-.5s.9.5 1 1c.2.1.4.3.7.3.3.1.5.1.8 0h.2c.3 0 .5-.1.7-.2.2-.4.6-.7 1.1-.8.5 0 1 .3 1.2.8.2.1.5.2.7.2h.4c.3 0 .5-.1.7-.2.2-.4.6-.7 1.1-.8.5 0 1 .3 1.2.8.2.1.5.2.7.2h.4c.3 0 .5-.1.7-.2.2-.4.6-.7 1.1-.8.5 0 1 .3 1.2.8.2.1.5.2.7.2h.2c.1 0 .2.1.3.1.3 0 .5-.1.7-.2.2-.4.6-.7 1.1-.7s.9.2 1.1.6c.2.1.5.1.8.1h.4c.3 0 .5-.1.7-.2.2-.4.6-.7 1.1-.7s.9.2 1.1.6c.2.1.5.1.8.1h.4c.3 0 .5-.1.7-.2.2-.4.6-.7 1.1-.7s.9.2 1.1.6c.2.1.5.1.8.1h.4c.3 0 .5-.1.7-.2.2-.4.6-.7 1.1-.7s.9.2 1.1.6c.2.1.5.1.8.1h.6c.3 0 .5-.1.7-.2.2-.4.6-.6 1-.7.4 0 .7.2.9.6.2.1.5.1.8.1h.7c.3 0 .5-.1.7-.2.2-.4.6-.6 1-.7.4 0 .7.2.9.6.2.1.5.1.8.1h.7c.3 0 .5-.1.7-.2.2-.4.6-.6 1-.7.4 0 .7.2.9.6.2.1.5.1.8.1h.7c.3 0 .5-.1.7-.2.2-.4.6-.6 1-.7.4 0 .7.2.9.6.2.1.5.1.8.1h.7c.3 0 .5-.1.7-.2.2-.4.6-.7 1.1-.7.2 0 .4.1.6.2s.3.3.4.4c.2.1.5.1.8.1h.4c.3 0 .5-.1.7-.2.2-.4.6-.7 1.1-.7.2 0 .4.1.6.2s.3.3.4.4c.2.1.5.1.8.1h.5c25.7 41.5 71.7 69.1 124 69.1 80.6 0 145.9-65.3 145.9-145.9-1.1-79.7-66.4-145-147-145zm-434.9-117.3c-.1.9-.7 2.9-.7 2.9s-1.5 1.4-1.6 3.8.7 15 .7 15-2-2.1-2.6-2.5c-.7-.4-1-.4-1-1.3s.8-6 .8-7.8 1.5-4 1.9-7c.5-3 1.2-4.6 1.2-4.6s1.4.6 1.3 1.5zm70.3 24.5c-.5.1-1.1.2-1.6.3.4-.2.8-.4 1.6-.3zm-20.4.7c-2.2-.9-3.8-2.3-5-3.5h.5c4.5 0 9.7 1.6 11.5 2.4 1 .4 3.3 1.2 5.3 1.9-1.6.2-3.2.3-4.6.3-2.1 0-4.4-.2-6.6-.5-.4-.3-.8-.4-1.1-.6zm18.3 127.4 2.7 1.5-32.9 51.1c1.2-2.5 2.2-4.5 2.7-5.5 2.1-4.1 18.5-31.9 27.5-47.1zm-15.3-7.1c-7.4 16.6-20 44-20.9 46.4-.9 2.3-9.2 21.8-15 34.8l-1-10.3 25.5-74.6c3.8 1 7.6 2.2 11.4 3.7zm-14.5 119.8c1.3.9 1.9 2.3 1.4 3s-2 .5-3.3-.4-1.9-2.3-1.4-3 2-.6 3.3.4zm-2.6-6.8c.3-.8 1.8-1 3.3-.5 1.5.6 2.5 1.7 2.2 2.5s-1.8 1-3.3.5c-1.5-.6-2.5-1.7-2.2-2.5zm.3 13.7c1 1.2 1.3 2.7.6 3.2-.7.6-2 0-3.1-1.2-1-1.2-1.3-2.7-.6-3.2s2 0 3.1 1.2zm-22.5 10.7.9-2.5c.3.2.7.3 1.1.3 1.3 0 2.4-1.1 2.4-2.4 0-1-.6-1.8-1.5-2.2 0-.1-.1-.2-.1-.3l7.5 3.6c-3.1 1.9-6.5 3.2-10.3 3.5zm6.2 3.3c-.2 1.6-1 2.8-1.9 2.7s-1.4-1.4-1.3-3c.2-1.6 1-2.8 1.9-2.7.9 0 1.5 1.4 1.3 3zm-34.9-12.3c-.1-.9 1-1.8 2.6-2 1.2-.2 2.3 0 2.8.6l-2.2 2.5h-.1c-1.5.2-2.9-.3-3.1-1.1zm1.6 4.5-.3.1.2-.2zm21.8-42-2.1 6.2c-.2-.1-.5-.1-.7-.1-1.3 0-2.4 1.1-2.4 2.4 0 1 .7 1.9 1.6 2.2l-.3.7-10-4.5c3.7-3.8 8.5-6.3 13.9-6.9zm-11.1-3.5c.9-.1 1.8 1 2 2.6.3 1.6-.2 3-1.1 3.1s-1.8-1-2-2.6c-.3-1.6.2-3 1.1-3.1zm5.3.2c.2-1.6 1-2.8 1.9-2.7s1.4 1.4 1.3 3c-.2 1.6-1 2.8-1.9 2.7s-1.4-1.5-1.3-3zm26.5 11.3c-.4.2-.8.5-1.1.7-1.2.8-.7 3-.9 4.3-.1.5.2 1.2.6 1.8l-8.1 1.8-.7-7c.5-1 .9-2 1.4-3 .4-.8 1.1-2.3 1.9-4.1 2.7 1.3 5 3.2 6.9 5.5zm-6.2-6.9c.3-.7.7-1.5 1.1-2.4l.3-.3c1.2-1 2.7-1.3 3.2-.6s0 2-1.3 3c-1.2 1-2.7 1.3-3.2.6-.1 0-.1-.2-.1-.3zm7.9 3c.2.5.3 1 .3 1.4-1.4.5-2.7.4-3-.4-.4-.8.5-2 2-2.6.8-.3 1.5-.5 2.1-.4-.9.5-1.8 1.2-1.4 2zm-8.9 12.8 6.4-1.4c.6.7 1.3 1.4 1.9 2zm8.2 1.4-.5.6c-.2-.3-.4-.5-.6-.7zm-13.4 20.4-.2-.1 1.4-4c.4-.4.6-.9.7-1.4l.1-.1 2.8-2 4.7 9.2zm9.7 2.4c-.6.5-1.2.9-1.8 1.4l-5.5-2.6zm-10.1-23 .8 2.1c-.7-.1-1.3-.3-1.8-.6.1-.4.2-.9.4-1.4zm-.4-.7c0-.1 0-.2.1-.2l.1.2zm-.2 17.9h.2l-.3.5v-.4zm1.1 0-.9 2.7c-.1-.3-.2-.7-.2-1zm3.6-8.1c0-.1.1-.2.1-.3l1.3 1.5-.5.6zm.8 3.3-.7.5.6-.7zm-1.3-10.3-.3-2.7 6.8.5c-.5.3-.9.8-1.1 1.3-1 .2-2.2.5-2.9.6-.4.1-1.4.2-2.5.3zm.1 7.9.8 1.5-2.1 2.6c-.1-.7-.2-1.7-.1-2.5 0-.2.1-.4.2-.6.5-.2.9-.5 1.2-1zm1.6 1.6.6-.7.5.5-.9.6zm.6-1.9-1.8-2c.5-.7 1.2-1.4 2-2 1.5-.6 3-1.3 4.1-1.7.1 0 .2.1.3.1zm-3.3-10.3.3 2.7h-1.3l-.9-2.3zm-2.4-1-.2-.4c.6-1.6 1.2-3.3 2-5l.5 5.6zm-.5-24c-1.4-.2-2.7-.4-4.1-.4l3.6-10.4 1 10c-.2.2-.3.5-.5.8zm-22.6 40c.1 0 .1 0 0 0l-3.7-.1c-.5-1.1-.9-2.3-1.2-3.5l5.9-4.2 1.5 1.7c-.9.6-1.7 1.1-2.3 1.4h-.2c-1.3 0-2.4 1.1-2.4 2.4.1 1.2 1.1 2.3 2.4 2.3zm-2.2 2.7c-.4-.7-.7-1.3-1.1-2l2.7.1zm.1 5.9c.8-.4 1.7-.5 2.3-.4l-2.5.4zm3.3-17.4-5.9-6.7c.2-.6.3-1.2.6-1.8l6.6 1.3 2.4 4.6zm4-1.9 1 1.9c-1 .8-2 1.6-3 2.2l-1.5-1.7zm-4.6 2.4-5.6 3.9c-.4-1.7-.6-3.5-.5-5.3 0-1.7.2-3.3.6-4.8zm1 7.7.2-.2 1.1-1.3c.6-.3 1.2-.5 1.7-.5.4 0 .8 0 1.1.1l.3.3c-.2.3-.3.7-.3 1.1 0 .6.2 1.1.5 1.5l-5.3-.3zm4.2-10.5 1-.7v.2c0 .7.3 1.3.7 1.8-.2.2-.5.4-.8.6zm2.3 12.5.1 1.8-.8-1.9c.3.1.5.1.7.1zm-.8-14.5-1.9 1.3-2.1-4 5.5 1.1-.2.6c-.5.2-1 .5-1.3 1zm1.9 14.4 1.9.1c.3.3.7.7 1.1 1s.8.5 1.3.7c-.2.4-.4.8-.4 1.2 0 .6.2 1 .5 1.5l-4.2.8-.3-.9-.3-4.3c.2-.1.3-.1.4-.1zm2.7-21.3v1.8c-.5 1.1-1 2.1-1.5 3.1l-.5-.1 1.7-4.9zm-1.5 20.6h-.3c.1-.1.1-.1.1-.2.1.1.2.1.2.2zm-.3-15c-.1.1-.1.2-.2.3-.1 0-.3-.1-.4-.1l.1-.3zm4.3 20.8c.4.3.8.4 1.4.4.7 0 1.4-.3 1.8-.8.1.1.2.3.3.4.4.6.7 1 1 1.5l-4.1 6c-.9-.1-1.7-.3-2.6-.5l-2.4-6.2zm3.8-37c-.1.1-.2.3-.3.5l-.9-2.6c.5 0 .9-.1 1.4 0 .3 0 .6 0 .9.1-.5.9-.9 1.6-1.1 2zm.7-5.5c-.5 1.4-1.6 2.3-2.4 2.1l-.1-.4 1.7-5h.3c.9.4 1.1 1.8.5 3.3zm-2.9.6-.3-.8c.1-.3.1-.6.2-1 .3-.8.8-1.4 1.3-1.8zm-.2 2.9h.4l1.2 3.4c-.8 1.4-1.8 3.4-2.9 5.7h-.1c0-.2.1-.3.1-.5 0-.8-.4-1.4-1-1.9zm-4.9 12.1-1.7 5.1-6.2-1.2-3.6-6.9c.4-.5.8-1.1 1.3-1.5zm-10.9-5.7-2.4-1.1c-.2-.2-.3-.5-.4-.8-.7-1.5-.5-2.9.3-3.3s2 .5 2.6 2c.6 1.4.5 2.7-.1 3.2zm-1.2 3.3 3.2 6.1-5.8-1.1c.6-1.8 1.5-3.5 2.6-5zm-2.7 2.3c-.7.6-2 0-3.1-1.2-1-1.2-1.3-2.7-.6-3.2.7-.6 2 0 3.1 1.2 1 1.2 1.3 2.6.6 3.2zm-2.1 17.9c.3.3.5.6.5.9-.1.9-1.4 1.5-3 1.3-.2 0-.3-.1-.4-.1zm-4 1.8c-.8-.4-1.4-.9-1.4-1.5.1-.9 1.4-1.5 3-1.3.6.1 1.2.2 1.6.5zm-.5-21.1-11.8-13.4 15.6 7c-1.4 2-2.8 4.1-3.8 6.4zm1.1 3.7c.7.1 1.3.4 1.9.8l1.5 1.6c.2.5.3 1 0 1.3-.5.7-2 .5-3.3-.4s-2-2.3-1.4-3c.2-.2.7-.3 1.3-.3zm.6 7.7c1.5.6 2.5 1.7 2.2 2.5s-1.8 1-3.3.5c-1.5-.6-2.5-1.7-2.2-2.5s1.8-1 3.3-.5zm-2.6 11.7c1 2.7 2.3 5.3 4 7.6l-.9 1.1-20.6 3.7zm8.7 3.3c-.1.4-.4.8-.9 1.1zm-.9 5.3 4.8-.9c.4.8-.5 2-2 2.6-1.5.7-2.9.5-3.3-.3-.2-.3 0-.9.5-1.4zm1.8-6.3 2.2-2.5 6.3.3 1.8 4.7.1.9-6.5 1.2c-1.6-1.4-2.9-3-3.9-4.6zm4.8 9.6c1.2-1 2.7-1.3 3.2-.6s0 2-1.3 3c-1.2 1-2.7 1.3-3.2.6-.5-.6.1-2 1.3-3zm-.3-4.5 5.9-1.1.4 4.9c-2.4-.9-4.5-2.2-6.3-3.8zm6.5 7.6.3 3.3c-.2 0-.4-.1-.6-.2-.7-.5-.5-1.9.3-3.1zm.2-7.9 1.9 5c-.5-.2-1.1-.3-1.6-.5zm2.4 6.2.8 2c-.1.5-.3 1-.7 1.4-.5.7-1.1 1.1-1.6 1.4l-.3-3.9c.5-.6 1.2-1 1.8-.9zm-.9 6.6c1.2.3 2.5.5 3.8.6l1.2 3.1-4.3 12.3-1.2-15.4zm4.6.7c.5 0 .9.1 1.4.1l-.6 1.9zm.9-4.2c.6-1.5 1.7-2.5 2.5-2.1l.1.1-1.8 5.3h-.3c-.8-.3-1-1.8-.5-3.3zm3.2-1.3c.2.6.2 1.5-.2 2.4-.3.8-.8 1.4-1.3 1.8zm-.1-2.1c-.7 0-1.4.1-2 .1s-1.2-.1-1.8-.1l3.7-5.3c.3.6.5 1.1.7 1.5.1.3.3.6.5.9zm11.5-2.4c.9-.1 1.8 1 2 2.6s-.3 3-1.1 3.1c-.9.1-1.8-1-2-2.6-.3-1.5.2-2.9 1.1-3.1zm-2.2-13.5 1-.7 6.7 7.4c-.8 1.1-1.7 2.1-2.7 3zm9.4 10.6-2.8-.5c.1-.4.3-.7.6-.8.6-.3 1.5.3 2.2 1.3zm.4.8c.6 1.4.5 2.8-.3 3.2s-2-.5-2.6-2c-.3-.6-.4-1.2-.4-1.7zm3.1 1.1 6.7 7.5-9.6-4.5c1.1-1 2.1-1.9 2.9-3zm-4.7-6.3-6.6-7.3 10.9-7.6c0 .6.1 1.1.1 1.7-.1 4.9-1.7 9.4-4.4 13.2zm-7.1-7.9-.6-.7 4.9-5.9c1.3 0 2.3-1.1 2.3-2.4 0-.1-.1-.2-.1-.4l1.1-1.3c.7.7.8.4 2.3.4.3 0 .7.1 1.1.1l.3 2.1zm10.6-27.9c0 .1-.1.2-.4.3-2.3-2.3-4.9-4.3-7.8-5.8 1.9-.6 3.9-1.2 4.3-1.2.7 0 1.4.5 2.4.4.9-.1 1.6-.7 1.6-.7s-.2 6.6-.1 7zm6.9-96-25 73-7.5-77.4c11.3.1 22.2 1.6 32.5 4.4zm-33.2-4.4 7.7 79.1-4.2 12.3c-1.1 0-2.3.1-3.4.2l-32-87.5c10.2-2.6 20.9-4.1 31.9-4.1zm-32.6 4.4 31.9 87.4c-7 1-13.3 4.3-18 9.2l-43.8-84.2c9.3-5.4 19.3-9.6 29.9-12.4zm-30.5 12.7 43.9 84.4c-.4.4-.8.9-1.1 1.3l-17.3-7.8-51.2-58-.6.5 50.1 56.8-69.6-31.3c11-19 26.8-34.8 45.8-45.9zm-46.2 46.6 71.2 32 13.1 14.9c-.2.6-.5 1.2-.7 1.8l-95.9-18.9c2.8-10.5 7-20.5 12.3-29.8zm-16.5 62.4c0-11 1.4-21.6 4.1-31.8l95.9 18.8c-.9 2.8-1.4 5.8-1.5 8.8-.1 3.3.4 6.4 1.3 9.4l-99.3-5v.8l99.6 5v.1l-19 13.5-76.5 13.8c-3.1-10.7-4.6-21.9-4.6-33.4zm4.6 34 74.9-13.5-61.8 43.9c-5.6-9.4-10-19.6-13.1-30.4zm13.4 31 63.2-44.8 21.2-3.8-64 74.2c-7.8-7.6-14.7-16.2-20.4-25.6zm21 26.1 64.7-74.9 1.6-.3c4 5 9.6 8.7 15.9 10.5l.1.8-57 82.7c-9.2-5.2-17.7-11.5-25.3-18.8zm25.9 19.1 56.4-81.9 1.2 16.2-26.8 77.7c-10.9-2.5-21.2-6.6-30.8-12zm61.1 15.8c-10.2 0-20.1-1.2-29.5-3.5l26.2-76 6.1 79.5zm3.5-.1-6.2-81.2 4.5-13.2 34.8 89c-10.4 3.3-21.6 5.1-33.1 5.4zm33.9-5.5-35.2-89.9 1-2.9c7.2.1 13.8-2.3 19.1-6.4l44.3 85.8c-9 5.6-18.8 10.2-29.2 13.4zm29.9-13.9-44.3-85.9c.3-.2.6-.5.9-.8l11.5 5.5 55.7 61.7c-7.1 7.5-15.1 14-23.8 19.5zm24.3-20-54.4-60.3 73.2 34.7c-5.2 9.3-11.5 17.9-18.8 25.6zm19.2-26.3-74.9-35.5-7.9-8.8 94.1 16c-2.7 10-6.5 19.5-11.3 28.3zm15.3-60.2c0 10.8-1.4 21.2-3.9 31.2l-93.9-15.9c3.9-5.1 6.2-11.3 6.4-18.2 0-1 0-2-.1-3 1.1.3 1.8.4 1.9.4.4-.1.8 0 2-.7.4-.2.6-.6.7-.9l86.9 6.5zm-.1-1.4-86.6-6.6c.1-.7.1-1.3.1-1.7 0-.8-.8-1.3-1.4-1.6-.4-.2-.3-.8-.1-1.3l5.3-3.7 78.4-17.1c2.7 10.2 4.2 20.9 4.3 32zm-88-12.2v-1.6l3.2-.7zm83.4-20.5-76.6 16.7 64.6-45.3c5.1 8.9 9.1 18.5 12 28.6zm-12.4-29.2-66.1 46.4-4.8 1.1v-.6c0-1.2-1-4.1-1.3-4.9-.2-.5-.7-1.3-1.2-2l54-65.3c7.5 7.5 14 16 19.4 25.3zm-19.9-25.9-53.9 65.1c-.2-.3-.4-.6-.5-.8-.5-.9-3.5-2.1-3.5-2.1l-2.4 2.1s1.3-7.3.9-7.9c-.4-.5-3.4-1-3.4-1.9s-.8-2.6-.8-2.6h-3.3l-.8-1.9c2.2-4.6 4.4-9.4 6.4-13.5l36.1-56.1c9.1 5.5 17.6 12 25.2 19.6zm-17.9-101.2s-.3-.3-3.1-1.3c-2.9-1-13.1-5.2-16.3-6-1.6-.4-3.8-1.4-6-2.6 3.1-.7 6.4-1.4 8.9-1.8 5.5-1 9.4-2.9 11.3-4.2.6-.4 5.3-1.3 11.7-2.4-3.1 8.7-6.5 18.3-6.5 18.3zm481.4 177.7-98.3 1.4c.2-.1.3-.3.5-.4 0-.1-.1-.1-.1-.2l10.6-8.5 80.1-23.2c3.7 9.8 6.1 20.2 7.2 30.9zm-99 27.4c.1-.2.2-.3.3-.4l3.5.2 8.1 7.7-11.2-4c.1-.1.1-.2.2-.3-1.1-.6-1.5-2-.9-3.2zm-1.7-27.4 3.3-4.7 7.9-2.3-8.8 7c-.1-.1-.1-.2-.2-.3-.7.5-1.5.5-2.2.3zm-.8-.4-.3-.3c-.6-.8-.6-1.9-.1-2.7l3.2-.9zm79.3-59.3c6 8.6 11 17.9 14.8 27.9l-77.9 22.6zm-.5-.7-64.9 51.9-8.9 2.6 53.1-77.2c7.7 6.7 14.7 14.3 20.7 22.7zm-21.5-23.3-53.7 78.2-3.9 1.1-.5-.5c-.8.9-2.3 1.1-3.3.3s-1.2-2.2-.4-3.3c-.3-.2-.7-.5-1.1-.7-.6 1.1-2 1.5-3.1.9s-1.6-2-1.1-3.1c-.5-.2-.9-.4-1.4-.5-.4 1.2-1.6 1.9-2.9 1.6-1.2-.3-2-1.6-1.7-2.8-.7-.1-1.5-.2-2.2-.3l-.3-1.8 48.2-86.7c9.9 4.7 19.1 10.6 27.4 17.6zm-265.1 143.1c1.5-1.3 3.6-3 3.6-3 .7 1 1.2 1.7 1.4 2 .6.7 2.6 1 4.6 1 .1 2.3-1.3 6.2-2.8 9.6-4-1.2-7.5-3.5-10.3-6.5 1.6-1.4 2.9-2.6 3.5-3.1zm-5 1.3c-.8-1-1.5-2.1-2.1-3.3 2.5-.4 4.8-.8 6.7-1.1-1.3 1.3-3 2.9-4.6 4.4zm15.9 4.2c.6-1.6 1.5-3.9 2.2-5.6h.3c1.4 0 5.1-1.1 6.8-1.8 2.2 2.4 5.4 5.8 7.6 8-3.9 2.8-8.7 4.5-13.9 4.5-1.6 0-3.1-.2-4.5-.4.5-1.9 1.1-3.7 1.5-4.7zm13.9-9.1c3.2-1 7.5-2.3 9.8-2.9.4-.1 1.2-.3 2.3-.6-1.2 4.4-3.6 8.4-6.8 11.4-.7-.8-1.3-1.4-1.5-1.7-.7-.7-2.4-3.8-3.8-6.2zm13.2-41.1c-.5-1-.5-2.1 0-3.2zm-1.3-4.9c-.9 1.7-3 2.3-4.7 1.4-1-.5-1.5-1.4-1.8-2.3.3-1.2.6-2.6 1-4 .2.1.5.2.7.2.3 0 .5 0 .8-.1.2-.4.6-.6 1.1-.6s.9.3 1.1.7c.2.1.5.2.7.2h.4c.3 0 .5 0 .8-.1.2-.4.6-.6 1.1-.6.2 0 .3.1.4.1-.1 2-.2 4.1-.2 6.1-.5-.4-.9-.7-1.4-1zm1.4 9.7-5.6 5.2c-.2-.1-.5-.2-.7-.4-1.1-.9-1.2-2.4-.4-3.5-.4-.3-.8-.5-1.1-.8-.4.7-1 1.1-1.7 1.2-.1-2.6-.1-4.8-.1-5.3 0-.2.2-1 .5-2.4 3.4 1.6 6.5 3.6 9.1 6zm-9 8.5-.2.1v-.3zm6 40.6c.3-.3.7-.6 1-1-1-.9-1.2-2.5-.3-3.5.9-1.1 2.4-1.2 3.5-.4.3-.4.5-.8.8-1.1-1.2-.7-1.7-2.2-1-3.4.6-1.2 2.1-1.7 3.4-1.2l.6-1.5c-1.3-.4-2.1-1.8-1.7-3.1.2-1 1-1.6 1.9-1.8 1 3.5 2 6.9 3.2 10.3-1.8 3.7-4.1 7.1-7 10-.5 0-1.1-.1-1.5-.2-.6-.2-2.2-1.8-4-3.6.4 0 .8.2 1.1.5zm3.3-66.3c-.2.1-.4.2-.6.2-.5 0-.9-.3-1.1-.8-.2-.1-.5-.2-.7-.2h-.4c-.3 0-.5 0-.7.1-.2.4-.6.7-1.1.7s-.9-.3-1.1-.8c-.2-.1-.4-.1-.7-.2 4.8-18.8 13.3-51 18.3-65.6 4.5-13.2 8.6-26.2 12-37.4 5.6 4.9 10.8 9.2 12 10.1.7.5 2 2 3.6 3.9-22.5 23.9-37.1 55.3-39.5 90zm31-42.4c3.1-6.7 6.7-13 10.8-19-1.4 6.5-2.3 14.6-3.3 16-.4.6-2.3 2.2-4.5 4.1zm2.2 1.8c-1.5 1.2-3.1 2.6-4.6 3.8.6-1.6 1.3-3.2 2-4.8zm-12.3 31.6 6.1.5-7 6.6c.3-2.4.5-4.7.9-7.1zm.2-.9c.9-5.9 2.3-11.6 4-17.2 1.7 3.5 4.4 7.6 7.3 7.8.8.1 1.6 0 2.5 0l1 2.4-7.9 7.5zm17.7 2.3 70.8 5.5v.1c.2.8.5 1.5.8 2.3l-3.8 2-.2-.2c-.2-.1-.5-.2-.7-.2h-.4c-.3 0-.5 0-.7.1-.2.4-.6.7-1.1.7s-.9-.3-1.1-.8c-.2-.1-.5-.2-.7-.2h-.4c-.3 0-.5 0-.7.1-.2.4-.6.7-1.1.7s-.9-.3-1.1-.8c-.2-.1-.5-.2-.7-.2h-.4c-.3 0-.5 0-.7.1-.2.4-.6.7-1.1.7s-.9-.3-1.1-.8c-.2-.1-.5-.2-.7-.2h-.4c-.3 0-.5 0-.7.1-.2.4-.6.7-1.1.7s-.9-.3-1.1-.8c-.2-.1-.5-.2-.7-.2h-.4c-.3 0-.5 0-.7.1-.2.4-.6.7-1.1.7s-.9-.3-1.1-.8c-.2-.1-.5-.2-.7-.2h-.4c-.3 0-.5 0-.7.1-.2.4-.6.7-1.1.7s-.9-.3-1.1-.8c-.2-.1-.5-.2-.7-.2h-.4c-.3 0-.5 0-.7.1-.2.4-.6.7-1.1.7s-.9-.3-1.1-.8c-.2-.1-.5-.2-.7-.2h-.4c-.3 0-.5 0-.7.1-.2.4-.6.7-1.1.7s-.9-.3-1.1-.8c-.2-.1-.5-.2-.7-.2h-.4c-.3 0-.5 0-.7.1-.2.4-.6.7-1.1.7s-.9-.3-1.1-.8c-.2-.1-.5-.2-.7-.2h-.4c-.3 0-.5 0-.7.1-.2.4-.6.7-1.1.7s-.9-.3-1.1-.8c-.2-.1-.5-.2-.7-.2h-.4c-.3 0-.5 0-.7.1-.2.4-.6.7-1.1.7s-.9-.3-1.1-.8c-.2-.1-.5-.2-.7-.2h-.4c-.3 0-.5 0-.7.1-.2.4-.6.7-1.1.7s-.9-.3-1.1-.8c-.2-.1-.5-.2-.7-.2h-.4c-.3 0-.5 0-.7.1-.2.4-.6.7-1.1.7s-.9-.3-1.1-.8c-.2-.1-.5-.2-.7-.2h-.4c-.3 0-.5 0-.7.1-.2.4-.6.7-1.1.7s-.9-.3-1.1-.8c-.2-.1-.5-.2-.7-.2h-.4c-.3 0-.5 0-.7.1-.2.4-.6.7-1.1.7s-.9-.3-1.1-.8c-.2-.1-.5-.2-.7-.2h-.4c-.3 0-.5 0-.7.1-.2.4-.6.7-1.1.7s-.9-.3-1.1-.8c-.2-.1-.5-.2-.7-.2h-.6c-.3 0-.5 0-.7.1-.2.4-.6.7-1.1.7s-.9-.3-1.1-.8c-.2-.1-.5-.2-.7-.2h-.4c-.3 0-.5 0-.7.1-.2.4-.6.7-1.1.7s-.9-.3-1.1-.8c-.2-.1-.5-.2-.7-.2h-.4c-.3 0-.5 0-.7.1-.2.4-.6.7-1.1.7-.4 0-.8-.2-1-.6l8.5-6.1zm86.2-9.6c-.6-1.7-1.3-1.9-2-2-.7-.2-2.3.5-3 .9-.2.1-.4.3-.6.6l-12.9-21.1c.5-.9 1.2-3.3 1.9-6.2 5.5 7.8 9.9 14 10.5 14.9 1.8 2.6 8.5 12.7 9.4 14.3.2.4 1.2 1.8 2.6 3.8-.6 1.3-1.4 2.8-2 3.2-1.1.6-2.8.7-3.2-.5-.5-1.2-.8-1.9-.8-3.8.1-2.1.7-2.4.1-4.1zm-6.1.4c-.2.5-.5 1-.7 1.2-.5.5-.6.2-3 .5 0 0-1.2 1.2-2.4 2.6l-7.6-2.8-16-16c7.2-.7 14.6-5.4 16.5-7zm-6.7 5c-.6.6-1.2 1.3-1.6 1.8l-3.7-3.7zm-.3 14.7c-.1 0-.3.1-.4.1-.5 0-.9-.3-1.1-.8-.2-.1-.5-.2-.7-.2h-.4c-.1 0-.2 0-.4.1l1.8-1c.5.7.9 1.3 1.2 1.8zm-3.5-.5c-.2.3-.5.4-.9.5zm-4.6 2.5c.3.1.5.3.6.5.2.1.5.2.7.2h.4c.3 0 .5 0 .8-.1.2-.4.6-.6 1.1-.6s.9.3 1.1.7c.2.1.5.2.7.2h.4c.3 0 .5 0 .8-.1.2-.4.6-.6 1.1-.6s.9.3 1.1.7c.2.1.5.2.7.2h.4c.3 0 .5 0 .8-.1.2-.4.6-.6 1.1-.6s.9.3 1.1.7c.2.1.5.2.7.2h.4c.3 0 .5 0 .8-.1.2-.4.6-.6 1.1-.6s.9.3 1.1.7c.2.1.5.2.7.2h.6c.3 0 .5 0 .8-.1.2-.3.5-.5.9-.6.1.4.2.9.1 1.4-.3 1.2-1.6 2-2.8 1.7-.1.8-.3 1.7-.3 2.5.9 0 1.6.6 2 1.3-8.7 1.5-32.3 5.5-48 8.2l29-15.9zm19.1 16.1c-.3.4-.7.8-1.3.9.2.5.4 1.1.6 1.6 1.2-.5 2.5 0 3.1 1.1.1.1.1.2.1.3l-3.4 4.8-21.1 5.9 15.2-13.4c2.1-.3 4.4-.8 6.8-1.2zm2.2 7.9-1.7.5 1.1-1.5c.1.4.3.7.6 1zm-4 2.1-36 50.5h-.3c-.3 0-.5.1-.7.2-.2.4-.6.7-1 .7-.4-.1-.8-.3-1-.6-.2-.1-.5-.1-.7-.1h-.7c-.3 0-.5.1-.7.2-.2.4-.6.7-1 .7-.4-.1-.8-.3-1-.6-.2-.1-.5-.1-.7-.1h-.7c-.3 0-.5.1-.7.2-.2.4-.6.7-1 .8-.4 0-.8-.3-1-.7-.2-.1-.5-.1-.7-.1h-.6c-.3 0-.5.1-.7.2-.2.4-.6.7-1 .8-.4 0-.8-.3-1-.7-.2-.1-.5-.1-.7-.1h-.6c-.3 0-.5.1-.7.2-.2.4-.6.7-1 .8-.4 0-.8-.3-1-.7-.2-.1-.5-.1-.7-.1h-.6c-.3 0-.5.1-.7.2-.2.4-.6.7-1 .8-.4 0-.8-.3-1-.7-.2-.1-.5-.1-.7-.1h-.6c-.3 0-.5.1-.7.2-.2.4-.6.8-1.1.8-.2 0-.4-.1-.6-.2s-.3-.3-.4-.5h-.1c-.2-.1-.5-.1-.7-.1h-.4c-.3 0-.5.1-.7.2-.2.4-.6.8-1.1.8-.2 0-.4-.1-.6-.2s-.3-.3-.4-.5h-.1c-.2-.1-.5-.1-.7-.1h-.4c-.3 0-.5.1-.7.2-.2.4-.6.8-1.1.8-.2 0-.4-.1-.6-.2s-.3-.3-.4-.5h-.1c-.2-.1-.5-.1-.7-.1h-.4c-.3 0-.5.1-.7.2-.2.4-.6.8-1.1.8-.2 0-.3-.1-.4-.1l52.5-46.4 22.2-6.8zm1.4-.4 5.4-1.5c.2.1.3.2.4.4.8 1 .7 2.4-.3 3.3l.9.9c.8-.9 2.3-1.1 3.3-.3s1.2 2.2.4 3.3c.3.2.7.5 1.1.7.6-1.1 2-1.5 3.1-.9s1.6 2 1.1 3.1c.2.1.4.2.6.2 0 .6-.1 1.2 0 1.8 0 .2 0 .2.1.4l-20.9 38.6h-.7c-.3 0-.5.1-.7.2-.2.4-.6.8-1.1.8s-.9-.3-1.1-.7c-.2-.1-.5-.1-.7-.1h-.4c-.3 0-.5.1-.7.2-.2.4-.6.8-1.1.8s-.9-.3-1.1-.7c-.2-.1-.5-.1-.7-.1h-.6c-.3 0-.5.1-.7.2-.2.4-.6.8-1.1.8-.2 0-.5-.1-.6-.2-.2-.1-.3-.3-.4-.5-.2-.1-.5-.1-.7-.1h-.4c-.3 0-.5.1-.7.2-.2.4-.6.8-1.1.8-.2 0-.5-.1-.6-.2-.2-.1-.3-.3-.4-.5-.2-.1-.5-.1-.7-.1h-.4c-.3 0-.5.1-.7.2-.2.4-.6.8-1.1.8-.2 0-.5-.1-.6-.2-.2-.1-.3-.3-.4-.5-.2-.1-.5-.1-.7-.1h-.4c-.3 0-.5.1-.7.2-.2.4-.6.8-1.1.8-.2 0-.5-.1-.6-.2-.2-.1-.3-.3-.4-.5-.2-.1-.5-.1-.7-.1h-.4c-.3 0-.5.1-.7.2-.2.4-.6.7-1 .7-.4-.1-.8-.3-1-.6-.2-.1-.5-.1-.7-.1h-.7c-.3 0-.5.1-.7.2-.2.4-.6.7-1 .7-.4-.1-.8-.3-1-.6l36.1-51.7zm16.7 12.1c.2.1.5.3.9.6 1.2.9.7 1.6.7 2.4s1.4 2.6 3 3.9l1.8 10.2-5.5 20.5c-.2.1-.4.2-.7.2-.2 0-.4-.1-.6-.2s-.3-.3-.4-.5h-.1c-.2-.1-.5-.1-.7-.1h-.4c-.3 0-.5.1-.7.2-.2.4-.6.8-1.1.8-.2 0-.4-.1-.6-.2s-.3-.3-.4-.5h-.1c-.2-.1-.5-.1-.7-.1h-.4c-.3 0-.5.1-.7.2-.2.4-.6.8-1.1.8-.2 0-.4-.1-.6-.2s-.3-.3-.4-.5h-.1c-.2-.1-.5-.1-.7-.1h-.4c-.3 0-.5.1-.7.2-.2.4-.6.8-1.1.8-.2 0-.4-.1-.6-.2s-.3-.3-.4-.5h-.1c-.2-.1-.5-.1-.7-.1h-.4c-.3 0-.5.1-.7.2-.2.4-.6.8-1.1.8s-.9-.3-1.1-.7c-.2-.1-.5-.1-.7-.1h-.4c-.3 0-.5.1-.7.2-.2.4-.6.8-1.1.8-.3 0-.6-.1-.8-.3l20.6-38.5zm9.3-56.8-3.1-6.4 2.6-10.5 2.2 14zm1.9-1.5.3 1.7c-.4.5-.9.9-1.6 1l-.1-.2zm-2.5 2.5-.1.1c-.9-.3-1.5-1.1-1.5-2.1-.6 0-1.1.1-1.7.2.2 1-.3 2-1.3 2.5l1.6-6.7zm-1 67.9-.8 2.9-1.1-6.6c.7 1.1 1.1 2.3 1.7 3.2 0 .1.1.3.2.5zm-1 7.2 3 17.5c-.1 0-.2 0-.3.1-.2.4-.6.8-1.1.8s-.9-.3-1.1-.7c-.2-.1-.5-.1-.7-.1h-.4c-.3 0-.5.1-.7.2-.2.4-.6.8-1.1.8s-.9-.3-1.1-.7c-.2-.1-.5-.1-.7-.1h-.5zm2.7 10.6-2.2-12.8 1-3.8c1.3 3 3.4 8.6 4.1 9.7.9 1.3-.1 1.4-.4 2-.3.5-1 0-1.8.1s-.4 1.2-.4 1.8c0 .7.8 1.6.8 2 .1.3-.5.7-1.1 1zm.8 1.7c.6.1.2 1.1 0 2.7l-.5-2.8c.2 0 .3 0 .5.1zm2.1 4.2c.9 0 1.3.1 1.8.8-.2 0-.5.1-.7.2-.2.4-.6.8-1.1.8s-.9-.3-1.1-.7c-.2-.1-.3-.1-.5-.1l-.2-1.4c.2.4.9.4 1.8.4zm47-182.5-47.6 85.6-2.3-15 19.6-80.3c10.6 2 20.8 5.3 30.3 9.7zm-53-11.7c7.4 0 14.7.7 21.8 1.9l-19.1 78.1-12.4-79.6c3.1-.2 6.4-.4 9.7-.4zm-10.7.5 12.8 81.8-2.8 11.6-41.9-86.5c10.1-3.6 20.8-6 31.9-6.9zm-32.8 7.2 42.4 87.6-2 8.3c-.7 0-1.4-.3-1.8-.8-.1-.1-.2-.2-.2-.4l-.3-.6h-.1c-2.3-3.3-4.2-6.2-4.8-7.3-.7-1.4-12.4-17.7-24.6-34.8.1-.5.1-1 .2-1.4.6-6.1-6.8-13.5-8.1-16.1-.9-1.8-4.8-2.8-7-3.3-7.8-10.8-13.7-19.2-14.3-19.9-.2-.3-.5-.7-.8-1.1 6.8-4 13.9-7.4 21.4-10.2zm-14.4 76.9h.5l15.1 15.1-36.5-13.3c7.2-2.2 12.6-1.8 20.9-1.8zm-29.3 10.4c.9-.4 1.3-1.4.9-2.2l-1.2-3c2.2-1.1 4.6-2.2 7.3-3.1l39.5 14.4 5.2 5.2c-1.1 1.6-1 3.9-.6 6.3l-69.7-5.4 8.5-8zm-14.9-117.2c.9 1.8 2.6 5.3 4.4 9.1-1.1-1.2-1.8-2-2.1-2.3-1.2-1.2-5.3-6.2-10.3-12.4 1.2-3.8 2.3-7.4 2.3-7.4.5.6 3.5 8.8 5.7 13zm-6.5-80.7c1.2-1 6.8-5.5 14.1-11.4l-20 62.8s-7.5-1-16-2.1c-2.5-3.3-4.5-5.9-5.6-7.4-2.6-3.5-6.3-7.8-9.4-11.3 13.8-11.4 34.1-28.2 36.9-30.6zm-29 100.4c1.2 1.2 3.7 3.5 6.7 6.1-.6 2-1 3.4-1.2 4-.8 3-7.1 25.2-8.9 30.2s-7.7 23.5-10.4 30.8c-2.6 7.3-9.8 31.1-10.2 33.2s-1.5 6.2-2.5 10.6c0 .1 0 .2-.1.4-1.3-1.5-2.6-2.8-3.5-3.9-1.9-2.6-4.8-4.5-4.8-4.5s-1-33.9-.6-39c.3-5.2 7.1-34.8 8.7-39.7 1.6-4.8 9-27.1 9.4-31.9.1-2.2-.1-6.6-.4-11.5 7 5.5 15 12.4 17.8 15.2zm-172.3-85.9c5.5 0 30.6-7.7 34.2-9.4 3.5-1.6 17.4-11.3 20-12.6s11.9-3.9 12.6-5.5c.6-1.6 1.9-54.8 1.9-54.8s29.4 4.2 37.1 4.2 43.6 4.5 43.6 4.5-11.9 18.4-15.5 22.9c-3.5 4.5-25.2 38.4-29.4 42.3s-9 12.9-9 18.1c0 2.6.5 7.2 1.1 11.9-28.9-4.9-89-15.4-95.4-16.2-6.9-.9-11.7-2.3-14.5-3.9 6.5-.8 11.7-1.5 13.3-1.5zm99.5 189.8c-18.4-22.7-40.5-49.7-42.4-52.1-3.3-3.9-30.2-37.1-34-41.8s-25.2-31.2-27-33.2-13.5-16.1-15.1-18.5-2.1-3.8-2.9-5-1.3-2.4-1.3-2.4-1-2.8 0-6c1-3.3 1.8-5.5 4.3-6.8s2.6-2.4 7.7-2.4 45 3.3 49.4 4.1c2.3.4 31.3 4.9 60.1 9.3.9 7.9.3 53.1.3 54.6 0 1.6 2.6 85.2 2.6 85.2l-.3 7.4c0 2.5-.6 5.2-1.4 7.6zm4.3 81.3v-.1.1c.1.1 0 .1 0 0zm-.2-1.5c-.1-.1-.1-.3-.2-.4-.3-.5-.9-.8-1.4-.8-.1-.1-.3-.2-.4-.4-.2-.4-.1-.9.1-1.2 0-.3-.1-.5-.2-.8-.1-.1-.1-.2-.2-.3v-.1c-.1-.3-.3-.5-.4-.7-.5 0-.9-.3-1-.8-.1-.3 0-.6.1-.9 0 .1.1.3.1.4 1.7-.8 3.8 0 4.6 1.7.7 1.5.2 3.2-1.1 4.3zm5.3 7.8c-.1-.3-.1-.6 0-.9 0-.1-.1-.3-.2-.4-.1-.2-.2-.5-.4-.7s-.4-.4-.6-.5c-.4.1-.9-.1-1.2-.4-.3-.4-.3-.8-.1-1.2-.1-.3-.2-.5-.4-.7-.1-.1-.2-.1-.3-.2v-.1c-.2-.2-.4-.4-.6-.5h-.1c1.5-.7 3.3-.4 4.3.9 1.1 1.3.9 3.4-.4 4.7zm-2.5-16.2c2.7-.4 5.3-.8 7.8-1.2.1.2.3.3.4.5.6 1.2.1 2.7-1.1 3.4.3.5.6.9.9 1.4 1.1-.8 2.5-.6 3.4.4-1.1 1-1.8 1.8-2 2-.5.9-2.4 1.6-3.2 1.6-.4 0-1.2-.2-2.1-.5-1.7-2.4-3-5-4.1-7.6zm9.6 22.5c-.2 0-.5-.1-.7-.2-.3-.3-.5-.7-.4-1.2-.1-.2-.3-.4-.5-.6-.1-.1-.2-.1-.3-.1-.2-.2-.4-.3-.6-.4-.4.1-.9 0-1.3-.3-.3-.3-.4-.8-.3-1.2-.1-.2-.2-.5-.4-.7-.1-.1-.3-.2-.5-.3-.1-.1-.2-.1-.2-.2 1.3-.9 3-1 4.3.1 1.5 1.2 1.7 3.4.6 4.9.1 0 .2.1.3.2zm7.8 3.2h-.1c-.3.3-.8.5-1.3.3-.4-.2-.7-.5-.8-1-.2-.2-.4-.3-.7-.4h-.1c-.2-.1-.5-.2-.8-.2-.4.3-.9.3-1.3.1s-.6-.6-.6-1.1c-.1-.2-.3-.3-.6-.5 1-1.4 2.9-1.9 4.4-1.1s2.2 2.4 1.9 3.9zm-8.7-12.8c.2-1.2.8-3 .9-3.5.1-.3 1-1.2 2.3-2.4-.1.4-.4.8-.7 1.1.3.3.6.7 1 1 .9-1 2.5-1.2 3.5-.3 1.1.9 1.2 2.4.4 3.5.4.3.8.5 1.1.8.7-1.2 2.2-1.7 3.4-1 1.2.6 1.7 2.1 1.2 3.4l1.5.6c-1.2 2.7-1.2 3.9-2.7 4.3-.1 0-.3 0-.5.1-4.2-1.9-8.1-4.5-11.4-7.6zm17.1 14.7c-.3.3-.8.5-1.2.4s-.8-.5-.9-.9c-.2-.2-.5-.3-.7-.3h-.3c-.1 0-.2-.1-.3-.1-.3-.1-.5-.1-.8 0-.3.3-.8.5-1.2.4l-.6-.3c.8-1.4 2.4-2.2 4-1.8 1.3.3 2.3 1.4 2.6 2.7-.3-.1-.5-.1-.6-.1zm10.1.1c-.2-.1-.5-.2-.8-.2h-.4c-.3 0-.5.1-.8.2-.2.4-.6.7-1.1.7-.4 0-.8-.3-1-.7-.2-.1-.5-.2-.8-.2h-.1c.7-.8 1.6-1.4 2.8-1.4 1.5 0 2.7.9 3.3 2.2-.6 0-.9-.2-1.1-.6zm10.3 0c-.2.4-.6.8-1.1.8s-.9-.3-1.1-.7c-.2-.1-.5-.1-.7-.1h-.4c-.3 0-.5.1-.7.2-.2.4-.6.8-1.1.8s-.9-.3-1.1-.7h-.2c.3-1.3 1.3-2.3 2.6-2.7 1.8-.4 3.6.6 4.2 2.4-.1-.1-.3-.1-.4 0zm-12.6-4.8c-1.9 0-3.7-.2-5.5-.5-1-1.1-1.8-2.5-1.8-3.1 0-.4.5-2.3 1.2-4.6.7.6 1 1.5.8 2.4.9.2 1.8.3 2.7.3.1-1.4 1.2-2.5 2.6-2.5s2.5 1.1 2.6 2.5c.6-.1 1.2-.1 1.8-.2-.3-1.3.6-2.7 1.9-3s2.7.5 3.1 1.8l1.8-.6c-.5-1.3 0-2.7 1.2-3.3s2.7-.1 3.4 1.1c.5-.3.9-.6 1.4-.9-.7-.9-.6-2.1 0-3 2.3 2.2 3.3 3.2 3.3 4.9v2.2c-5.9 4.1-12.9 6.5-20.5 6.5zm43.5 4.5c-.2 0-.5-.1-.6-.2-.2-.1-.3-.3-.4-.5-.2-.1-.5-.1-.7-.1h-.4c-.3 0-.5.1-.7.2-.2.4-.6.8-1.1.8-.2 0-.5-.1-.6-.2-.2-.1-.3-.3-.4-.5-.2-.1-.5-.1-.7-.1h-.4c-.3 0-.5.1-.7.2-.2.4-.6.7-1 .7-.4-.1-.8-.3-1-.6-.2-.1-.5-.1-.7-.1h-.7c-.3 0-.5.1-.7.2-.2.4-.6.7-1 .7-.4-.1-.8-.3-1-.6-.2-.1-.5-.1-.7-.1h-.7c-.3 0-.5.1-.7.2-.2.4-.6.7-1 .7-.4-.1-.8-.3-1-.6-.2-.1-.5-.1-.7-.1h-.7c-.3 0-.5.1-.7.2-.2.4-.6.7-1 .7-.4-.1-.8-.3-1-.6-.2-.1-.5-.1-.7-.1h-.6c-.3 0-.5.1-.7.2-.2.4-.6.8-1.1.8s-.9-.3-1.1-.7c-.2-.1-.5-.1-.7-.1h-.4c-.3 0-.5.1-.7.2-.2.4-.6.8-1.1.8s-.9-.3-1.1-.7c-.2-.1-.4-.1-.6-.1l1.8-.6c-.8-1.7 0-3.8 1.7-4.6s3.8-.2 4.7 1.5c.7-.4 1.3-.8 1.9-1.2-1.1-1.5-.9-3.7.7-4.9 1.5-1.2 3.7-1 4.9.5.5-.4.9-.9 1.4-1.3-1.4-1.3-1.6-3.4-.4-4.9s3.4-1.7 4.9-.6c.1-.2.2-.3.3-.5 2.4 5.7 5.3 11.2 8.4 16.5-.1-.6-.3-.5-.5-.5zm1.6-56.6c-.8-5.6-1.2-11.3-1.2-17.2l8.3-7.8c.3.1.6.3.7.6.2.1.5.2.7.2h.4c.3 0 .5 0 .8-.1.2-.4.6-.6 1.1-.6s.9.3 1.1.7c.2.1.5.2.7.2h.4c.3 0 .5 0 .8-.1.2-.4.6-.6 1.1-.6s.9.3 1.1.7c.2.1.5.2.7.2h.4c.3 0 .5 0 .8-.1.2-.4.6-.6 1.1-.6s.9.3 1.1.7c.2.1.5.2.7.2h.6c.3 0 .5 0 .8-.1.2-.4.6-.6 1.1-.6s.9.3 1.1.7c.2.1.5.2.7.2h.4c.3 0 .5 0 .8-.1.2-.4.6-.6 1.1-.6s.9.3 1.1.7c.2.1.5.2.7.2h.4c.3 0 .5 0 .8-.1.2-.4.6-.6 1.1-.6s.9.3 1.1.7c.2.1.5.2.7.2h.4c.3 0 .5 0 .8-.1.2-.4.6-.6 1.1-.6s.9.3 1.1.7c.2.1.5.2.7.2h.4c.3 0 .5 0 .8-.1.2-.4.6-.6 1.1-.6s.9.3 1.1.7c.2.1.5.2.7.2h.4c.3 0 .5 0 .8-.1.2-.4.6-.6 1.1-.6s.9.3 1.1.7c.2.1.5.2.7.2h.4c.3 0 .5 0 .8-.1.2-.4.6-.6 1.1-.6s.9.3 1.1.7c.2.1.5.2.7.2h.4c.3 0 .5 0 .8-.1.2-.4.6-.6 1.1-.6s.9.3 1.1.7c.2.1.5.2.7.2h.4c.3 0 .5 0 .8-.1.2-.4.6-.6 1.1-.6s.9.3 1.1.7c.2.1.5.2.7.2h.4c.3 0 .5 0 .8-.1.2-.4.6-.6 1.1-.6s.9.3 1.1.7c.2.1.5.2.7.2h.4c.3 0 .5 0 .8-.1.2-.4.6-.6 1.1-.6s.9.3 1.1.7c.2.1.5.2.7.2h.4c.3 0 .5 0 .8-.1.2-.4.6-.6 1.1-.6s.9.3 1.1.7c.2.1.5.2.7.2h.4c.3 0 .5 0 .8-.1.2-.4.6-.6 1.1-.6s.9.3 1.1.7c.2.1.5.2.7.2h.4c.3 0 .5 0 .8-.1.2-.4.6-.6 1.1-.6s.9.3 1.1.7c.2.1.5.2.7.2h.4c.3 0 .5 0 .8-.1.2-.4.6-.6 1.1-.6s.9.3 1.1.7c.1.1.3.1.4.1l-29.3 15.5c-5 .9-9 1.5-10.8 1.8-8.1-.8-28.6 1.9-42.1 3.4zm3.3 16.1c2.5-.5 4.7-1 6.5-1.4l-5.9 3.1c-.3-.5-.4-1.1-.6-1.7zm.8 2.7 8.7-4.6c5.5-.9 20-6 24.9-7 5-1 42-10 50.9-11.5 1.4-.2 3.1-.6 5.1-.9l-15.5 13.7-70.9 19.8c-1.2-3.2-2.3-6.3-3.2-9.5zm18.4 37c-.1 0-.2 0-.2-.1-5.9-8.2-10.8-17.2-14.6-26.7l68.9-19.3-51.1 45.2c-.2-.1-.5-.1-.7-.1h-.4c-.3 0-.5.1-.7.2-.3.5-.7.8-1.2.8zm1.8 2.7h.7c.3 0 .5-.1.7-.2.2-.4.6-.7 1.1-.7.2 0 .4.1.6.1.2.1.3.3.4.4h.1c.2.1.5.1.8.1h.4c.3 0 .5-.1.7-.2.2-.4.6-.7 1.1-.7.2 0 .4.1.6.1.2.1.3.3.4.4h.1c.2.1.5.1.8.1h.4c.3 0 .5-.1.7-.2.2-.4.6-.7 1.1-.7.2 0 .4.1.6.1.2.1.3.3.4.4h.1c.2.1.5.1.8.1h.4c.3 0 .5-.1.7-.2.2-.4.6-.7 1.1-.7.2 0 .4.1.6.1.2.1.3.3.4.4h.1c.2.1.5.1.8.1h.4c.3 0 .5-.1.7-.2.2-.4.6-.6 1-.7.4 0 .7.2.9.6.2.1.5.1.8.1h.6c.3 0 .5-.1.7-.2.2-.4.6-.6 1-.7.4 0 .7.2.9.6.2.1.5.1.8.1h.6c.3 0 .5-.1.7-.2.2-.4.6-.6 1-.7.4 0 .7.2.9.6.2.1.5.1.8.1h.6c.3 0 .5-.1.7-.2.2-.4.6-.6 1-.7.4 0 .7.2.9.6.2.1.5.1.8.1h.6c.3 0 .5-.1.7-.2.2-.4.6-.6 1-.7.4 0 .7.2.9.6.2.1.5.1.8.1h.7c.3 0 .5-.1.7-.2.1-.2.3-.4.6-.5l-16.9 23.7c-8.4-5.4-15.5-12.7-21.6-20.8zm21.8 22.4 17.2-24.1.3.3c.2.1.5.1.8.1h.7c.3 0 .5-.1.7-.2.2-.4.6-.6 1-.7.4 0 .7.2.9.6.2.1.5.1.8.1h.7c.3 0 .5-.1.7-.2.2-.4.6-.6 1-.7.4 0 .7.2.9.6.2.1.5.1.8.1h.7c.3 0 .5-.1.7-.2.2-.4.6-.7 1.1-.7.2 0 .4.1.6.2s.3.3.4.4c.2.1.5.1.8.1h.4c.3 0 .5-.1.7-.2.2-.4.6-.7 1.1-.7.2 0 .4.1.6.2s.3.3.4.4c.2.1.5.1.8.1h.4c.3 0 .5-.1.7-.2.2-.4.6-.7 1.1-.7.2 0 .4.1.6.2s.3.3.4.4c.2.1.5.1.8.1h.4c.3 0 .5-.1.7-.2.2-.4.6-.7 1.1-.7.2 0 .4.1.6.2s.3.3.4.4c.2.1.5.1.8.1h.4c.3 0 .5-.1.7-.2.2-.4.6-.7 1.1-.7s.9.2 1.1.6c.2.1.5.1.8.1h.4c.3 0 .5-.1.7-.2.2-.4.6-.7 1.1-.7.2 0 .5.1.7.2l-22.5 41.7c-10.2-3.9-19.2-9.4-27.3-15.9zm27.5 16.8 22.5-41.6c.1 0 .3.1.4.1h.4c.3 0 .5-.1.7-.2.2-.4.6-.7 1.1-.7s.9.2 1.1.6c.2.1.5.1.8.1h.4c.3 0 .5-.1.7-.2.2-.4.6-.7 1.1-.7s.9.2 1.1.6c.2.1.5.1.8.1h.6c.3 0 .5-.1.7-.2.2-.4.6-.7 1.1-.7.2 0 .4.1.6.1.2.1.3.3.4.4h.1c.2.1.5.1.8.1h.4c.3 0 .5-.1.7-.2.2-.4.6-.7 1.1-.7.2 0 .4.1.6.1.2.1.3.3.4.4h.1c.2.1.5.1.8.1h.4c.3 0 .5-.1.7-.2.2-.4.6-.7 1.1-.7.2 0 .4.1.6.1.2.1.3.3.4.4h.1c.2.1.5.1.8.1h.4c.3 0 .5-.1.7-.2.2-.4.5-.6 1-.7l-14.7 52.9c-10.8-1.7-21.2-4.9-31-9.2zm51.2 10.8c-6.5 0-13-.5-19.3-1.5l14-52.1c.1.1.2.1.2.2h.1c.2.1.5.1.8.1h.4c.3 0 .5-.1.7-.2.2-.4.6-.7 1.1-.7s.9.2 1.1.6c.2.1.5.1.8.1h.4c.3 0 .5-.1.7-.2.2-.4.6-.7 1.1-.7s.9.2 1.1.6c.2.1.5.1.8.1h.1l9.1 52.7c-4.4.8-8.8 1-13.2 1zm14-.8-9.1-52.8h.1c.2-.4.6-.7 1.1-.7s.9.2 1.1.6c.2.1.5.1.8.1h.4c.3 0 .5-.1.7-.2.1-.2.3-.4.6-.5.6.6 1.2.3 3.3 1 3 .9 3.9-1.2 6.5-1.4 1.1-.1 2-.5 2.8-1l22.9 47.4c-10 3.8-20.4 6.3-31.2 7.5zm31.9-7.8-23-47.6c.7-.6 1.3-1.4 1.7-2.1.9-1.6.4-3 .4-3s-.3-.9-1-1.6c-.8-.7-1.3-.5-1.6-.9s-.1-1.3-.3-2.4c-.1-1 0 0-.9-.8s0 0-.7-.4-.3-.8-.3-1.6-.1-1-.4-1.7-1.3-1-1.3-1l-1-.4c-1-.4-.4-1.2-.5-1.8-.1-.7-.9-1.6-2.6-2s-2.8-4.3-3.3-5.8c-.5-1.4-3.3-6.6-2.1-7.3 1.2-.8.7-1.2.8-2.6s-.8-3 1.4-3 2.2-.3 3.5-.9c1.3-.7 3.8-1 5.9-.8 2.1.3 1.6 1.6 2.2 3.1.7 1.6.7 3.9 2.1 5.1s2.5-.1 3-.9.5-2 2.1-3.1c.3-.2.7-.4 1-.7l42.8 68.9c-8.5 6.2-17.9 11.4-27.9 15.3zm-19.3-91.4 2 3.3c-.7.9-1 2.2-2 2.9-1.6 1-.4-1.6-.1-2.4.2-.5.2-2.2.1-3.8zm48 75.6-42.7-68.9c1-.6 1.9-1.2 2.3-2.1.7-1.4-1.3-2.5-3.7-2.4-.5 0-.9.2-1.2.4l-2.8-4.4v-.4c0-1.1-1.4-2.9-2.9-4.6.5-.4 1.1-.6 1.7-.6l14.6 5.3 58.2 55.2c-6.8 8.4-14.7 16-23.5 22.5zm24.2-23.4-56.6-53.7 73.1 26.4c-4.4 9.9-10 19-16.5 27.3zm16.8-28.1-75.2-27.1-8.8-8.4 92.7 5.9c-1.6 10.3-4.6 20.3-8.7 29.6zm-85-36.5-.8-.8c.1-.2.2-.4.2-.6-1.2-.4-1.9-1.6-1.6-2.9.3-1.2 1.6-2 2.8-1.7.1-.8.3-1.7.3-2.5-1.3-.1-2.3-1.1-2.3-2.4s1-2.3 2.3-2.4c0-.6-.1-1.1-.2-1.7-1.2.2-2.5-.5-2.7-1.8-.3-1.2.5-2.5 1.7-2.8-.2-.5-.4-1.1-.6-1.6-1.2.5-2.5 0-3.1-1.1-.3-.6-.3-1.2-.1-1.8l98.9-1.4c.4 3.9.6 7.8.6 11.7 0 6.7-.5 13.2-1.5 19.6z" fill="#c2d500"/></svg>