<svg version="1.1" viewBox="0.0 0.0 385.2283464566929 380.5564304461942" fill="none" stroke="none" stroke-linecap="square" stroke-miterlimit="10" xmlns:xlink="http://www.w3.org/1999/xlink" xmlns="http://www.w3.org/2000/svg"><clipPath id="p.0"><path d="m0 0l385.22833 0l0 380.55643l-385.22833 0l0 -380.55643z" clip-rule="nonzero"/></clipPath><g clip-path="url(#p.0)"><path fill="#000000" fill-opacity="0.0" d="m0 0l385.22833 0l0 380.55643l-385.22833 0z" fill-rule="evenodd"/><path fill="#efefef" d="m0 0l383.49606 0l0 383.49606l-383.49606 0z" fill-rule="evenodd"/><path fill="#a25db5" d="m0 0l385.98425 0l0 84.0l-385.98425 0z" fill-rule="evenodd"/><path fill="#a25db5" d="m0.0131233595 300.0l385.98425 0l0 84.0l-385.98425 0z" fill-rule="evenodd"/><path fill="#a25db5" d="m300.0 83.74803l85.98425 0l0 217.95274l-85.98425 0z" fill-rule="evenodd"/><path fill="#c2d500" d="m0.0131233595 83.74803l85.00787 0l0 215.99998l-85.00787 0z" fill-rule="evenodd"/><path fill="#c2d500" d="m84.614174 83.74803l216.0 0l0 84.0l-216.0 0z" fill-rule="evenodd"/><path fill="#c2d500" d="m84.25197 215.74803l216.34645 0l0 83.999985l-216.34645 0z" fill-rule="evenodd"/></g></svg>