<svg version="1.1" id="Layer_1" xmlns="http://www.w3.org/2000/svg" x="0" y="0" viewBox="0 0 950.5 949.6" style="enable-background:new 0 0 950.5 949.6" xml:space="preserve"><style>.st0{fill:#fff}</style><path class="st0" d="M475.5 949.6c-263 0-462.1-207.9-474.7-446-7.1-134.5 34.6-252.8 126.4-351.5C216.5 56 328.3 4.2 459.7.2c277.8-8.4 485.9 213.2 490.7 464.2 5.2 272.8-214.6 486.5-474.9 485.2zm-.4-8.8C730 943.1 945.5 732 941.7 468.3 938 217.3 736 16.3 492.2 9 352.3 4.8 232.9 54 136.5 155 55.2 240.2 12.3 343 8.9 460.9.9 732 221.3 942.7 475.1 940.8z"/><path class="st0" d="M934.6 474.7c.3 252.7-202.6 448.9-436.4 458.9-129.2 5.5-242.4-35.4-336.9-123.9C68.7 723 19.4 615 15.9 488.1 8.4 224 220.7 14.6 476.2 15.2c255.3.6 459 209.1 458.4 459.5zm-464-450.1c-240.7 0-454.4 202.5-446 464.5 3.9 122.1 50.8 226.3 138.8 310.6 91.6 87.8 202.3 129.8 329.1 125.5 235-8 429.5-202.5 433.4-443.6 4.2-252-204.9-461.6-455.3-457z"/><path class="st0" d="M816.9 474.4c1.6 188-150.8 338.5-329.9 343.4-202.2 5.6-343.6-153.4-353.7-317.7-5.9-95.4 21.4-179.9 84.5-251.6 65.9-74.8 149.8-114.2 249.5-116.8 196.6-4.9 351.4 156.8 349.6 342.7zm-8.5.6c.2-185-148.5-330.1-323.4-334.5-193-4.8-340.9 148.8-344 327.7-3.3 190.5 150.7 345.4 342.7 341.1 176.9-4 324.7-150 324.7-334.3z"/><path class="st0" d="M171.3 215c6.8 6.5 12.7 12 18.5 17.6 2.1 1.9 4 4 6.2 5.8 2.8 2.4 2.7 4.2.1 6.9-5.1 5.2-4.9 5.4-10.3.4-12.7-11.7-25.4-23.4-37.9-35 4.3-9.2 8-11 16.9-8.9 11.1 2.6 22.2 5.2 34 6.7-6.2-5.8-12.5-11.7-18.7-17.5-.7-.7-1.6-1.2-2.4-1.8-6.2-5.4-5.9-9 1.4-13 1-.6 3.5.2 4.5 1.2 11.5 10.6 23 21.2 34.3 32 6.4 6.1 6.5 6.4.1 12.3-1.7 1.5-5.2 2.2-7.5 1.7-11.6-2.3-23.1-5.1-34.6-7.7-1.1-.4-2.2-.4-4.6-.7zM246.1 168.5c-7.3-9.1-13.6-17.2-20.3-25-3.3-3.9-3.4-6.4 1.2-9 1.5-.9 2.8-2.3 4.6-3.9 5.1 6.2 10 12.2 14.9 18.2 6.1 7.5 12.2 14.9 18.1 22.6 1.5 2 4.9 3.6 2.6 7.1-3.1 4.7-8 7-12.2 5.4-9.4-3.5-18.6-7.2-27.9-10.8-3.1-1.2-6.2-2.3-9.9-2.9 5 6.2 10 12.4 15 18.7 1.5 1.8 3 3.6 4.4 5.4 4.3 5.2 2.7 10.4-4 12.3-.9.3-2.6-.5-3.3-1.3-11.3-13.8-22.5-27.6-33.6-41.5-.5-.7-1-1.8-.8-2.6.9-3.7 10.2-8.3 13.8-6.9 11.2 4.4 22.3 8.7 33.5 13.1 1 .3 1.9.5 3.9 1.1zM870.8 420.7c-6.9.6-13.7 1.2-20.6 1.9-4.3.4-8.6.8-12.9 1.3-5.5.7-4.1-3.8-4.6-6.3-.6-2.7-.6-5.7 3.7-6.2 15.4-1.5 30.7-3.3 46.1-4.8 9.9-1 10.7-.2 10.1 9.7-.1 1.9-1.6 4.3-3.2 5.6-9.2 6.9-18.6 13.5-27.9 20.2-1.2.9-2.3 1.8-3.3 3.6 7.9-.8 15.9-1.7 23.8-2.5 2-.2 4-.4 5.9-.6 7.9-.8 7.7-.8 8.6 7.2.4 3.5-.6 4.6-4.1 4.9-16 1.5-32 3.5-48.1 5-2.3.2-5.8 2.1-7.3-1.9-1.8-4.7-.8-10.6 2.4-12.9 9.3-6.7 18.6-13.5 27.9-20.2 1.3-.9 2.5-2 3.7-3 0-.4-.1-.7-.2-1zM823.8 648.9c-10.2 4.8-17.5-5.1-28.6-4.2 2.3-4.8 4-8.8 6.2-12.4.4-.7 3.1-.5 4.6 0 3.6 1.1 7.2 2.7 10.7 4.1 3.7 1.4 6.6.5 8.4-3 1.7-3.2 3-6.7 4.7-9.9 1.6-2.9.2-4.2-2.3-5.3-4.4-1.9-8.8-4.1-13.3-5.7-3.5-1.3-3.7-3.3-2.2-6.1.6-1.2 1.2-2.4 1.7-3.6 1-3.1 3-3.7 5.8-2.4 15.8 7.1 31.5 14.2 47.3 21.2 2.7 1.2 2.8 2.8 1.8 5.2-3.7 8.2-7.4 16.4-11 24.6-3.1 7.2-8.7 11.3-16.2 11.2-7.6-.2-13.5-4.3-16.3-11.9-.2-.5-.6-.9-1.3-1.8zm30.7-18.4c-4.1-1.9-7.5-3.6-11-4.9-.9-.3-2.9.6-3.4 1.5-1.9 3.8-3.7 7.8-5.1 11.9-1.2 3.5-1.1 6.9 3.1 8.7 4.1 1.7 7.6 1.1 9.7-3 2.4-4.4 4.3-9 6.7-14.2zM78.5 418.8c11.8 1.8 21.9 3.3 32.1 5 2.1.4 5.5 1.6 5.7 2.7.4 2.9-.3 6.3-1.5 9.1-.3.9-3.6 1-5.4.7-11.8-1.8-23.6-3.8-35.5-5.7-4.1-.7-8.2-1.5-12.3-1.9-4-.4-5.3-1.8-4.7-6.2.7-5.9 3-9.3 9-11.3C77.1 407.6 88 403 99 397.9c-8.9-1.4-17.8-2.8-26.6-4.2-1.1-.2-2.3-.2-3.5-.4-7.3-1.1-7.3-1.3-5.9-8.5.7-3.8 2.4-5 6.1-4.4 12.5 2.1 24.9 4 37.4 6 4.1.7 8.2 1.4 12.3 1.9 3.4.4 3.8 2.2 3.6 5.2-.4 5.9-2.6 9.5-8.8 11.4-10.1 3.1-19.9 7.4-29.9 11.2-1.4.6-2.6 1.4-5.2 2.7zM192.5 779.7c-12.5-.1-20.3-7.5-26-17.4-5.2-9.2-3.4-18.4 2.3-26.8 5-7.4 11.3-13.4 20-16.6 17-6.2 37.6 8.1 37.8 26.3.1 16.4-17.7 34.4-34.1 34.5zm-15.9-27.9c-.4 11.1 11.5 18.9 21.2 13.1 5.5-3.2 10.5-8.3 14-13.7 5.4-8.3-1.1-20.4-10.5-21.2-10.4-.9-24.4 11.4-24.7 21.8zM142.2 234.5c14.8.1 32.1 13.7 34.2 26.7 2 12.8-3.6 22.7-13.3 29.8-9.4 7-19.9 5.2-29.8 0-8.1-4.3-14.8-10-18.4-18.9-6.2-15.7 7.9-39.5 27.3-37.6zm-16 28.6c.1.4.1 2 .7 3.2 4.5 9.2 12.1 14.5 22.1 15.9 6.1.8 10.5-2.6 13.5-7.6 2.7-4.5 2.9-9.2 0-13.7-3.8-5.9-9.3-10-15.8-12.5-10.7-4-20 2.4-20.5 14.7zM85.2 453.7c7.4-9.9 19.1-1.5 28.2-9 0 5.7.3 9.7-.2 13.7-.1 1-2.3 2.4-3.7 2.6-3.8.5-7.6.5-11.4.7-5.3.3-7.3 2.2-7.3 7.4.2 16.2-2.4 13.2 13.2 13.5h1.5c7.8 0 10.2 3.2 7.8 10.7-.4 1.1-2.3 2.4-3.6 2.4-17.3.2-34.7.1-52 .1-2.8 0-3.7-1.2-3.7-3.9.2-8.8.3-17.7 0-26.5-.2-8.4 2.6-14.9 10.7-17.8 7.8-2.7 14.6-.9 20.5 6.1zm-4.8 21.1c-.3-3.3-.4-5.7-.8-8.2-.7-4-2.6-6.8-7.1-6.8-4.8 0-7 3-7.4 7.1-.4 4.1-.3 8.3-.1 12.4 0 1 1.2 2.8 2 2.8 3.9.2 8.1.6 11.7-.5 1.3-.2 1.3-4.8 1.7-6.8zM823 280.8c3.8 7.1 7.1 13.8 10.9 20.2 2.5 4.2.3 5.8-3.1 7.6-3.2 1.7-5.1 1.9-7-2-3.3-6.9-7.2-13.4-10.9-20-.9 0-1.4-.1-1.8.1-13.5 6.6-11.2 4.6-5.5 15.1 2.8 5.1 5.4 10.3 8.2 15.4 2 3.7-.3 5.2-3.1 6.3-2.5 1.1-5 3.7-7.3-.9-5.7-11.1-11.7-22-17.7-33-1.4-2.6-1.1-4.1 1.7-5.6 15.3-8.1 30.5-16.3 45.8-24.4 2.5-1.3 4.2-1.1 5.7 1.7 5.3 10.4 10.6 20.7 16.3 30.9 2.3 4.2.6 5.6-2.8 7.6-3.8 2.2-5.6 1.3-7.4-2.2-3.1-6.1-6.7-11.9-9.5-18.1-1.8-3.9-3.8-4.6-7.2-2.1-1.7 1.2-3.3 2.1-5.3 3.4zM293.4 108.1c-9 5.1-17.6 10-26.6 15.1 1.9 3.2 3.5 6.2 5.5 9.5 7-3.9 13.9-7.3 20.3-11.3 4.9-3.1 5.8.7 7.7 3.5 2.2 3.1 1.4 4.8-1.9 6.6-6.8 3.5-13.3 7.4-20.6 11.5 1.9 3.6 3.5 7.1 5.7 10 .6.8 3.6.4 5.1-.3 7.2-3.7 14.3-7.8 21.5-11.7.7-.4 1.5-.6 2.8-1.2 1.3 2.4 3.1 4.6 3.7 7 .4 1.4-.5 4-1.6 4.7-10.9 6.4-22.1 12.4-33.1 18.6-2.5 1.4-3.9.7-5.2-1.6-8.3-15.2-16.6-30.4-25.1-45.5-1.6-2.8-1.2-4.2 1.7-5.8 10.6-5.6 21-11.4 31.5-17.4 2.8-1.6 4.3-.8 5.6 1.7.8 2 1.7 3.9 3 6.6zM835.8 688.7c0 12.1-8.9 23.5-20.7 26.2-1.4.3-3.1.8-4.4.3-2.8-1-5.5-2.5-8.2-3.9 1.7-3 3.3-6 5.2-8.9.4-.6 2.1-.7 3.2-.6 6.5.7 13.3-5 13.2-11.6 0-2-1.3-4.9-2.8-5.6-1.5-.8-4.6-.1-6.2 1.1-4 3-7.6 6.4-11.2 9.9-9.3 8.9-16 10.1-24.2 4.1-7.6-5.5-10-16.2-4.6-25.5 3.2-5.6 7.9-10.7 12.8-14.9 5-4.3 11.5-3.8 17.5-1.3.9.4 2 1.5 2.2 2.4.6 3.3-6 9.8-9.2 8.7-7-2.3-15.9 9.9-13.7 16.9 1.2 3.7 5.3 4.7 9 1.8 4.1-3.3 8-7 11.8-10.7 8.1-7.7 15.5-8.6 23.7-2.8 4.9 3.6 6.7 8.6 6.6 14.4zM246 758.5c11.3.3 25.2 12 27.2 23 .3 1.8.6 3.8.1 5.4-1.1 3-2.9 5.7-4.4 8.5-2.9-1.9-5.8-3.7-8.5-5.9-.6-.5-.3-2.5-.2-3.7 1.1-7-6.8-16-13.8-15.6-4.1.2-7 4.7-4.8 8.1 3 4.6 6.5 8.8 10 13 6.5 8.1 7.8 14.8 3.8 21.4-4.5 7.5-12.6 10.8-21 8.1-10.1-3.2-17.5-9.4-20.2-20.1-.4-1.7-.8-3.8-.3-5.4 1-3.1 2.5-5.9 3.9-8.9 2.8 1.8 5.8 3.5 8.4 5.7.8.7.8 2.7.6 4-.9 6.4 4.4 13.2 10.9 13.4 1.9.1 4.9-.7 5.5-2 .9-1.7.6-4.8-.4-6.4-3-4.5-6.7-8.7-10.2-12.9-4.9-5.9-7.5-12.5-3.8-19.8 3.6-6.5 9.4-10.2 17.2-9.9zM873.2 572.7c-10.4-4.1-10.5-4.1-13 5.6-1.1 4.4-2.5 8.7-3.1 13.1-.7 5.4-3.6 5.2-7.7 4.3-4.7-1-4.2-3.8-3.3-7.2 1.7-6.9 3.4-13.9 5.3-21.5-3.7-1-7.1-2.4-10.6-2.8-1.1-.1-3.3 1.9-3.7 3.3-2.2 7.5-4.1 15.1-5.8 22.7-.8 3.8-2.6 4.6-5.9 3.4-3-1-6.9-.8-5.4-6.1 3.2-11.7 5.9-23.6 8.8-35.4.7-3 2.2-4.1 5.4-3.3 16.6 4.2 33.3 8.3 49.9 12.4 2.6.6 3.6 1.6 2.9 4.5-3 11.9-5.9 23.9-8.9 35.9-1.2 5-4.7 2.1-7.3 1.8-2.5-.3-4.9-1.1-3.9-4.8 2.2-8.5 4.1-17.1 6.3-25.9zM696.4 137.8c-5.2-2.6-10.9-3.7-10.2-11.6.4-4.7-8.5-10.6-13.3-9.9-4.8.8-6.6 5.9-3 9.9 3.9 4.3 8.1 8.3 12.3 12.5 6.7 6.7 8.3 13.3 4.9 20.1-3.6 7.2-11.7 11.2-20.2 9.7-9.5-1.7-16.9-6.9-22.4-14.7-3.6-5.1-3.8-10.8-1.6-16.7.9-2.4 2.2-3.2 4.5-1.9 3.9 2.3 8.2 3.5 7.3 10.1-.8 6.4 11.2 13.6 17.1 11.1 3.8-1.7 4.6-5.5 1.4-9-4.2-4.5-8.7-8.8-13-13.1-6.1-6.2-7.3-12.5-3.7-19.4 3.9-7.4 11.6-11.2 19.6-9.5 10.2 2.2 18.2 7.3 22.2 17.4 2.1 5 1.6 10.1-1.9 15zM102 581c2.1 6.5 3.8 12.4 6 18.1.4 1 3.3 1.9 4.6 1.5 5.4-1.5 10.8-3.4 16.1-5.4 3.3-1.3 5.4-1 6.2 2.9.3 1.3.8 2.6 1.3 3.8 1.2 3.1.6 4.9-2.8 6-16.2 5.2-32.3 10.5-48.4 15.9-2.7.9-4.5.5-5.4-2.5-.5-1.8-1.1-3.5-1.8-5.2-1.1-2.6-.1-4 2.5-4.8 4.8-1.5 9.5-3 14.1-5 1.2-.5 2.7-3.1 2.4-4.3-1.5-5.6-3.6-11-5.7-17.1-5.7 1.7-11.1 3.3-16.4 5.1-3.2 1.1-5.6 1-6.2-3-.5-3.4-4.8-7.4 2.1-9.6 15.9-5 31.6-10.3 47.4-15.6 4.1-1.4 5.9.2 6.7 4 .7 3.5 3.6 7.4-2.7 9-6.6 1.7-12.8 4-20 6.2zM107.3 537.9c-1.2-8.8-2.5-17.1-3.5-25.5-.2-2-.4-5.5.6-5.9 2.6-1.2 5.7-1.3 8.7-1.4.6 0 1.8 1.9 1.9 3 1.9 12.7 3.6 25.3 5.5 38 .4 2.5-.5 3.6-3.1 3.9-17.5 2.4-34.9 5-52.4 7.3-1.1.1-3.3-1.3-3.5-2.2-2-12.6-4.1-25.3-5.5-38-.5-4.5 4.1-3.1 6.7-3.8 2.9-.8 4.3.3 4.7 3.3 1 7.3 2.3 14.5 3.1 21.7.6 5.6 3.9 4.3 7.5 4.2 4.4-.2 4.2-2.4 3.6-5.6-1-6.1-1.3-12.3-2.5-18.3-.9-4.4 1-5.5 4.7-6.1 3.9-.6 6.2-.1 6.6 4.6.4 5.3 1.5 10.5 2.2 15.8 1 6.9 1 7.1 8.2 6.3 2-.2 4.1-.8 6.5-1.3zM463 868.7c8.8 12.4 8.3 21.6-1.3 29.5-7.4 6.1-24.1 4.8-30.5-2.3-7.6-8.4-6.4-18.4 3.6-29-6.2-9.8-5.7-18 1.6-24 7-5.8 21.6-5 28.2 1.6 6.6 6.6 6.2 14.3-1.6 24.2zm-7.3 13.8c0-5.6-2.8-8.7-7.9-8.7-4.6 0-7.3 3.1-7.4 8.5 0 6.2 2.6 9.2 7.9 9 4.5-.1 7.4-3.6 7.4-8.8zm-5.8-19.1c4.4-.1 6.7-2.5 6.6-6.9-.1-4.3-2.5-6.6-7-6.5-4.1 0-6.9 2.9-6.8 6.9.2 4 3 6.6 7.2 6.5zM539.5 109.6c5.4 0 8.5-2.8 9.7-9.4 1.9-10.8 3.6-21.7 5.2-32.5.9-5.7 1.1-5.9 8.2-4.9 4.1.6 6.6 1.4 5.5 6.8-2.1 9.4-3.1 19-4.7 28.6-.6 3.6-1.3 7.3-2.5 10.7-3 8.2-10.7 13.3-19.5 12.7-4.1-.3-8.3-1-12.2-2.3-10.8-3.5-16.1-12.7-14.3-23.8 1.8-11 3.8-22 5.3-33 .6-4.7 2.1-6.2 7-5.2 7.5 1.5 7.4 1.1 6.3 8.3-1.7 10.7-3.4 21.4-4.7 32.1-1.1 7.8 2.9 11.9 10.7 11.9zM185.9 696.2c-1.9 3.5-2.9 8.1-5.8 10.4-11.2 9.1-23 17.5-34.7 26-.9.7-3.9 0-4.8-1.1-6.4-7.8-6.2-7.7 2.1-13.6 8.7-6.1 17.5-12.2 25.8-18.8 5.1-4.1 5-7.8 1-12.9-3.8-4.9-8.6-6.2-13.5-2.9-9.4 6.2-18.6 12.9-27.9 19.3-1.7 1.2-5.3 2.7-5.9 2.1-2.5-2.6-4.2-5.8-5.9-9-.2-.5 1.2-2.2 2.2-2.9 9.5-6.7 19-13.5 28.7-20 12-8 22.4-5.9 31 5.9 4.9 6.5 6.6 11 7.7 17.5zM510.4 877.7c-4.7.9-8.9 2.7-12.9 2.3-12.9-1.3-18.1-9.2-17.1-24.4.6-10 9.1-17.3 20.2-17.3 10.8 0 17.2 4.7 20.2 15 3.5 11.9 4.7 23.8.2 35.8-4.8 12.7-23.5 16.9-32.8 7.1-2.1-2.2-2.5-6.1-3.7-9.2 3.4-.5 6.7-1 10.1-1.3.6-.1 1.5.7 2 1.3 2.4 3.1 5.2 4.6 9.1 2.8 3.9-1.8 4.9-5.2 4.9-9.1 0-1.2-.1-2.3-.2-3zm-1.1-18.2c-.3-3.9-1.1-8.3-6.3-10-3.7-1.2-7.1.1-8.5 3.3-1.2 2.7-1.4 6.4-.9 9.4.9 5.5 4 7.7 8.4 7.1 4.5-.7 7.3-4.1 7.3-9.8zM820.2 369.7c1.2-10.2 4.8-16 14.3-19.1 12-3.9 24.3-7.1 36.4-10.6 2.7-.8 4.1 0 4.8 2.7.3 1.3.8 2.6 1.2 3.8 1.5 3.8.3 5.8-3.7 6.9-10.1 2.7-20.2 5.6-30.2 8.6-9.6 2.8-12.3 7.7-8.8 15.6 2.3 5.3 6 7 12.3 5.2 10.3-2.8 20.5-5.9 30.8-8.6 2.2-.6 6.2-1.2 6.8-.3 1.8 2.9 2.3 6.5 3.1 9.9.1.6-1.3 1.9-2.2 2.1-13.1 3.7-26.1 7.9-39.5 10.6-9.7 2-16.4-2.2-20.4-11.3-2.4-4.9-3.4-10.4-4.9-15.5zM716.3 203.4c6.5-3.2 13.1-6.4 19.6-9.6 10.1-4.8 20.1-9.6 30.2-14.2 2.1-1 5.5-2.4 6.8-1.5 3.5 2.4 6.1 6 9 9.2.3.4-.1 1.6-.4 2.3-8.3 17.4-16.6 34.8-25 52.2-.2.4-.7.6-1.8 1.5-2.7-2.7-6-5.1-7.9-8.4-.9-1.6.3-5.2 1.6-7.1 2.8-3.9 2.1-6.6-1.4-9.2-1.1-.8-2.1-1.7-2.9-2.8-4.5-6.1-9.5-9-16.6-3.5-.8.6-3 .5-4-.2-3-2.1-5.7-4.5-8.5-6.9.7-.4 1-1.1 1.3-1.8zm30.7-.2c3.2 3.1 6 5.9 9.3 9.2 3.1-6.1 6-11.8 8.9-17.4-.4-.3-.8-.6-1.3-.9-5.4 2.9-10.9 5.9-16.9 9.1zM310.3 105c0-11.9 5.6-20.5 16.1-24.6 12.4-4.8 21.6-3.3 29.3 5 4 4.3 3.7 5.3-1.6 7.6-3.9 1.7-7 2.7-11-1-5.5-5.1-14.9-1.9-18.3 5.3-4.5 9.5 3.8 27.8 13.9 30.5 6.7 1.8 14.2-3.5 14.7-10.3.3-4.4 6.9-9.7 11.1-8.5 1 .3 2 2.5 2.1 3.9 1.2 13.6-9 25.5-23.1 27.2-11.4 1.4-20.2-2.7-26.3-12.5-4.3-6.9-7-14.4-6.9-22.6zM116 294.7c-1.3 3.4-2.2 5.4-2.8 7.5-1.1 3.3-2.7 5-6.7 5.1-7.6.3-12.9 9.5-10.1 16.7 3.5 9.1 19.9 16.6 29.1 13.3 7.1-2.5 10.6-12.1 6.7-18.2-1.3-2-3.9-4.2-3.7-6 .5-3.4 2.7-6.6 4.2-9.9 9.5 3.7 15.1 15.7 12.7 26.5-3.9 17.2-18.4 25.5-35.2 20.4-9.1-2.8-17.4-6.8-22.7-15.2-9.7-15.4.4-38.1 18.3-40.9 3-.5 6.2.4 10.2.7zM502.7 93.5c-.4 13.7-13 23.7-27 22.4-14.2-1.4-23.7-10.4-25.1-25.3-1.1-11.3-.1-22.2 9.1-30.9 10.1-9.7 36.3-9 42.1 7.8.8 2.3 1.1 6-.2 7.4-2.2 2.4-10.7.4-11.9-2.3-2.5-5.6-6.7-7.9-12.7-7.5-6.2.4-9.8 4.1-11.5 9.5-2.3 7.3-2.3 14.7.8 21.9 2.1 4.9 6 7.3 10.8 7.6 5 .3 9.4-1.6 11.7-6.8 3.1-6.8 8.9-2.7 13.9-3.8zM564.2 859c8.3 6 11.1 12.4 8.9 20.9-2.2 8.5-8.1 13.1-16.5 14.7-11.9 2.2-20.5-1.8-23.9-11.5-.7-2-2.9-4.8.9-6.3 4.9-2 9.5-1.4 10.8 1.8 1.8 4.2 4.5 6.6 9.3 5.6 4.5-1 7.1-4.8 6.6-9.2-.6-5-3-7.3-8.4-7.3-3.6 0-6.1.3-6.8-4.7-.7-5.1 2.9-4.4 5.3-6 2.1-1.4 4.7-4 4.7-6 0-2.5-2-5.9-4.1-7.1-1.8-1-5.4.1-7.6 1.3-1.4.7-2 3.3-2.5 5.2-1 3.4-5.6 6.2-9.7 4.7-1.4-.5-2.3-4.3-2.1-6.5 1-8.5 6.2-13.6 15.1-15.7 8.6-2.1 16.4-.3 21.3 7 3.9 5.8 3.6 12.8-1.3 19.1zM853.1 517.9c9.9 4.1 19.9 8.2 29.8 12.2 10.8 4.4 10.9 4.6 7.8 17.4-3.9-1.7-7.8-3.3-11.6-5.1-13.7-6.3-27.4-12.8-41.2-19-3.6-1.6-3.8-4.4-3.4-7.4.4-3.1 0-6.8 4.5-7.8 17.9-4 35.7-8.1 53.5-12.1 2.8-.6 3.9.4 3.9 3.3.3 8.4-1 10-9.2 11.5-5.7 1-11.5 2-17.2 3-5.6 1-11.1 2-16.7 3 0 .3-.1.7-.2 1zM751.9 793.6c-3.5 2.9-6.1 4.9-8.6 7.1-2.5 2.2-4.9 2.3-7.7.7-4.7-2.6-9.5-4.9-14.3-7.2-1.6-.8-3.2-1.4-6.1-2.6 1.1 4.7 1.9 8.2 2.7 11.7.7 2.9 1.2 5.9 2.1 8.7 1.5 4.3.3 7.4-3.6 9.6-2.1 1.2-4 2.8-6.9 4.8-1.1-5.9-2.1-11-3-16.1-.9-4.8-2.2-9.5-2.4-14.3-.3-10-6.2-17-12.2-23.8-3.4-3.9-2.3-6.1 1.4-8.8 3.4-2.5 6.4-4.8 9.2.3 6.6 12.2 18.2 17.3 30.4 21.8 6 2.4 11.9 5.1 19 8.1zM790.7 212.6c8-7.7 8.1-7.8 14.1 0 7.1 9.2 14 18.7 21.2 27.8 3 3.8.7 5.4-1.9 7.6-2.8 2.2-5.1 3.3-7.3-.5-.2-.3-.4-.5-.6-.8-7.2-9.3-7.2-9.4-16.5-2.4-8.3 6.2-16.5 12.3-24.8 18.6-2.4 1.8-4.3 3.7-7 .2-5.2-6.7-5.5-7.5-1.1-11 9.9-7.6 19.8-15.2 29.9-22.5 3.1-2.3 3.7-4.2 1.2-7.2-2.6-3-4.7-6.4-7.2-9.8zM107.7 681.3c-.5-.6-1.6-1.6-2.2-2.8-5.9-12.3-11.7-24.7-17.7-36.9-1.7-3.5.3-4.4 2.8-5.3 2.5-1 5.1-4.3 7.4.3.1.3.3.6.5.9 6 11.4 6 11.5 17.7 5.8 8.7-4.2 17.3-8.7 25.9-13 5.3-2.7 5.5-2.4 9 4.3 2.3 4.4 1 6.4-3.2 8.4-11.3 5.2-22.4 11-33.8 16.1-3.6 1.7-3.9 3.4-2.1 6.5 1.1 1.9 1.9 3.9 2.9 5.8 2.6 5.1-.6 10-7.2 9.9zM748.1 168.4c-4.5-3.5-8.7-6.7-13.6-10.5-4.1 5.1-8.1 10.1-12.1 15.1-5.1 6.5-10.3 13.1-15.3 19.7-1.6 2.2-3.1 2.5-5.4.9-7.9-5.5-8-5.5-2.1-13.1 7.8-10.1 15.7-20.2 24-30.8-3.4-2.9-6.4-5.7-9.8-8-3-2.1-3.7-3.9-1.2-6.8 2.3-2.6 4-5.9 8.3-2.4 7.4 6.1 15.1 12 22.7 17.9 2.1 1.6 4.2 3.3 6.3 4.9 5.6 4.5 5.6 4.6 1 9.9-.7 1-1.5 1.8-2.8 3.2zM398 73.3c1.8 9.6 3.5 18.8 5.3 27.9 1 5.1 1.8 10.2 2.9 15.2.8 3.5-.4 5-3.8 5.4-1.3.1-2.6.4-3.9.8-3.3 1-4.8-.1-5.5-3.6-2.2-12.1-4.6-24.2-7-36.3-1.4-7-1.4-7-8.4-5.6-1.3.3-2.6.5-3.9.8-6.4 1.2-6.6.9-7.8-5.3-.6-3.3.2-4.8 3.7-5.4 12.9-2.4 25.8-4.9 38.7-7.7 4.1-.9 5.4.9 5.8 4.5.4 3.2 1.5 6.4-3.4 7-4.1.5-8.1 1.5-12.7 2.3zM594.2 133.9c-14.5-4.2-13-1.5-8.7-15.2 3.2-10.2 6.5-20.3 10-30.4 1-2.9.5-4.3-2.5-5.1-2.3-.5-4.4-1.5-6.6-2.3-6.1-2.1-7.3-5.2-3.5-10.6.6-.9 2.9-1.5 4.1-1.1 13.2 4.1 26.3 8.5 39.4 12.8 3 1 2.8 3 1.8 5.1-1.2 2.3-.4 6.8-5.2 5.7-3.2-.7-6.4-1.8-9.5-3.1-3.9-1.6-4.9.6-5.8 3.7-3.9 12.5-8.1 25-12.1 37.5-.3 1-.9 1.9-1.4 3zM763.5 767.6c-12.4-11.9-23.7-22.7-34.7-33.3.6-1.3.7-1.9 1-2.2 9.5-9.7 6.6-8.8 15.2-.5 7.8 7.5 15.4 15.2 23 23 2.6 2.7 4.7 3.4 7.2.1 1.2-1.6 2.8-2.8 4.2-4.2 4.6-4.6 8.1-4.1 11.1 1.9.5.9 0 3-.8 3.8-9.7 9.9-19.5 19.6-29.2 29.5-2.9 2.9-4.5.5-6.1-1.3-1.7-1.9-5.5-3.4-2-6.8 3.3-3.3 6.8-6.3 11.1-10zM412.1 837c-1.8 9.6-3.3 18.3-5 26.9-1.7 8.8-3.7 17.5-5.2 26.4-.8 4.4-3 5-6.7 3.9-3.4-1-7.6-.5-6.3-6.4 2.2-10 3.8-20.2 6-30.3.9-4.1-.2-5.9-4.2-6.5-1.5-.2-2.9-.7-4.4-.9-3.1-.4-4.3-1.9-3.6-5.1.7-3.1 1.9-4.9 5.4-4.1 5.7 1.2 10-.5 13.1-5.6 2.2-3.7 5.4-1.1 8-.6 1.2.1 2.2 1.6 2.9 2.3zM807.3 734.4c-2.4 2.9-4.4 6-7.1 8.3-.7.6-3.8-1-5.3-2.2-12.9-10.2-25.6-20.7-38.5-30.9-2.7-2.2-3.1-4-.7-6.6 1.1-1.2 2.1-2.6 3.1-3.9 1.6-2.3 3.3-2.4 5.4-.7 13.6 11.1 27.3 22.3 40.9 33.4.8.7 1.3 1.5 2.2 2.6zM866.9 470.2c8.3 0 16.6.2 24.9-.1 3.6-.1 4.8 1.2 4.6 4.6-.1 1.3-.1 2.7 0 4 .2 3.5-1.3 5.1-5 5.1-16.6-.1-33.2-.1-49.8 0-4 0-5.1-1.6-5.1-5.4 0-8.4-.2-8.3 8-8.1 7.5.1 14.9-.1 22.4-.1zM424.6 62.1c-.5-6.2 4.5-4.9 7.9-5.5 3.7-.6 5.1.9 5.4 4.9 1.2 16.5 2.8 33 4.4 49.5.3 3 0 4.9-3.6 4.9-1.1 0-2.3.3-3.4.6-3.7.8-6.1-.1-6.4-4.4-.4-6.3-1-12.6-1.5-18.8-1-10.4-1.9-20.8-2.8-31.2zM654.8 568.2c1.4.2 2.8.4 4.4.5-1.3 4.6-3.5 7.6-8.4 7.9-.8 0-1.8.1-2.4.6-2.1 1.5-4.1 3.2-6.2 4.8 2.8 1.1 5.9 3.6 8.3 3 6.6-1.7 11.4 1.8 16.9 3.4 0 .4.1.9.1 1.3-3 1.1-5.9 2.3-9.4 3.6 4.4 2.8 8.5 5.3 12.5 7.8-3.5 1.7-6.9 3.3-10.4 5l.3.3c-2.4.6-4.7 1.1-8.1 2-1.3-1.5-3.6-4-6.2-7-1.3 2.3-3.8 3.5 0 5.3 1.6.8 4.7 2 2.4 5.8-1 1.7.9 5.2 1.7 8.8 4.6-4.2 8.3-7.8 12.3-11.3 9.7-8.4 19.5-16.9 32.9-18.8 4-.6 8.1-.1 12.1-.1l.6 1.5c-1.6 2-3.3 3.9-4.6 6.1-3.4 5.7-6.7 11.4-9.9 17.2-1.6 2.9-.3 4.5 2.6 5.6 5.6 2.2 11.3 4.1 16.5 7 4.3 2.4 7.9 6.1 11.8 9.2-7.7 1.6-15.1 1.6-20.9 4.8-9 4.8-16.9 11.6-25 17.9-4.2 3.2-7.7 7.3-11.8 10.8-4.3 3.6-6.7 2.9-9-2.3-.8-1.8-1.6-3.7-2.2-5.6-2.4-6.7-3.5-7-10.2-2.7 1.3 3.7 2.5 7.4 3.9 11.2 2.1 5.7 1.7 8.9-3.8 11.7-7.8 3.9-16 7.7-24.4 9.6-16.9 3.8-34 6.4-51 9.5-3.9.7-7.7 1.9-12.6 3.2 5.3 3 5 6.1 3.5 10.5-5.1 15.3-9.7 30.8-14.3 46.3-3.8 12.6-9.1 17.6-22.3 16.7-16.2-1.1-32.4-3.3-48.4-5.9-21.2-3.5-42.2-7.4-63.7-9-21.8-1.6-43.9-2.4-65.1-8.7-2.4-.7-4.7-1.8-6.8-3-3.5-1.9-4.7-4.8-3.2-8.8 1.4-3.7 2.2-7.7 3.5-11.4 1.2-3.3.1-4.6-3-5.9-15.5-6.2-30.8-12.6-46.2-19-1.2-.5-2.4-1.2-3.6-1.8-10.4-6-10.1-6.5-6.8-18.1 4.3-15.1 6.4-10-6.3-19.3-13.2-9.6-26.3-19.3-39.1-29.3-3.6-2.8-6.2-6.9-9.1-10.6-2.7-3.6-2.1-5.3 2.4-6 4.2-.7 8.6-.9 12.9-1.2 1.6-.1 3.2 0 4.1 0-1.5-17.4-2.9-34.2-4.3-51 .6-.2 1.1-.4 1.7-.5.7.9 1.5 1.8 2 2.8 6.2 11.4 13.7 21.6 24.1 29.6 2.8 2.1 5.3 4 7.1-1.1.5-1.5 2.4-2.6 4.4-4.6-3.6-.3-6.7-.6-9.7-.9-.1-.5-.2-.9-.3-1.4 4.3-2 6.6-7.1 12.6-6.8 2.7.1 5.6-.9 8.2-1.8 1.2-.4 2.1-1.9 3.1-2.9-1.1-1-2.1-2.5-3.5-3-1.6-.7-3.6-.9-5.4-.7-4.9.7-8.3-1-10.4-6.2 7.8 1.7 9.4-11.6 18.8-6-40.2-39.4-38-84.3-19.7-132.2-2 .7-3.7 1.3-5.4 1.9-4.2-6 4.8-10.2 2.3-16.6-4.9 3.8-9.6 7.4-14.2 11-.5-.4-1-.7-1.5-1.1.6-1.9 1.2-3.8 1.9-6.2h-8.1c.6-9.4 3.7-13.5 11.6-13.8-1.7-3.3-3.2-6.2-4.8-9.2.6-1.7 1.4-3.8 2.2-5.8 2.3-1 4.9-1.9 7.1-3.2.9-.5 1.9-2.2 1.7-3.1-.2-1-1.7-2.2-2.8-2.3-1.9-.2-3.9.5-5.9.3-3.7-.3-7.3-.9-11-1.4 0-.6 0-1.2-.1-1.8 2-1.2 3.9-2.4 6.8-4.2-3.9-2.1-7.1-3.9-10.9-5.9 3.7-3.1 7.5-6.3 11.5-9.7 1.6 1.7 3.3 3.5 5 5.3.3-.1.7-.3 1-.4-.2-2.2-.3-4.4-.6-7.3 2.9.2 5.6.5 9.3.7 1-1.8 2.4-4.2 4-7.2 1.1-.1 2.9-.3 5.2-.6-1.8-2.9-3.6-5.6-5.7-9.1h14.8c.8 1.8 1.6 3.9 2.6 6.1 2.5-2.1 4.6-3.9 6.7-5.7.6.2 1.2.5 1.8.7 0 2.5.1 4.9 0 7.4-.1 2.8-.7 5.6-.6 8.4 0 1.1 1.5 2.2 2.2 3.3.9-.9 1.9-1.6 2.5-2.7.5-.8.5-1.9.8-2.9.9-2.5 1.8-5 2.9-7.8 2.1 1.3 3.1 2 4.7 3 3.9-14.3 5.9-28.1 1.1-42.1-1.4-4.2-3.3-6-8-3.5-7.7 4-16.1 5.2-24.7 4.7-6.8-.4-14.4-6.4-15.9-12.6-1.7-7.2 1-14.1 7.2-17.6 1.5-.9 3.5-1.6 5.1-1.4 15.3 2.3 29 7.7 37.7 21.6 5.8 9.2 7.7 19.5 6.6 30.2-.8 7.2-2.6 14.4-4 21.6-.7 3.5-1 7.1-2.1 10.4-1.6 4.9-3.7 9.6-5.8 15 5-2.2 6.9-6.6 8.6-10.5 7.4-17.5 11-35.6 7.6-54.6-3.2-18-18.8-32.9-39.2-37.5-2.1-.5-4.3-.6-6.4-1.3-1.4-.5-3.5-1.5-3.7-2.6-.3-1.5.5-4.1 1.6-4.7 4.4-2.3 9-4.2 13.6-5.8 6.9-2.5 13.9-4.5 20.8-7 13.6-4.9 21.5-16.4 30.3-26.8 6-7.1 11.6-14.5 17.5-21.8 1.1-1.4 2.5-3 4.1-3.6 1.7-.7 3.9-.8 5.5-.2.8.3 1.2 2.8 1 4.2-1.4 11.9.6 22.9 8.2 32.5 10.8 13.6 25.5 19.2 42.4 20 13 .6 24.9-3.5 36.4-9.2 3.7-1.8 5.9-4.9 5.1-9.3-.7-4.4-3.4-7.8-7.7-8.1-3.3-.2-6.9 1.5-9.9 3.1-1.1.6-1.2 3.5-1.2 5.4 0 .5 2.2 1.8 2.7 1.5 1.3-.7 2.2-2.2 3.4-3.2.9-.7 2.4-1.9 3.2-1.6 1.4.5 2.8 1.7 3.5 3.1.4.8-.2 2.9-1 3.4-3 1.7-6.2 3.2-9.4 4.5-19.8 7.7-38.9 7.2-56.3-6.1-11.3-8.6-15.9-20.4-13.6-34.4.5-2.9 3.4-6.2 6.2-7.7 6.2-3.5 16.3-.9 21.1 4.5 4.8 5.3 5.4 13.2 1.2 19.9-2.2 3.5-4.8 6.8-7.6 9.8-3.5 3.9-3.7 5.2 1.2 7.2 6.1 2.5 12.5 5.3 18.9 5.8 5.5.4 11.3-2.1 17-3.3-.1-.7-.1-1.3-.2-2-4.8 0-10.1 1.4-14.1-.4-3.9-1.7-8.2-5.4-7.7-12.3 4.4.4 8.8.8 13.7 1.3-1.4-4.8-4.9-5.3-8.1-5.6-4.9-.5-7.4-2.6-6.5-8 1.8-.3 3.6-.6 6-.9-1.4-1.6-2.4-2.8-3.9-4.5 1.9-3.5 4-7.3 6.3-11.6 2 2.9 3.6 5.3 5.6 8.1.9-1.8 1.6-3.3 2.3-4.7 3.5-.7 6.9-1.3 10.7-2-3.4-8 5-8.5 8.8-13.2.7 3.5 1.2 5.9 1.8 9 1.6-1.2 2.8-2.1 5.1-3.8-1 6.5 2.7 8.2 7.1 9.6 1.1.4 1.6 2.4 2.6 3.5 1.2 1.4 2.5 2.5 3.8 3.8.5-.3 1-.5 1.5-.8-.2-1.6 0-3.4-.6-4.8-.8-2-1.9-4-3.4-5.4-4.1-3.8-5.3-7.4-.1-11.7 1.3 1 2.8 2.1 5 3.7v-7.2c4.2-1.6 8.5-3.3 13.3-5.1-.4 3.6-.7 6.7-1 10.1 2.2-.9 4.1-1.6 6.3-2.4 1.2 4.9-4.1 9.6.4 13.7.6.6 2.3-.1 3.5-.2-.8-8.6-.8-8.6 4.8-10.1 1 1.5 2 3.1 3.7 5.8.8-2.8 1.4-4.6 2.2-7.3 4.3.2 8.9.4 13.9.7-2.1 3.3-3.8 5.8-5.8 8.8h6.3c.1 2.5.2 4.6.3 6.8.4.2.9.4 1.3.6 3.1-9.4 9.6-5.4 15.6-5-1.5 2.6-2.9 5-4.7 8h5.6c-.9 7.7-9.4 7-13.4 12.5 5.2.7 9.5 1.4 14.1 2-3.7 9.3-12.2 8.1-18.9 10.6 3.6 4.9 7.3 2.8 10.7 1.8 5.8 7.3-2.2 8.2-6.2 11.9 13.1 1.6 24.1-.9 34.6-8.3-2.3-2.8-4.5-5.3-6.4-7.9-1.6-2.1-3-4.4-4.3-6.7-7.4-13.4.3-26.1 15.7-25.8 8.4.2 12.5 4 13.2 12.4 1.2 16.2-6.4 27.8-19.9 35.3-19.3 10.8-38.8 8.2-57.8-1.6-1.2-.6-2.2-2.8-2.3-4.4-.1-.9 1.8-2.8 2.7-2.8 1.2.1 2.3 1.7 3.5 2.6 2 1.4 4 2.6 7 3.3-.9-2.8-1-6.7-2.9-8.2-2.5-2-6.9-3.6-9.7-2.7-2.8.9-5.3 4.7-6.5 7.8-1.5 3.9 1 7.3 4.4 9.1 23.3 12.3 50.8 14.4 73-4.3 11-9.3 15.7-21.6 13.8-36.2-.3-2.3.6-4.8 1-7.2 2.6.9 6 1.1 7.7 3 8 8.9 16.1 17.9 22.9 27.6 12.5 17.9 30.6 25.4 50.6 30.2 3.2.8 6.5 1.8 9.2 3.6 1.7 1.2 2.4 3.9 3.6 6-1.8.9-3.5 2.4-5.4 2.6-22.5 2.9-40.1 17.6-44.3 38.9-2.7 13.5-1.8 27.2 2.7 40.5 2.3 6.8 4.9 13.5 7.4 20.2.4 1.1 1.2 2.1 2.6 4.4 1.4-5.8 1.3-9.8-.4-14.1-4.9-12.6-8.4-25.6-8.2-39.4.3-20.8 12-36.6 32-42.6 2.4-.7 4.8-1.4 7.2-1.9 8.2-1.8 14.5 1.3 17.2 8.6 2.7 7.2-.4 15.7-7.2 19.4-7.5 4.1-15.5 3-23.4 1.4-3.7-.8-7.3-2.3-10.7-4-3.7-1.9-5.3-.5-6.7 2.9-4.3 10.6-3.9 21.6-1.7 32.4 1.5 7.6 4.3 15 6.6 22.5.3.9.8 1.9 1.5 2.5 3.3 2.8 5.7 5.9 5.3 10.6-.1 1.1 1.2 2.4 1.8 3.6.6 0 1.2-.1 1.7-.1.4-2.4.9-4.8 1-7.2.1-1.5-.3-3-.7-4.4-1.6-6.4-1.3-6.9 5.5-8.5.8 1.5 1.7 3.1 3 5.4 1.1-2.3 1.9-4 2.6-5.5 2.4-.6 4.7-1.6 6.9-1.5 2.4.1 4.7 1.1 7.1 1.7-1.7 2.8-3.3 5.4-5.1 8.5h6.5c-1.2 2.5-3.3 4.9-3 6.8.3 2 3 3.6 4.5 3.8 3.3-1.3 6.5-2.6 10.8-4.3-.6 3.8-1 6.1-1.7 10.1 3-2.6 4.9-4.2 7.1-6.2 3.8 2.9 7.7 5.8 11.8 9-4 2-7.3 3.6-11.2 5.6 2.3 1.7 4.2 3.1 6.6 4.8-3.9 1.9-6.5 5-10.8 3-.6-.3-1.4-.5-2-.3-2.4.6-4.8 1.4-7.2 2.1 1.7 1.9 3 4.4 5 5.5 6.3 3.3 7.4 6.7 3.1 12.6-.5.6-.8 1.4-1.6 2.7h6.6c2 5.1 4 10 6.2 15.7-3.6-1-6.5-1.8-10.3-2.9 1.2 2.9 2.1 5 2.9 7.1-.4.4-.8.8-1.1 1.2-2.7-1.6-5.6-2.9-8-4.9-2.3-1.9-4.2-4.3-6.3-6.5-.7.4-1.3.8-2 1.1 1 2.5 1.5 5.3 2.9 7.5 2.1 3.2 2.7 6.3 1.2 9.9-.4 1.1-.4 2.6-.1 3.8 3.6 12.8 5.5 25.8 4.7 39-1.6 26.2-10.7 48.9-31.2 66.3-1.1 1-2.5 1.6-3.8 2.4 1.2.7 1.6 1.2 2 1.7zm28.8-158.6c.4 3-4.4 6.3-.5 8.7 1.5.9 5-1.5 7.6-2.4.1 0 .1-.3.2-.6-2.5-1.9-4.9-3.8-7.3-5.7-2.2-3.7-.6-6.2 3-7.3 2.3-.7 4.9-.3 7.3-.4h5.1c-4.6-4.7-4.4-5.8.6-8.6 1.3-.8 2.4-2 3.8-3.2-3-3.2-5.5-5-9.2-1.6-.9.9-3.2 1.7-3.9 1.2-1-.8-1.3-2.7-1.7-4.2-.2-.7 0-1.5 0-2.3-.4-.2-.9-.4-1.3-.7-1.2 1.7-2.6 3.3-3.5 5.2-1.5 3.1-2.5 6.5-4.2 9.6-1.9 3.4-5.7 4.1-7.9 1.7-2.4-2.6-4.7-5.3-7.4-8.5-1 3.2-2.9 6.2-2.3 8.5 1.6 7.3-.7 13.7-2.8 20.3-.2.7-.1 1.5-.3 3.8 4-5.9 7.2-10.6 10.2-15 5.4.6 10.1-.8 14.5 1.5zm-15-137.5c0-.5.1-.9.1-1.4-7.6-2.2-15.3-4.4-22.9-6.8-10.3-3.2-20.1-7.4-27.2-15.9-7.8-9.3-15.3-18.9-23-28.2-3-3.7-6.3-7.2-9.2-10.5-.9 7.3-1 14.4-2.8 21-7.1 24.7-33.3 37.5-57.6 36.6-14-.5-26.7-5.1-38.6-12.1-9.4 11.6-12.8 11.7-23.4.4-.3 0-.7 0-1 .2-.5.2-.9.5-1.3.7-18.4 9.7-37.5 14.1-58.2 8-19.5-5.7-40-24.8-38.2-48.9.1-1.7 0-3.4 0-5.2-.4-.2-.9-.3-1.3-.5-5.4 6.7-11.2 13.1-16.1 20.1-14.3 20.3-32.5 34.5-57.7 38.5-2.9.5-5.6 2-8.4 3.1 1.8 1.4 3.2 1.8 4.6 2.1 1.6.4 3.3.8 4.8 1.3 18.7 6 32.6 17 38.2 36.7 4.8 16.7 2.9 33.1-2.5 49.1-3.7 10.9-6.3 22.1-10.8 32.8-.2.6 0 1.3 0 1.9 0 3 .8 6.5-.4 9-1.3 2.7-4.5 4.4-6.8 6.4 3.6 1.4 6.3 4.2 5 8.9-1.3 4.5-4.4 6.4-9.1 5.6-1.5-.2-3.1.5-4.9.8v-4.7h-.9c-.2 3.1-.3 6.1-.5 9.2-.4-.2-.7-.4-1.1-.6-1.8 2.1-3.8 4-5.3 6.3-1.3 1.9-1.9 4.2-2.8 6.4-8.1 19.8-13.5 40-10.3 61.8 2.3 16.2 8.2 30.8 19.5 43 2 2.2 3.4 2.4 5.2.3.7-.9 1-2.1 1.2-2.3 4.7 2.4 8.1 4.2 11.5 6l.9-1.5c-1.7-1.4-3.3-2.9-5-4.3.2-.5.3-.9.5-1.4 4.9-.3 9.9-.9 14.8-.6 2.3.1 5.3 1.4 6.5 3.1 3 4.8 6.7 8.7 11.6 11.4.4.2.6.9 1 1.1 1.9.9 3.9 1.8 5.8 2.6 2.5 1 5.5 1.3 7.6 2.8 3 2.1 3.3 7.7 8.8 6.9.3 0 .7 1.4 1.2 2 .8 1 1.5 2.7 2.5 2.9 5.9 1.3 7.6 6.5 11 10.8-1.5.5-2.5.9-3.7 1.4 14.4 5.6 29.4 4.8 44 6.5 14.1 1.7 28.3 3.1 40.6 11 4.1 2.6 7.6 6.1 11.5 9.3 6.5-7.7 14.3-12.9 23.6-15 12.1-2.7 24.5-4.4 36.8-6.2 8.7-1.3 17.5-2 26.2-3.2 1.6-.2 3.4-1.3 4.6-2.5 1.8-1.8 3.2-4 4.7-6 .5.4 1 .7 1.4 1.1 0-6 3-8.3 8.5-10.4 4.9-1.9 8.5-7.1 12.7-10.9.2-.2.1-.6.2-1 2.9-10.3 11.9-15 22.1-11.5l-2.7 4.8c.4.4.8.7 1.3 1.1 2.8-2.7 5.6-5.3 8-7.5 2.4 1.1 4.8 3.1 6.1 2.6 5.3-2.1 9.2 1 13.7 2.7-.4 1.1-.7 2.1-1.1 3 .4.3.7.5 1.1.8 5.4-6 11.6-11.5 16.1-18.2 17.3-25.4 16.2-53 7.7-81-.4-1.4-2.5-2.3-3.5-3.5-3.2-3.8-9.6-5.4-8.5-12.2.1-.8-.2-1.6-.5-3.7-.6 2.9-1 4.4-1.7 7.5-2-3-3.2-4.9-4.6-6.7-.8-1-1.6-2.1-2.7-2.8-5.9-3.8-6.4-9.3-1.3-13.9 3.4-3 3.1-5.7-.8-8.2-1.7-1.1-3.7-1.8-5.1-3.2-2.9-2.8-5.2-5.3-4.3-10.6.7-4.4 2.5-9.3 0-14.4-7.4-15.5-12.7-31.8-14.8-49-3.3-27.3 10.1-50.9 35.4-60.5 4.4-2.1 9.3-3.2 14-4.6zM575.4 604c-4 1-8 2.3-12 2.8-15.5 1.9-31.1 3.2-46.6 5.2-17.8 2.2-31.3 9.9-35.8 28.8-1.1 4.6-3.2 8.9-5.3 14.3-1.1-2.1-1.8-3-2.2-4-1.4-3.6-3-7.1-3.8-10.8-4-16.6-15.4-24.8-31.4-27.3-12.6-1.9-25.4-3-38.1-4.1-5.2-.5-10.5-.7-15.6.1-3.8.6-6.9.5-10.2-1.7-1.9-1.2-4.3-1.9-6.5-2.3-1.2-.2-2.6.7-4 1.1.5 1.2.6 2.7 1.5 3.4 2.5 2.1 5.1 4.5 8 5.7 5.3 2.2 5.5 7.7 9.2 10.9-.3.3-.6.7-.8 1-3.4-1-6.7-2-10.8-3.2 2.3 4.6 4.2 8.5 6.4 12.7-4.3-.8-8.4-1.5-12.6-2.3-2.4-.7-4.8-1.4-8-2.3-.3-2.4-.7-5.8-1.3-10.5-3.2 3-5.4 5-7.2 6.7-2.5-1.4-4.4-2.6-6.8-3.9-.6-3.8-8.2-11-12.1-10.8-1.2-1.7-2.3-3.3-3.5-5-.6.2-1.2.5-1.8.7.8 3.7 1.7 7.5 2.4 11.2.3 1.7.9 3.5.6 5.1-.9 3.9-.3 6.7 3.5 8.7 4.7 2.3 5.6 6.1 3.7 10.9-1.2 3.1-1.8 6.4-3 9.5-1.4 3.7.2 5.2 3.4 6.2 5.4 1.6 10.9 2.9 16.2 4.9 8.7 3.3 17.3 6.8 25.7 10.7 4.2 1.9 5.4 5.6 3.4 10.1-1.2 2.9-2.2 5.9-3.2 8.9-1.9 5.6-1.6 6.3 4.3 7 17.3 2.1 34.7 3.9 52 5.9 16.5 1.9 33 3.9 49.5 5.9 4.7.6 9.3 1.3 14.2 2 .1-1.4.2-2.1.1-2.7-1.9-12.1.5-23.4 7.2-33.3 7.2-10.7 17.6-17.8 29.7-21.8 12-4 24.3-6.9 36.5-10.3 1.5-.4 3.7-1 4.2-2.1 1-2.5 1.2-5.4 1.8-8.5-3.2 1.7-6.2 3.3-9.2 4.9-.4-.5-.9-1-1.3-1.5 2.4-3.8 4.6-7.8 7.2-11.5 1.7-2.4 4.2-4.3 5.9-6.7.7-1 .4-2.7.6-4.1-1.4 0-2.9-.4-4.2.1-1.8.7-3.9 1.6-5.1 3.1-3.4 4.4-7.6 4.9-12.3 3.2 3.9-8.9 7.5-17.6 17.5-21zm-223.2 99.6c-3.2 10.3-6.4 20.5-9.5 30.6-1.8 6-1.2 7.9 4.7 9.8 6.6 2.1 13.4 4.1 20.3 4.9 23.2 2.8 46.6 4.4 69.8 7.6 24.2 3.3 48.2 7.8 72.3 11.6 9.1 1.4 18.3 2.5 27.1-1 3-1.2 6.6-3.7 7.6-6.5 4-11 7-22.4 10.4-33.6-4.8.9-9.2 2.1-13.6 2.5-18.6 1.7-36.8-2.2-55.1-4.3-26.5-3.1-53.1-6.1-79.6-9.3-18.3-2.2-37.1-2.7-54.4-12.3zm183.3 17c.7-8.5 4.1-14.7 10.8-18 7.4-3.7 15.2-7 23.1-9 16.5-4 33.3-6.6 49.8-10.5 7.2-1.7 14-5.1 20.8-8.1 4.9-2.2 6.1-5.8 3.5-10.9-1.8-3.4-2.6-7.2-4-10.8-1.4-3.6-2.8-7.2-3.8-9.8-7.8 2.8-14.8 5.9-22.2 7.6-12 2.8-24.2 4.5-36.3 6.8-18.7 3.4-37.3 7.1-53.8 17.3-13.5 8.4-21.3 20.2-21.9 36.4-.1 2.7.1 5.2 3.5 5.6 10 1.3 20 2.3 30.5 3.4zm-190.8-1.4c.8-2.1 1.5-3.7 2.1-5.4 2-6.3 4-12.7 6-19 2.3-7 3.3-7.7 10.7-7.6h8.9c.1-.8.3-1.7.4-2.5-7.7-2.9-15.3-6.1-23-8.8-18.5-6.6-38.5-9.4-55.4-21.5-.7 1.9-1.4 3.5-1.9 5.2-2.5 7.8-4.9 15.5-7.5 23.3-2.4 7.4-2.1 9 4.8 12.7 8.2 4.3 16.7 8.4 25.2 12 9.6 4.1 19.5 7.7 29.7 11.6zM288 666c2.3-6.8 4.2-12.7 6.2-18.7 2.8-8.5 3.8-9.1 12.6-7.6 2.6.4 5.2 1.1 7.8 1.7 3.1.7 6.2 1.4 9.2 2-29.2-13-59.2-24.4-77.2-53.6-.6.2-1.1.5-1.7.7 1.6 11 3.2 22.1 4.9 33.7H234c15.7 18 34.6 29.3 54 41.8zm64.7-68.4c.7-.3 1.4-.6 2-.9-.4-2.8-1.2-5.7-1.2-8.5 0-4-.4-7.2-4.9-8.5-3.4-1-6.6-3.2-9.9-3.5-6.6-.6-9.6-2.3-11.8-8.7-1.5-4.3-3.4-4.9-7.4-2.5-1.7 1.1-3.4 2.1-5.3 3.3 3.4.6 6.4.7 9.2 1.6 1.3.4 3 2.2 2.9 3.3-.1 1.5-1.3 3.5-2.7 4.2-2 1-4.5 1.1-6.7 1.6-3.6.8-7.6.9-10.8 2.4-2.9 1.3-4.8 4.6-7.6 6.3-3 1.9-3.7 3.9-1.9 7.9 3.3-1.3 6.4-2.5 9.5-3.8 3.8-1.5 7.9-2.2 10.3 1.7 2.5 3.9-.3 7.1-3.4 9.2-3.4 2.3-7.1 4.3-10.8 6-2.7 1.3-3.9 2.7-2.4 5.7.9-.1 1.6-.3 2.2-.2 2.1.3 4.3.6 6.4.9-.4 2.1-.9 4.2-1.3 6.4-.2 1.3-.6 2.8-.1 3.9 1.2 2.5 2.9 4.8 5 8.2 1.6-3.7 2.5-6.1 3.7-8.4.5-1.1 1.4-2.6 2.3-2.7 1-.2 2.4.8 3.3 1.6.9.8 1.5 2.1 2.2 3.2.8-2.5.6-4.9.2-7.2-.4-2.4-1.8-5-1.4-7.2.5-2.8 2.4-5.3 3.8-8 2.5 1.3 5.3 2.2 7.4 3.9 1.6 1.3 2.2 3.6 3.4 5.4.6.9 1.4 1.5 2.2 2.4 4.3-7.3 4.1-9-.2-14.9-1.9-2.6-3.5-5.7-4.4-8.8-1-3.5 1.1-6.1 4.5-4.9 3.5 1.2 6.6 3.8 9.8 6 1.6.8 2.7 2.3 3.9 3.6zm356 31.2c-5.9-2.2-10.4-3.8-14.9-5.4-3.3-1.2-4.6-3-3-6.5 2.3-5.1 4.5-10.2 7.2-16.3-21.2 6.3-32.6 24.8-50 35.2 3.5 9.3 6.8 18.3 10.6 28.4 16.6-12.5 28.5-29.7 50.1-35.4zm-109.7 4c3.3-3 3.8-5.4.6-8.6-2.5-2.5-4.5-5.8-5.7-9.1-.7-1.9.1-5.4 1.5-6.5 1.7-1.3 5-1.5 7.2-.8 2.1.7 3.5 3.3 5.3 4.9 1.4 1.3 3 2.5 4.8 3.9 1.4-2.4 2.9-3.9 3.1-5.6.8-6.6-3.9-13.4-10.6-15.9-4.7-1.7-8.9-3.9-7.9-10.9-2.6.6-5.2.5-6.3 1.7-6.4 6.6-7.9 6.9-15.9 1.6-2.4-1.6-4.3-2.3-5.7 1.4-.8 2.2-3 3.8-4.4 5.8-1.1 1.6-1.9 3.5-2.8 5.2.4.3.9.6 1.3.9 1.1-.6 2.2-1.3 3.3-1.8 2.7-1.2 5.4-2.8 8.3-3.1 2.3-.2 4.8 1.2 7.2 2-.9 2.2-1.2 5-2.8 6.4-3.2 2.8-7 5-10.7 7.2-3.8 2.3-5.5 6.6-4 11.2 3.3-2.2 6.5-4.7 10.1-6.3 2-.9 4.6-.1 7-.1-.2 2.5.4 5.4-.6 7.4-1.6 3-4.5 5.3-6.7 8-1 1.2-1.5 2.8-2.6 4.9 7.9-2.5 7.9-2.4 6.6 4.9-.3 1.4 0 2.9 0 4.7 6.1-2.2 11.1-4.4 11-11.8 0-3.6 2.4-4.9 5.9-3.4 1 .3 2.1 1 3.5 1.8zM340.3 743c-2.1 5-2 5.8 2.2 8 2.9 1.5 6 3.1 9.2 3.6 14.1 2.2 28.2 4.3 42.4 5.9 13.9 1.6 27.9 1.7 41.7 3.8 24.8 3.7 49.4 8.7 74.3 12.3 7.9 1.1 16.2-.3 24.2-1.3 3.4-.4 6.6-2.6 7.4-6.2-6.9.9-13.7 2.9-20.2 2.3-14.9-1.4-29.8-3.4-44.4-6.4-30.2-6.2-60.9-8.3-91.4-11.4-15.7-1.5-31.4-2.7-45.4-10.6zm135.5-104c.8-1.9 1.5-3.5 2-5.2 3.4-9.7 9-17.9 18.9-21.3 9-3.1 18.5-5.3 27.9-6.8 9.3-1.5 18.9-1.6 28.3-2.5 3.3-.3 6.2-1.4 6.1-5.8-.8-.2-1.4-.6-2-.5-16 1.8-32.1 3-48 5.5-13.2 2.1-24.8 7.7-32.1 19.9-.4.6-1.2 1-2.1 1.7-8.7-14.8-22.7-20.3-38.4-22.5-9.5-1.4-19.2-2-28.8-3-14.9-1.6-30-2.4-42.4-12.5-1.1-.9-3.5-.3-5.2-.4-.1.5-.2 1.1-.3 1.6 1 .8 1.9 1.6 2.9 2.3 5.7 4.2 14.5 3 18.5 10.5.3.5 1.5.5 2.3.7 3.1.6 6.2 1.4 9.3 1.8 15 1.7 30.1 2.9 45.1 5 11.8 1.7 22.8 5.8 29.9 16.2 3.3 4.5 5.3 9.9 8.1 15.3zm-120.7 57.7c-2.2 3.9.1 5.8 2.6 7.1 3.1 1.6 6.4 3.1 9.8 3.6 18.7 2.8 37.5 5.5 56.2 7.9 19 2.4 38 4.4 56.9 6.6 16.7 1.9 33.3 4.3 50 5.5 7 .5 14.1-1.2 21.1-2.6 2.2-.4 4-3 6-4.6-.3-.5-.6-.9-.9-1.4-13.1 5.2-26.5 3.9-39.8 2.3-20.1-2.4-40.1-5.8-60.3-8.1-21-2.4-42-3.8-63-6.3-13.1-1.6-26.5-2.7-38.6-10zm281.1-62.1c1.1-1.6 2.4-2.6 2.4-3.8.1-2.9 3.6-5.4.7-8.7-1.3-1.5-1.8-3.6-2.7-5.4 2-.8 4.1-1.6 6.1-2.3.6-.2 1.2-.3 1.9-.5.6-4.2-2.1-5-5.2-5.9-4.1-1.2-8.2-2.5-12.1-4.4-2.6-1.3-5.7-3.8-3.7-7 1.3-2.1 4.6-3.6 7.1-3.9 2.8-.3 5.8 1.3 8.7 1.5 1.4.1 3.1-.7 4.2-1.6.5-.4.3-2.7-.3-3.1-3.5-2.4-7-5.6-11-6.4-5.6-1.1-11.6-.3-18-.3 1 1.9 1.7 3.2 2.3 4.4-.1.5-.3 1.1-.4 1.6-5.3-.6-10.6-1.3-15.9-1.9-.2.6-.4 1.1-.7 1.7 6.3 4 12.6 8 17.6 11.1 0 3.6-1 6.8.2 7.9 4.8 5 4 10.9 4.1 16.9 0 2.1.6 4.3 1 7.4 1.3-1.5 1.8-1.9 2.1-2.4 3.4-5.1 4-5 7.1.1 1.4 1.7 2.9 3.1 4.5 5zm-259.7-49.7c-.2-2.4-9.4-11.9-11.1-11.8-.5 0-1 .2-1.4.4-4.4 1.5-10.1 10.4-7.8 14.1 2.9 4.7.2 8.7.8 13-4.7.2-7.6-1-9.9-5.4-1.6-3.2-4.8-6.6-9.7-4.6.1 6.1 1.3 7.3 6.5 7.7 4.1.3 6.6 3 6.1 7-.6 3.8-2 7.7-3.7 11.2-1.7 3.6-2 6.2 1 7.2 3.5-1.4 6.9-3.9 8.3-3.1 2.2 1.3 3.1 4.8 5.2 8.6 2.1.7 5.7 1.9 10.9 3.6-1.2-3.2-1.9-4.9-2.6-6.6-1.1-3-.8-5 3.1-4.6 1.1.1 2.1.3 3.2.5-.5-2.1-1.5-3.5-2.9-4.5-1.9-1.4-4.1-2.2-5.9-3.6-2.9-2.4-7-5.1-4.4-9.3 2.4-4 6.8-2.1 10.5-1 2.4.8 4.7 1.9 7.9 3.2-1.6-5.9-3.3-9.7-8.7-11.1-3.7-1-7.3-2.4-10.5-4.4-1.8-1.1-2.5-3.9-3.6-5.9 2.1-1.1 4.1-2.6 6.3-3.2 1.6-.4 3.6.2 5.4.6 2.2.6 4.5 1.3 7 2zM499 708.1c2.5-18.3 13.2-30.4 29.3-38.3 17.7-8.7 36.9-12 56.1-15.4 12.4-2.2 24.8-4.9 37.1-7.8 3.6-.9 6.9-3.2 9.9-5.4 1.1-.8 1-3.1 1.5-4.6-1.5.1-3.1-.2-4.4.3-4.5 1.6-8.8 4-13.5 5.2-7.6 1.9-15.2 3.8-23 4.6-7.8.8-14.9 3.6-22.7 4.6-15 2-29.6 6.2-43.2 13.4-17.5 9.1-27.4 23-27.1 43.4zM295.4 397.4c.2 1.5.8 2.8.5 4-.4 1.9-1.3 3.8-1.9 5.6-1.7-1.1-3.5-2.1-5-3.3-.6-.5-.9-1.4-1.1-2.2-1.8-4.9-4.9-8.2-10.5-8.3-1 0-2 .3-3.1.4.2 1.2.1 2.6.7 3.5 1.2 1.7 3.4 3 4.1 4.8.7 1.8.6 4.7-.4 6.1-.8 1.1-4 1.4-5.6.7-2.7-1.1-4.8-3.4-7.3-5-.7-.5-1.8-.6-2.7-.4-.3.1-.8 1.5-.5 2 2.7 5.1 0 6.5-4.5 7.9-1.8.5-2.8 3.6-4.1 5.5 1.9.3 3.8.5 5.7.8.5.1.9.3 1.6.5v5.8c2.5-2.5 4.2-4.8 6.4-6.4 1.5-1.1 3.7-1.2 5.7-1.8.5 1.8 1.6 3.8 1.3 5.5-.5 2.7-1.9 5.2-3 8.1 3.6.5 6.3.4 7.6-3.6.7-2 1.6-4.2 3-5.7 1.5-1.6 3.8-2.5 5.8-3.7.6 2.3 1.7 4.6 1.5 6.8-.2 2.6-1.7 5.1-2.7 7.9 4-.2 9.5-4.8 9.4-7.8-.2-4.9 1.5-8.7 5-11.9 1-.9 2.1-2.9 1.8-3.7-2.3-4-5-7.8-7.7-12.1zM491.8 206c-2.1 1.2-3.4 2.5-4.9 2.7-2.6.4-5.3.1-7.9.1.7-2.5 1-5.1 2.1-7.4 1.1-2.2 2.9-4 5.4-7.4-5.3 1.5-7.9 1.3-6.6-3.5.2-.8-.5-2.4-1.3-2.8-.8-.4-2.5 0-3 .6-1.1 1.3-2.5 3-2.5 4.5-.2 4.3-1.4 5.7-5.4 3.1-.6-.4-1.5-.3-3.5-.6 1.3 2.4 2.1 3.8 3 5.3 1.2 2 2.6 3.8 3.7 5.9 1.4 2.8 2.7 6.4-.9 7.7-2 .7-5.3-1-7.6-2.4-1.8-1-3-3.1-4.7-4.9-2.6 5.3.7 13.8 5.8 16.7 2 1.2 4.2 2.2 5.7 3.9 2 2.3 2.2 4.6-1.8 5.2-.9.1-1.8.3-3.6.7 1.4 1.9 2.4 3.2 3.3 4.5.1-.5.2-1 .4-1.5 3.6-.5 7.3-.9 10.9-1.6 3.4-.7 7.1-1 10-2.7 2.8-1.6 6.3-3.8 5.7-8.6-2.9 1-5.5 2.4-8.2 2.6-1.9.1-4.7-.9-5.5-2.3-.6-1.1.8-3.9 2-5.4 1.2-1.5 3.1-2.6 4.9-3.3 3.9-1.4 4.9-4.3 4.5-9.1zM680 450.3l1.5-1.5c-1-2-2.6-4-3-6.2-.4-2.2.4-4.6.7-6.9 2.2.5 4.8.5 6.6 1.7 2.1 1.4 3.5 3.7 5.9 6.4-.3-6.1-.3-6.1 6.8-6.9.3-3.6-1.3-6.3-4.8-6.7-4.5-.5-4.9-2.3-3.5-5.9.3-.8-.1-2-.2-3-1.1.2-2.3.2-3.1.7-2.4 1.5-4.4 3.7-6.9 4.8-1.5.7-4.4.5-5.3-.5-1.1-1.3-1.5-4-.9-5.7.7-2 2.9-3.5 4.2-5.3.6-1 1-2.5.7-3.6-.2-.6-2-1.5-2.8-1.2-4.8 1.6-10 2.8-11.3 9-.3 1.4-1.2 2.8-2.2 3.8-1 .9-2.8 1.8-3.7 1.4-1-.4-1.8-2.2-2.1-3.5-.3-1.5.2-3.1.4-6.1-2.8 1.6-4.7 2.6-6.6 3.7 1 1.4 2.1 2.8 3 4.3 1.1 1.8 2.4 3.7 2.7 5.7.7 4.6.8 9.4 1.3 14 .4 3.6 5 7.6 8.3 7.5-.8-3.6-2.1-7.3-2.3-11-.2-3.6 2.6-4.8 5.2-2.3 2.3 2.3 3.7 5.5 5.8 8 1.7 2.1 3.8 3.6 5.6 5.3zm-45.2 117.3c5.3-1.5 11.4-1.8 15.9-4.7 9.1-6 15.9-14.5 21.3-24.1 11-19.5 13.3-40.5 10.3-62.3-1.6-11.6-4.5-22.7-11.1-32.6-1.2-1.7-2.7-3.3-4-4.9 1 6.8 3.1 12.9 5.1 19 4.8 14.6 6.6 29.6 5 44.8-2.9 28.8-17.4 50.3-42.5 64.8zM288.4 422.7c-.6-.1-1.2-.2-1.7-.4-.2.2-.6.4-.7.7-11.7 24.5-20.8 49.6-18.3 77.6 1.6 18.2 7 34.8 18.7 49.1 1 1.3 4 2.5 5 1.9 3-1.6.6-3.5-.7-5.1-13.4-16.8-18.4-36.5-18-57.4.3-15.2 4-30 9.9-44 3.1-7.3-.7-15.9 5.8-22.4zm19.9-66.4c-.9 3.1-1.1 5.5-2.4 7.2-1.4 1.9-3.7 3.1-5.6 4.6-1.3-1.8-3.3-3.5-3.8-5.6-.6-2.3 0-4.9.2-7.4.1-1.5.3-3 .5-4.5-4.4 4-7.3 4.9-10.3-1-.7-1.4-3.9-1.5-5.9-2.2l-.9 1.2c.7 1.4 1.7 2.7 1.9 4.2.2 1.5-.3 3.2-.5 5 1.5 1.3 3.4 2.5 4.7 4.1 2 2.5 3.7 5.3 5.1 8.1 1.3 2.6 1.5 5.7 3 8.1 1.6 2.5 1.6 4.2.1 6.8-.9 1.4-.4 3.7-.5 5.6.6 0 1.2.1 1.8.1.7-3.9 1.3-7.8 2-11.7.5-.1 1.1-.2 1.6-.2 1.1 2.4 2.1 4.9 3.2 7.3 1.5 3.2 7.4 6.2 10.4 5 3.8-1.5 3.7-4.6 2.9-8-.3-1.1.1-2.4.2-5.1-1.2 1.7-1.5 2.4-1.9 2.8-1.9 1.7-4 4.8-6.5 2-1.1-1.3.3-4.7.7-7.1.1-.6.8-1 1.2-1.6 3.5-4.8 3.3-11.3-1.2-17.7zm230.9 363.9c1.1-.9 3-1.6 3.2-2.7 1.9-9.8 9.7-13 17.7-14.7 19.5-4.2 39.2-7.4 58.7-11.4 9.6-2 19.2-4.3 26.9-11 2.3-2 3.1-4.1.9-6.7-3.4 2-6.5 4.2-10 5.8-15.2 7.3-31.9 8.9-48.1 12.2-13.4 2.7-26.9 4.7-39 11.6-6.2 3.6-11.2 8.1-10.3 16.9zm132.2-355.9c-2.1 1.5-4.7 2.7-6.2 4.7-2.3 3.1-4 3.1-6 0-.4-.6-1-1.2-2.5-2.9-.3 2.8-.7 4.4-.6 6 .1 2 .9 3.9.8 5.9-.1 3.5-.2 7.9-4.7 8.1-3.9.1-5-3.5-5-7.3 0-1.2-.6-2.8-1.4-3.4-.8-.5-3.1-.4-3.5.3-2.7 3.8-2.3 10.8.6 14.9 1 1.5 2.4 3 2.7 4.7.3 1.7-.4 3.6-.7 5.4-1.6-.5-3.2-.9-4.7-1.7-.9-.5-1.7-1.4-2.6-2.3-1.7 9.6-.3 12.5 7.2 14.7-.6-10.4.7-11.7 11.6-14.6 2.2-.6 5.1-3.6 5.3-5.7.6-7.8 4.2-12.5 11.6-14.5.2 0 .2-.6.4-1.3-9.3-2 1-6.7-2.3-11zm-378.6 40.2c.5-1.5.8-2.1.7-2.5-2.3-7.6-2.9-15.4-2.7-23.3 0-2-1-4.2-1.8-6.1-1.1-2.7-4.3-3-5.9-.6-.9 1.4-.7 3.4-1.3 5.1-.6 1.9-1.5 3.8-2.3 5.6-2-.9-4.5-1.4-5.9-2.9-1.6-1.7-2.4-4.3-3.4-6.6-.9-2.1-1.5-4.4-2.4-6.5-.3-.7-1.4-1.6-2.2-1.6-.6 0-1.5 1.2-1.7 2-1.5 5.6-1.3 5.3-6.7 2.8-1.6-.7-4.1.4-6.2.7.6 1.5.9 3.9 1.9 4.3 5 2 5.4 4.6 1.2 8.6 6.4 1.9 16.4-5.2 16.6 8.4 2-1.2 3.4-2 4.1-2.4 3.3.5 5.9.9 9.4 1.4 2.3 3.8 5.2 8.3 8.6 13.6zm239.2-176c-.4-.5-.7-1-1.1-1.5-1.3.2-2.7.7-3.9.4-2.2-.6-4.2-1.7-6.4-2.7 1.3-2.1 2.2-4.6 3.8-6.3 1.4-1.4 3.6-2 6.6-3.5-8.5-2.1-1.2-6.6-3.2-11.1-2.3 1.9-4.3 3.2-5.8 5-1.9 2.3-3.5 3.6-5.8.6-.4-.5-1.2-.7-2.7-1.5.3 2.9.6 5 .7 7.1.1 2.1.3 4.4-.3 6.3-.5 1.4-2.4 3.1-3.7 3.2-1.3.1-3-1.6-3.8-3-.8-1.3-.4-3.5-1.3-4.7-.7-1-3.5-1.8-3.9-1.4-3.2 3.8-1 12.9 3.6 15.4 4.7 2.6 7.7 6.1 8 11.8.1 1.5 1.7 3.4 3.1 4.1 4.3 2.1 7.8.5 10.9-4.8-2.1 0-4.1.5-5.5-.1-2.2-1-4-2.8-6-4.3 1.8-1.6 3.4-3.6 5.5-4.7 1.7-.9 4-.2 5.8-.9 1.8-.7 3.5-2.2 5.4-3.4zM298 585.4c2.5-5.5 10.1-9.3 15.8-9.1 3.4.1 6.8-.9 10.2-1.3 0-.7.1-1.4.1-2.2-1.7-.6-3.3-1.5-5.1-1.7-2.1-.3-4.4.1-6.5-.2-1.3-.2-2.4-1.3-3.6-1.9.9-.9 1.7-1.8 2.6-2.6.5-.4 1.2-.6 1.8-.9 6.2-2.9 6.9-3.4 3.1-9-2.3-3.3-7-5.7-11-6.9-2.5-.8-5.9 1.3-8.7 2.4-1.3.6-2.2 2.1-3.3 3.2 1.2.7 2.3 1.6 3.6 2.1 3.3 1.4 7.1 2.1 9.8 4.1 3.6 2.8 2.5 6.7-2 7.6-3.1.7-6.6.5-9.8 0-7-1.1-9.6.1-13 7.1 5.8 1.7 14.8-2 16 9.3zm-.5 62c-2.5 2.6-1.7 5 .8 6.7 3 2 6.1 4.2 9.5 5.4 11.9 4.3 23.9 8 35.8 12.2 9.8 3.5 19.5 7.4 29.3 11.1 1.7.7 3.6 1 5.4 1.5-.9-2-1.6-4.1-2.8-5.9-.7-1-2.2-1.5-3.4-2-6.8-2.7-13.5-5.7-20.4-8.1-18.3-6.4-37.7-9.9-54.2-20.9zm8.4-346c-2.5-2-4.2-4.1-6.3-5-6.8-2.6-13.6-5.2-20.6-7.1-5.7-1.5-11 4.9-8.3 10.2 1.7 3.2 5.1 6.9 8.3 7.7 9.1 2 18.1.5 26.9-5.8zm338.9-.2c9.2 6.5 18.8 8.1 28.8 5.6 2.6-.7 5.3-4.1 6.5-6.9 1.9-4.5-2.3-11.4-6.4-11-10.7 1.2-20.3 4.9-28.9 12.3zm1.5 330.5c.6.3 1.3.5 1.9.8 2-1.3 4.2-2.5 6.1-4 7.5-6.3 14.9-12.7 22.4-19 6-5 12.4-9.8 20.5-10.7 3.6-.4 5.2-2 6.8-5.5-3.1 0-5.7-.3-8.2.1-9.1 1.5-16.8 6.2-23.8 11.9-8.3 6.8-16.3 14-24.3 21.3-1.1 1.1-1 3.4-1.4 5.1zm-86.7-395.2c.7-.2 1.4-.4 2.1-.7 4.9-7.1 7.6-14.8 5.8-23.6-.3-1.3-1.2-2.8-2.2-3.7-2.5-1.9-10.1-.5-13.1 2.1-3.3 2.8-4.5 6.5-2.5 10.2 3 5.5 6.6 10.5 9.9 15.7zm159.5 400.3c-6.6-6.4-7.7-6.9-15-3.9-4.8 2.1-9.8 4.4-13.8 7.7-8.9 7.2-17.3 14.9-25.9 22.6-1.9 1.7-6.8 2.8-3.4 6.5 2.9 3.2 5.4-.9 7.3-2.6 5.4-4.6 10.3-9.9 15.7-14.6 9.8-8.6 20.4-15.9 35.1-15.7zM390.4 237.7c3.8-6 7.4-10.9 10.3-16.2 2-3.7 1.3-8.2-2.3-10.3-3.5-2-8-2.3-12.1-2.8-.9-.1-2.7 2.2-2.9 3.5-1.4 8.9-.3 17.2 7 25.8zm61.1-35c-7.3 4.4-3.4-5.3-7.8-5.2-.7 1.1-2.3 2.5-2.1 3.6 1 5.2-.8 7.6-7.6 6.6 3.4 3 6.1 4.6 7.6 7 1.3 2.1 1.3 5 1.9 7.6-2.6-.1-5.2 0-7.7-.3-1.6-.3-3.2-1.3-4.7-2 2.2 6 4.1 11.9 11.3 11.8 7.4-.2 12.4-3.5 12.9-12.1-2-1.8-5.7-3.7-6.5-6.4-.7-3 1.5-6.6 2.7-10.6zM305.3 631.1c-.1-1.6.2-3.3-.3-3.7-3-2.3-6.1-4.7-9.5-6.3-19.5-9.3-36.5-21.5-48-40.3-.4-.7-1.1-1.2-2.1-2.3 2.3 18.8 34.5 45.4 59.9 52.6zM436 249.9c7.3-5.3-1.6-9.6-.7-14.3 1.5-.2 2.9-.3 5-.6-10-4.8-14.6-11.6-11.1-22.7-5.9 6-5.8-2.7-9.8-2.5-.3 1.7-1.5 4.2-.7 5.2 3.6 4.8 1.1 6.6-5.1 7.9 3 1.3 4.4 2 5.8 2.6 2.3 1 4.9 1.5 6.8 3 1.4 1.1 2.8 4 2.2 5.1-.7 1.4-3.3 2.5-5.2 2.6-2.1.2-4.3-.9-6.4-1.4-.3 1-.6 1.3-.5 1.6.1.5.1 1.1.4 1.4 3.9 3.7 8 6.7 14.1 5 1.8-.5 4.4.7 6.3 1.6.3.3-.6 3-1.1 5.5zM281.5 694.4c-2.2 4.4 2.1 6.6 5.4 8.1 17.3 7.7 34.7 15 52.1 22.3 1 .4 2.7-.6 4.1-1-1.1-1.3-1.9-3.1-3.2-3.7-9.3-3.9-18.9-7.4-28.1-11.4-10.1-4.5-20-9.4-30.3-14.3zm311.1-62c-2.2 9.2.4 12 8.3 10.3 4.5-1 9-2.2 13.6-3 4.7-.8 5.7-2.9 3.9-7.3-2.4-5.9-5.5-11.9.4-17.7.1 0-.3-.5-1-1.6-5.9 8.1-11.7 15.9-17.4 23.6-2.5-1.4-4.9-2.7-7.8-4.3zM229 624.6c-.4.7-.8 1.4-1.3 2.1 15.7 19.6 37 32 57.4 45.9 2.1-4.3 2.1-4.2-2.4-7.1-17.7-11.2-35.4-22.4-49.4-38.4-.9-1.2-2.8-1.7-4.3-2.5zm383.1-46.3c.1.6.3 1.2.4 1.8 14.2.5 28.3.2 42.4-8.6-4.3-1.7-8.2-4.7-11.2-4.1-9.5 2.1-18.6 5.6-27.9 8.7-1.3.5-2.4 1.5-3.7 2.2zm-280.6 67.5c-11.6 1-21.6-5.2-33.6-3.4 1.6 2 2.2 3.5 3.2 4 8 3.8 16.1 7.6 24.3 11.1.7.3 2.7-.6 3-1.4 1.2-3.1 1.9-6.2 3.1-10.3zm164.6-448.9-1.5.3c.5 2.1.7 4.2 1.4 6.1 1.5 4-.9 10.7-4.7 12.6-2.6 1.3-5.1 2.9-7.8 4.4.8 1.3 1.4 2.7 1.5 2.6 4.4-1.5 9.2-2.6 12.8-5.3 1-.8 1.5-4.6 3.9-6.2 3.2-2.2 6.3-4.6 9.8-7.2-8.3-2.3.7-6.3-1.8-10.3-1.7.8-4.1 1.2-5.3 2.6-4.1 5-3.9 5.1-8.3.4zm150.2 391c.5 3.1.8 5.7 1.3 9.1h-12.8c.3 1.6.4 3.6 1 5.4.4 1.2 1.7 2.8 2.6 2.8 1.3 0 3.2-1.1 3.6-2.2 1.8-4.5 4.2-4 7.2-1.5 4.8 4 8.4 3.7 13.6-1.3-1.9-1.4-3.7-2.6-5.4-4-.9-.8-2.3-1.8-2.3-2.7 0-1 1.4-2 2.3-2.8.9-.7 2.1-1 3.2-1.5 0-.4-.1-.9-.1-1.3h-14.2zm-345.9 18.5c5.3-1.7 5.8-3.6 3.5-9.6-3.7.3-7.2.7-11.1 1 .1-2.3.6-4 .1-5.4-.4-1.3-2-3.4-2.7-3.2-4.1.8-9.1-.4-11.9 4.2 7 1.7 7.2 2.4 2.5 7.7-1 1.1-1.5 2.8-2.2 4.1 4.8 3.1 9.4 2.2 12.5-2.1 2.9-3.9 5.5-3.8 7.9.5.4.8.8 1.7 1.4 2.8zm183-357.2c0-5.3-3.2-9.2-7.7-9.3-4.4-.1-8.1 4.3-8 9.6.1 4.6 3.8 8.9 7.7 8.9 4.3.1 8-4.2 8-9.2zM624.1 570c0-10.9 9.3-10.7 14.7-15.6-3.9-1.3-8.1-.5-11.1-2.1-4.7-2.4-7.2.1-9 3-1.8 2.9-3.2 6.8-2.8 9.9.2 1.9 4.7 3 8.2 4.8zM375.8 690c-5.5 0-10.8-.1-16 .1-1.1 0-2.8.9-3.2 1.9-.3.8.5 2.9 1.3 3.3 4.5 2 9.1 3.6 13.6 5.4 1.5-3.7 2.9-7.2 4.3-10.7zm274.8-40.2c-3.1-8.1-5.5-14.6-7.6-20.3-.9 1.3-1.7 2.8-2.7 4-3.2 3.7-3.3 11.7 1 15.5 1.6 1.4 5.3.6 9.3.8zM296 617.5v-14.2l-1.8-.3c-1.7 2.8-3.3 5.7-4.5 7.7-2.5-.5-4.4-.8-6.2-1.2l-.6 2.1c5.4 2.8 10.7 5.7 16.1 8.5 5.1 2.6 6.2 1.9 7.5-4.3-3.3.5-6.3 1-10.5 1.7zm250.6 102.2c3.5-1.4 7.1-2.5 10.4-4.2 1.3-.7 2.8-3.6 2.4-4.3-.9-1.4-3-2.7-4.8-2.9-5.3-.7-9.6 5.1-8 11.4zm-228.1-89.5c-1.5 1.2-3.3 2-3.2 2.7.2 1.3 1 3.1 2.1 3.8 3.6 2 7.4 3.7 11.1 5.4 1.1.5 2.5.2 3.8.3-.2-1.4 0-3.4-.8-4-4.1-2.9-8.5-5.4-13-8.2zm-12.2-28.1c1 .5 1.9 1 2.9 1.4 1.9-2.7 3.8-5.5 5.7-8.2-2-.7-4-1.4-6-2.2-.9 3-1.7 6-2.6 9zm-45-204.9c3.7-.1 4.8 7 9.3 3.2.9-.8.8-4.5-.1-5.5-3.6-3.7-5.8 1.9-9.2 2.3zm344 227.4c3.6-4.5 2.7-8.7-2-12.9-5 5.1 1 8.2 2 12.9zm3.2-53.2c3.3 4.7 2.6 3.5 12.5.2-9-3.9-9-3.9-12.5-.2zm-.6 5.5c-1.5 2.1-3.2 4.5-5.1 7.1 3.4.9 6.8 1.7 10.6 2.7-2.1-3.7-3.7-6.7-5.5-9.8zm23.7 27.4c.8-.5 1.6-1.1 2.4-1.6l-4.2-7.8c-1.3.8-2.7 1.7-4 2.5 2 2.3 3.9 4.6 5.8 6.9zm11.7 49.1c1 4.8 1.2 4.8 8.5 1.3-1.2-4-1.6-4.1-8.5-1.3zm-300-52.9c-.6.4-1.2.8-1.8 1.3 7.6 4 1.8 9 2.2 14.2 2.5-4.6 5.3-8.5 3.2-13.4-.4-1-2.4-1.4-3.6-2.1zm339.4-177.2v-2.5c-2-.3-4.1-.5-6.1-.8-.2 1.5-.3 3-.5 4.6 2.2-.5 4.4-.9 6.6-1.3zM298.2 559.4c-.3.5-.6.9-.9 1.4 1.9 1.6 3.8 3.3 5.8 4.7.6.4 1.7-.1 2.5-.1-.1-.9 0-2.2-.5-2.5-2.2-1.4-4.6-2.4-6.9-3.5zM271 403c0 .9-.1 1.8-.1 2.7 2 .2 4.1.5 6.1.7-.1-1.3-.2-3.8-.5-3.8-1.8-.1-3.7.2-5.5.4zm330.3 206.1c-5.9.9-6.8 3-3.6 7.4 1.2-2.3 2.2-4.4 3.6-7.4zM274.4 372.6c-.6.6-1.3 1.2-1.9 1.8 1.8 2 3.6 4.1 5.4 6.1.6-.5 1.2-1.1 1.7-1.6-1.7-2-3.4-4.1-5.2-6.3zm25.3 13.4c-1 2.9-1.8 5.6-2.8 8.6 5.6-2.2 5.9-3.3 2.8-8.6zm135.5-166.9c2.1-5 1.6-7.3-4-7.9 1.4 2.8 2.4 4.7 4 7.9zm71-9.2c-.1.7-.3 1.4-.4 2.1 1.5.8 3 1.5 4.5 2.3.1-1.3.7-3.3 0-3.8-.9-.7-2.6-.4-4.1-.6zm2.1 11.8 2.1.6 1.5-4.5c-1-.2-2.1-.4-3.1-.6-.2 1.6-.4 3.1-.5 4.5z"/><path class="st0" d="M378.5 311c-6.8 10.1-6.8 10.1-12.8 7.1-1.2 1.5-2.4 3-4.2 5-1.6-2-2.9-3.7-4.2-5.4-8 2.8-8 2.8-9.4-2.7-3 .5-6 .9-9.3 1.4-.8-6.3 3.5-9.5 6-12.9-1-2-2.9-4.5-2.5-5 1.7-2.1 4.1-3.5 6.3-5.1 1.7-1.2 3.3-2.6 5.2-3.3 2.2-.9 4.6-1 6.9-1.6 1.6-.4 3.2-.9 6.2-1.7 2.5 1.3 6.3 3.2 10.1 5.3 3.3 1.8 5.1 4.5 4.6 8.6-.3 2.6 6.7 8.5 9.7 8.5 4.6 0 8.3-3.4 8.3-7.7 0-6.3-.2-12.7.1-19 .1-2.7-2.2-7.1 3.8-7.3 6-.1 3.9 4.3 4 7 .2 7.6.1 15.3.7 23 2.6-3.8 8.7-5.6 5.4-12.4-.9-1.8 1.1-5.4 2.5-7.7 2.3-3.6 5.2-6.8 7-9.1 2.6-.5 4.1-.6 5.5-1.1 2.4-1 4.5-4.7 7.5-.5.2.4 2.1-.4 3.1-.6 1.9-.4 3.9-1.1 5.8-.9 4 .4 4.8 2.5 3.2 6.3 3.4 2 6.9 4.1 10.3 6.1-.1.5-.2 1.1-.3 1.6-3 1.2-5.9 2.4-9 3.7v5.5c-1.8 0-3.5-.3-5 .1-1.2.3-3.1 1.5-3.1 2.3.4 7.1-3.3 4.8-8.2 2.2.6 2.7.4 4.7 1.3 5.4 1.3 1 3.7 1.8 5 1.2 9.1-4 12.6-2.6 16 6.3 1.5 4.1 3.4 8.1 5.5 12 4.2 7.8 3.6 10.9-3.4 15.7 2.6 1.3 5.5 2.3 7.7 4.1 3 2.4 1.8 4.8-1.5 6.5 3.3 1.8 3.3 1.8 7.9-2.3-.1-.3 0-.8-.2-.9-5.1-3.3-5.1-6 .3-9.1 1.3-.7 2.8-1.1 4.2-1.5 3-.7 6.5.1 7.6-4.6.5-2 3.8-3.3 4.8-5.4 3-5.8 5.6-11.8 8.1-17.7 2.4-5.6 8.1-7.5 14.2-4.7 1.2.5 2.7 1.7 3.5 1.3 1.8-.9 4.5-2.5 4.5-3.8-.2-3.4-2.9-1-4.5-1.3-1.3-.2-2.3-1.8-3.4-2.9-1.1-1-2.3-3-3.4-3-4.9.2-5.9-2-4.3-6.5-1.8-.5-3.3-1-4.8-1.5-1.5-.6-2.9-1.3-5.9-2.6 4.5-2.8 7.7-4.9 11.3-7.1-.3-.7-.8-1.9-1.8-4.4 2.7-.6 5.3-1.7 7.8-1.7 2.8 0 5.6 3.1 8.6-.1.4-.4 2.8 1.2 4.4 1.7 1.6.5 3.3.9 6.3 1.7 1.9 2.6 4.9 6.2 7.4 10.1 1.1 1.7 2.2 4.3 1.6 5.9-2 5.5.9 8.7 5.4 12.5.1-2.6.3-4.6.3-6.6v-19c0-2.8.7-4.9 4.1-5 3.7-.1 3.9 2.2 3.9 4.9 0 7 .4 14-.1 21-.4 5.5 2.6 7 6.8 7.8 4.2.8 11.1-3.8 11.1-7.8 0-5.6 2.9-8.5 7.6-10.5 2.8-1.1 5.4-2.6 6.9-3.3 3.1.5 5.1 1 7.1 1.1 2.9.1 6.2-1.1 7.1 3.4.1.6 1.9.9 2.9 1.4 1.7.7 3.6 1.1 5 2.1 4.1 2.9 4 4.8-.3 7.7 1.9 2.5 4 4.8 5.5 7.5.8 1.4.6 3.4.8 5.1-1.6.2-3.2.5-4.7.4-1.3 0-2.6-.4-4-.7-.6 1.7-1.1 3.2-1.8 5.2-2.7-.9-5.1-1.7-7.9-2.7-1.1 1.7-2.2 3.4-3.6 5.8-1.8-2-3.3-3.6-4.8-5.2-5.7 2.9-5.7 2.9-12-6.1-1.4 1.1-2.7 2.2-5.3 4.3 3.3 2.3 6 4.1 8.6 5.9 3 2.1 6.2 3.8 8.7 6.4 2.2 2.3 3.7 3.6 7.2 2.5 6.6-2 10.8 1.5 11.6 8.5.2 2 1.4 4.3 2.8 5.8 3.7 3.9 4.3 7.4 2 12.2-.8 1.7-1.3 3.9-1.1 5.8.4 4.7-.5 8.5-5.1 10.9-1.2.6-1.9 2.3-2.6 3.7-1.4 2.8-2.6 5.8-3.7 8.3.6-.2 2.3-.6 3.9-1-.1.4-.3.8-.4 1.2 1.5 1 3 2.2 4.6 2.8 2.7 1 5.8.8 6.7 4.8.3 1.5 3.3 2.4 5.1 3.6 5.2 3.7 5 7.3-.1 10 1.4 4.3 2.7 8.5 4.1 12.8-.5.3-1 .7-1.4 1-3.1-1-6.2-2-9.2-2.9-3.7 4.2-3.7 4.2-11.3-1.3-1.2 1.8-2.5 3.7-4.3 6.6-1.7-3.2-2.8-5.1-3.8-7.1-6.7.2-6.7.2-10.5-9.9-6 1.2-5.9 1.5-4 6.5 1.9 5.2 5.1 8.2 10.6 9.3 2.8.5 5.4 1.9 7.9 3.7-7.2 3-14.7.9-22.4 2.2.9 1.2 1.6 2.3 3.3 4.8-7.3.7-13.5 1.3-20.1 2 .5 3.1-.5 5.3-4.3 4.6-9.1-1.7-18.3-3.5-27.4-5.3-1-.2-1.9-1.1-4-2.3 2.5-1.7 4.3-3.3 6.4-4.3 4.1-1.9 8.2-3.8 12.5-5.1 4.3-1.3 5.9-3.7 5.4-8-.2-1.8 0-3.7 0-5.5 0-18.9 0-18.9-11.7-33.6-.9-1.1-3.2-2.2-4.4-1.8-1.1.4-2.3 2.6-2.4 4-.2 3.7 1.6 7.1 2.5 10.5 2 7.3 1.3 15.3 1.6 23 0 .4-.3 1.1-.7 1.3-6.2 2.4-7.2 8.4-9.8 13.4-2.4 4.6-8.1 4.7-13.2 1.5-2-1.2-4.3-2.2-6.6-2.6-5.1-.9-8.2-3.8-8.4-8.9-.1-2.7-.5-4.6-3.1-6.1-3.7-2.2-4.3-6-3.6-10.1.4-2.7.8-5.4.6-8.2-.2-4.6.5-8.3 4.6-11.4 1.8-1.3 2.3-4.4 3.8-7.6-7.1 2.9-5.4-4-8.2-5.7-2.8 1.3-5.6 2.6-8.7 4-.6-1.5-1.1-2.4-1.2-3.3-.1-3.1-1.3-3.9-4.5-3.4s-6.5.1-10.2.1c-1.1 8.1-5.2 1.4-8.6.7-.7 1.2-1.4 2.4-2.4 4 6.9.3 11.4 2.7 11.9 9.8.1 1 1.6 2 2.6 2.8 3.6 3 4.3 6.8 3.9 11.2-.2 2.3-.3 4.8.4 6.9 1.5 4.4.5 8-3 10.7-2.2 1.6-3.4 3-3.4 5.9-.1 6.1-3.7 9.1-9.9 9.5-1.6.1-3.5.7-4.8 1.7-6.7 5.3-14.4 2.8-15.8-5.5-.5-3.2-1.7-4.8-4.5-6.2-4.9-2.4-5.8-7-3.6-12.4.7-1.7.8-4.1.3-5.9-1.2-4-1-7.7 2.1-10.7 3.5-3.4.4-7.5 1.5-11.1-1.7-.2-4.3-1.1-4.9-.4-6.5 8.6-16.6 15.4-14.3 28.6.7 4.2.3 8.7.1 13-.1 3.1 1.1 4.9 4 6 4.5 1.7 9 3.5 13.4 5.6 2.3 1.1 4.3 2.6 6.2 4.8-11.1 4.9-22.4 7.3-34.7 7.4.3-2.3.5-3.8.8-6.3h-21c1.5-2.4 2.2-3.5 3.4-5.4h-22.2c-.2-.5-.4-.9-.5-1.4.8-.8 1.5-1.8 2.5-2.2 1.7-.8 3.4-1.5 5.2-1.7 7.8-.8 10.7-6.2 12.6-13.4-1.6-.8-3.4-1.6-5-2.4-4.3 2.9-1.5 13.3-11.2 9.5-1 2.2-1.9 4.1-3.1 6.6-2.3-1.9-4.1-3.4-6-4.9-2.2 1.8-4.2 3.4-6.5 5.2-1.4-1.9-2.4-3.3-3.6-5-3 1.1-6 2.1-9.3 3.3-2.7-5.7.8-9.5 3.2-13.5-6.3-3.2-6.3-6.6-.2-10.6 2.2-1.5 4.7-2.1 5.6-5.6.5-1.7 5.4-2.2 8.7-3.3v-3.1c2.2.4 4 .7 5.4.9-1.2-2.9-2.2-5.8-3.6-8.6-.8-1.5-2-2.9-3.4-3.9-3.8-2.7-5.4-6-4.1-10.7.4-1.6-.2-3.8-1-5.5-2.4-5-1.7-8.6 2.1-12.7 1.3-1.4 2.3-3.6 2.6-5.5 1-7.3 5.3-10.5 12.2-8.1 2.8 1 4-.1 6-1.7 3.7-3.2 7.9-5.7 11.7-8.7 1.6-1.2 3.8-2.8 4.1-4.4.4-1.3-1.6-3.1-3-5.4zm208.4 75.2c-1.5-1.9-2.6-3.9-4.2-5.2-1.7-1.3-4.1-1.8-6.1-2.8-1-.5-2.1-1.3-2.5-2.3-2.4-5.5-4.6-11.1-6.7-16.7-.6-1.5-.4-3.3-1.1-4.7-3.3-6.5-2.3-10.9 4.1-14 3.7-1.8 3.5-4.1 2.7-6.4-6.3 3.6-12.5 6.9-18.5 10.6-1.5.9-2.7 3.3-2.8 5.1-.3 7.3.1 14.7-.2 22-.3 5.3 1.2 9.7 4.7 13.6 3.3 3.7 6.3 7.7 9.5 11.5 2.6 3.2 12.4 1.9 13-2 .9-5.3 4.2-7.5 8.1-8.7zm-208.4-51.1c-.4 2.5 0 4.8 3.3 6.7 5.6 3.1 6.8 7.7 4.2 13.5-.6 1.5-.7 3.2-1.3 4.7-2.2 5.9-4.6 11.7-6.9 17.5-.3.7-1.2 1.2-1.9 1.6-4.1 2.4-8.2 4.7-13.6 7.7 6 1.5 8.4 3.9 10.1 8.4 1 2.6 5.9 3.9 9.3 5.2 1 .4 3.2-1.1 4.2-2.3 4-4.7 7.8-9.6 11.4-14.5 1.1-1.5 2.1-3.6 2.1-5.4.2-9.3.2-18.7 0-28 0-1.5-1.1-3.6-2.4-4.4-5.9-3.6-12.1-7-18.5-10.7zm104.8 5.1c-5.1-.4-10.1-.7-13.4 4.7 2.5 1.4 4.8 2.7 7.5 4.3-2.9 1.9-5.5 3.4-7.7 5.2-.8.6-1.3 2.4-1 3.3.5 1.1 1.8 2.2 3.1 2.6 1.1.4 2.5-.2 4-.4.7 2.2 1.3 4.2 2 6.7 2.9-1.6 5.4-3 8.1-4.5 1.3 2.5 2.4 4.8 3.9 7.6 1.6-2.4 2.7-4 4-6 2.1 1.7 4 3.1 6.6 5.1 2.6-4.1 5.1-7.9 8-12.6 3.3 2.8 6.3 5.6 9.5 8 1 .8 2.7.6 4.1.8-.2-1.7.3-4-.6-5-2.2-2.4-5.3-4.1-7.6-6.4-2.3-2.2-4.4-3.1-7.8-2.3-4 .9-8.1-.8-9.2-5-1-4-2.8-6.3-6.2-8.6-5-3.1-4.7-3.6-7.3 2.5zm133.1 77 1.5-1.5c-2.6-3.8-5.1-7.6-7.9-11.7 2.7-.4 5.1-.7 7.4-1 .3-.5.5-1.1.8-1.6-3.2-2.1-6.4-4.2-10.3-6.7 0-.5-.2-2-.4-4.3-3.2.2-6 .5-9.2.7-.2-1.1-.5-2.4-.8-3.9-3.7.5-7.3.7-10.6 1.7-2 .6-4.9 2.7-4.9 4.1-.2 5.9-4.4 6.5-8.5 7.7-1.2.3-2.1 1.9-3.1 2.8 1.4.3 3 1.2 4.3.9 2.9-.7 5.7-1.9 8.9-3.1-1.2 9.8.1 11.2 8.8 11 .6 1.4 1.2 2.9 1.8 4.3.5.3 1 .6 1.5 1 1-2.1 1.9-4.3 3-6.7 2.7 3.3 4.2 5.2 5.9 7.3 1.7-1.9 3-3.3 4.1-4.7 2.7 1.5 5.2 2.6 7.7 3.7zm-257.6-3.8c3.1-.4 6.6 3.4 8.1-1.5.8-2.7.9-5.6 1.3-8.8 2.3.8 4.7 1.9 7.2 2.3 1.7.3 3.5-.4 5.2-.6-1.2-1.1-2.3-2.5-3.8-3.1-3.7-1.5-6.9-2.5-7.8-7.7-1-5.2-6.8-4.6-10.9-5-2-.2-4.2 1.4-6.3 2.2-1.5 1-3.3.6-5.1.8-1.2.1-3.3 1.1-3.3 1.5.5 4.1-2.5 4.1-5.1 5.1-2.1.8-3.6 2.8-6.5 5.2 4 .9 6.4 1.5 8.8 2-2.5 3.8-4.9 7.5-7.3 11.2.5.4 1 .9 1.4 1.3 2.5-1.3 5-2.6 7.8-4.1l3.9 5.2c1.8-2.1 3.2-3.8 5-5.9 1.9 1.7 3.6 3.3 5.5 5 .8-1.8 1.3-3.4 1.9-5.1zM606.2 298c-.5-.9-.7-1.4-1-1.8-3-3.7-10-.8-11.8-6.9-.1-.2-2.2 0-3.3.4-1.5.6-2.8 1.5-4.2 2.3-1-1-1.8-2.3-2.8-2.6-4.1-.9-11.7 5.3-11.1 9.3.5 3.5-.8 5.2-3.5 6.8-1.6.9-3.2 1.9-4.4 3.2-.9 1-1.2 2.6-1.7 3.9 1.4 0 3.1.4 4.2-.2 2.8-1.6 5.3-3.7 7.8-5.7 2.1 3.6 3.8 6.6 5.7 9.9 2.3-1.6 3.9-2.7 5.7-3.9 1.2 1.6 2.3 3 3.6 4.7 1.3-2.1 2.5-3.9 3.6-5.8 2.3 1.5 4.3 2.9 6.6 4.4.5-2.4.9-4 1.2-5.7 3 .7 5.7 1.3 8.5 1.9.3-.5.7-1.1 1-1.6-3.2-3.2-6.5-6.4-9.8-9.7 1.9-.9 3.6-1.8 5.7-2.9zm-230.4 8.7c3.3 2.7 5.9 5.1 8.9 7.2.9.7 2.5.4 3.8.6-.3-1.4-.3-3.1-1.1-4.1-1-1.2-2.7-1.9-4-2.8-2.7-1.8-5.1-3.3-4.3-7.8.8-4.6-4-5.8-7.2-7.8-2.8-1.8-5.1-1.5-6.1.3-3.8-.3-9-1.2-9.2-.6-1.3 4.3-4.6 3.6-7.6 4.2-1.5.3-2.8 1.6-4.7 2.8 2.5 1.6 4.2 2.7 5.5 3.6-3.2 3.6-6.1 6.7-8.9 9.8l1.2 1.5c2.6-.8 5.1-1.5 8-2.4.5 2.1 1 3.9 1.7 6.6 2.3-2 4.1-3.5 6.1-5.3 1.2 2.1 2.4 4.2 3.7 6.5 1.4-1.9 2.5-3.5 3.6-5 6.3 4.6 8.1 3.4 10.6-7.3zm137.6-6.3c3.3-3.5 5.6-3.7 7.4.4.3.8 3.1 1.1 4.4.6 1.7-.6 3-2.3 4.5-3.5 8.2 9.2 8.2 9.2 10.8 8.4-1.1-1.7-2-3.5-3.3-4.9-2.3-2.7-3.9-4.9-2.1-9.1 1.9-4.6-2.4-7.9-5.4-10.9-1-1-3-1-3.8-1.2-2.7-1.8-6.3-4.9-6.8-4.5-3.3 3-5.8.3-8.6-.5-1.3-.3-2.7-.1-4.8-.1 1.5 2.3 2.5 4 3.5 5.6-4 1-7.6 2-11.1 2.9.1.6.2 1.3.3 1.9 2.4.7 4.9 1.5 7.4 2.2-.2 2-.3 3.7-.5 5.8h7.2c.3 2.1.5 3.8.9 6.9zm-78.3-22.5c-2.3-4.2-4.6-1.8-6.9.8-.8.9-1.7 2.4-2.7 2.5-6.8 1.1-10.5 7.5-8.1 14.2.4 1-.1 2.5-.7 3.5-1 1.7-2.6 3.1-3.5 4.9-.6 1.2-.5 2.8-.7 4.3 1.3-.6 3-1 3.8-2 1.9-2.4 3.5-5.1 5.2-7.7 7 5.6 7 5.6 12 .1 1.5.4 3 .8 5 1.4-1.5-7.1 4.2-5.5 7.9-6.9-3.1-7.9 5.7-3.7 7.6-8.4-3.9-1.1-7.7-2.1-11.8-3.3 1.3-1.7 2.5-3.3 3.7-4.9l-.6-1.5c-3.3.8-6.5 1.8-10.2 3zm90.3 81.9c.8-1.5 1.5-2.1 1.6-2.8 1.1-9.3 6.1-15.9 14.1-20.6 1-.6 2.2-1.9 2.3-3 .3-4.3.3-8.6.1-12.9-.1-.8-1.9-2.2-2.9-2.2-3.9.1-6.9 3.9-7.8 7.7-.8 3.3-2.8 6.3-4.3 9.5-.5 1-1.5 1.9-1.6 2.9-.7 6-3.7 9.4-9.9 9.8-.8.1-2.1.7-2.2 1.3-.2.7.4 1.9 1 2.5 2.8 2.6 5.9 5 9.6 7.8zm-153.6-31.1 1.2 1.8c1.9-.5 3.8-1.3 5.7-1.3 1.8 0 4.8.4 5.3 1.5 2.7 5.5 7.6 7.7 12.7 9.8 3.7 1.6 7.4 3 10.8 5.1 9.8 6 11.9 16.3 5.5 25.7-1.3 1.9-2.9 3.7-4 5.7-.8 1.5-1.1 3.2-1.6 4.9l1.5.6c2.4-3.2 4.7-6.3 7.1-9.5 3.8-5.1 6.6-5.7 12.5-3.3 1.1.5 2.6.3 3.8.4.1-.7.3-1.3.4-2-3-1.1-6.1-2-9-3.3-1.4-.6-3.4-1.9-3.5-3-.3-13-8.6-19-19.4-23.3-3.7-1.5-7.5-3.1-10.6-5.4-5-3.6-4.6-10.4.5-13.9 2-1.4 4.4-2.4 6.5-3.8.9-.6 1.3-1.7 2-2.5-.3-.4-.7-.8-1-1.3-2.1 1-4.6 1.7-6.4 3.1-5.7 4.4-9.5 11.3-17.4 12.6-.8.3-1.7 1-2.6 1.4zm207.1.8c.2-.6.3-1.2.5-1.9-2.3-.9-4.7-1.7-6.9-2.9-2-1.1-3.8-2.5-5.5-4-3.7-3.1-7.3-6.3-11.2-9.2-.8-.6-2.5-.1-3.8-.1-.1.5-.2.9-.4 1.4 2.4 1.3 4.9 2.4 7.2 3.8 7.8 4.6 7.9 12.4 0 16.8-3.2 1.8-6.6 3.1-10 4.5-7.5 3.1-13.9 7.4-16.4 15.6-1 3.4-1.2 7-1.6 9.3-4.1 2.5-7.5 4.5-10.8 6.5 1.1.6 1.9.6 2.6.2 7.5-3.2 9.3-2.8 14.2 3.9 2.1 2.8 4.3 5.7 7.2 9.6.5-7-3.7-10.2-6.2-14-4.2-6.7-4.3-15 1.6-20.5 3.6-3.4 8.4-5.8 12.9-8.1 5.7-2.9 12.2-4.5 15.5-10.9.4-.9 2.8-1.1 4.2-1 2.4 0 4.7.6 6.9 1zm-155.7 23.9c0 .7-.1 1.3-.1 2 1.4 0 2.9.4 4.1-.1 6.5-2.3 6.4-2.3 9.5 3.7.7 1.4 2.7 2.7 4.3 3.1 2.2.6 4.6.3 6.8.4v1.3c1-1.2 2.1-2.4 3.3-3.8 1.9 1.3 3.7 2.5 5.6 3.9.9-1.7 1.6-3.2 2.4-4.7 2.5.7 4.8 1.4 7.1 2.1.3-.4.7-.9 1-1.3-2.9-3-5.9-6-9-9.2 1.9-.9 3.6-1.7 5.3-2.6.1-.4.2-.9.2-1.3-2.7-1-5.3-1.9-7.9-2.9-4.2 8.4-9 9.9-16.7 6.3-2.1-1-4.8-1.5-7-.9-3 .7-5.9 2.6-8.9 4zm5.1-5.9c-3-5.1-6.1-10-8.9-15.1-.8-1.4-1.2-3.2-1-4.8.4-5.1-2.8-7-6.9-8.3-2.5-.8-3.9-.1-4 2.7-.1 3.2.1 6.3-.1 9.5s1.1 5 3.8 6.8c3.5 2.4 6.7 5.4 9.3 8.8 2.4 3.1 4.4 3.6 7.8.4zm30 30.2c0-4-3.2-7-7.4-6.9-4.2.1-7 2.6-7.1 6.6-.1 3.9 3.8 8.1 7.3 7.9 3.4-.1 7.2-4.1 7.2-7.6zm-28.3-70c-3.9 0-7.2 3.3-7.1 6.9.1 3.9 3.8 7.7 7.3 7.6 3.9-.1 7.2-3.7 7-7.6-.1-3.6-3.6-6.9-7.2-6.9zm77.5 68.8c.3-3.3-1.2-5.9-4.7-6.1-5.7-.3-9.7 2.7-9.7 6.6 0 3.5 3.9 7.4 7.4 7.5 4.1.1 7-3.2 7-8zm7.1 9c5.2.2 8.2-2.4 8.4-6.6.2-4.2-2.7-7.2-7-7.3-4.9-.1-6.2 1.7-6.5 8.7-.1 4.3 2.7 4.8 5.1 5.2zm-78 1.9c1.9-1.9 5.1-3.6 5.3-5.7.8-6.4-1.7-9.7-6.1-9.8-3.8 0-7.1 3.5-7.1 7.5 0 3.8 3.1 7 7.9 8zm84.2-80.4c-3.6 0-7 3.3-7.1 7.1-.1 3.9 3.3 7.3 7.3 7.3 3.5 0 6.7-3.5 6.8-7.3.1-3.5-3.3-7-7-7.1zm-9.8 7.2c0-5.3-1.5-7.2-5.6-7.3-4.3-.1-7.5 3.2-7.4 7.7.1 3.4 3.6 6.8 6.9 6.7 3.9-.1 6.2-2.7 6.1-7.1zm-71.4-.5c-.1 5.2 2.2 8 6.3 7.9 3.8 0 6.6-3.1 6.6-7.1 0-4.4-2.9-7.5-7-7.2-4 .3-6.4 2.4-5.9 6.4zm-70 18.4c-3.2-.1-6.7 3.2-6.8 6.5-.2 3.3 3.6 7.5 6.6 7.5 2.9 0 6.6-3.7 6.8-6.8.1-3.9-2.7-7-6.6-7.2zm194.1 87.4c.3-.5.7-1 1-1.5-3.9-5.7-7.8-11.4-11.8-17.2-.4.2-.9.3-1.3.5 0 5.1-.2 10.1.1 15.2.1 1 1.6 2.7 2.7 2.8 3.1.5 6.2.2 9.3.2zm24.8-81.9c-.1-4-2.6-6.8-6.4-6.7-3.9 0-6.8 3.1-6.6 7.1.1 3.5 3.4 6.7 6.8 6.6 3.5-.1 6.3-3.2 6.2-7zM493 408.4c4.1.1 7.3-3.1 7.3-7.1-.1-5.2-3.4-4.1-6.6-3.5-1 .2-2.2-.4-3.3-.6-3.4-.8-4.6 1-4.6 4-.1 3.8 3.2 7.1 7.2 7.2zm-33.5.8c.7-.3 2.9-.6 3.5-1.7 1.3-2.2 2.6-4.9 2.4-7.3-.4-3.6-3.5-2.3-5.9-1.9-1.1.2-2.3.1-3.4-.2-3.7-.9-4.8 1-4.7 4.2.2 3.8 3.3 6.8 8.1 6.9zm31.3-27.6c-4.4 3.2-5.6 7.8-2.8 11.2 2.7 3.3 7.9 3.6 11 .3 1.7-1.8 3.8-4.2.1-6.4-2.7-1.6-5.3-3.2-8.3-5.1zm-29.8.8c-2.9 1.8-5 3.9-7.6 4.7-4 1.2-3.4 3.8-1.5 5.5 2 1.8 5.2 3.5 7.6 3.1 2.1-.3 4.7-3.1 5.5-5.4 1.2-3.4-.7-6.4-4-7.9zm-81.4-40.8c-3.4 3.9-6.5 6.3-7.8 9.4-1.1 2.6 3.2 6.3 6.3 6.3 3.3 0 7.8-4 7-7.1-.8-2.7-3.1-5-5.5-8.6zm194.3 14c3.4 0 7.5-3.7 6.2-6.1-1.7-3-5.1-4.9-7.7-7.3-1.9 2.2-4.7 4.2-5.4 6.8-1 3.2 3.1 6.6 6.9 6.6zm-121.7 66.7c3.5 0 7-3.5 7-7.1 0-4.7-4.4-5.1-6.7-4.7-2.9.5-6.3 2.9-7.8 5.4-1.2 2.2 4.1 6.4 7.5 6.4zm-52.7-18.9c-.5-.3-1-.5-1.6-.8-3.7 5.6-7.3 11.2-11.8 18.1 3.8 0 5.9-.2 8 0 4.1.4 5.6-1.4 5.4-5.5-.2-3.9 0-7.8 0-11.8zm93.3 10.9c-.3 4 2.4 7 6.6 7.2 3.9.2 6.3-1.7 7.1-5.5.4-1.9-4.8-6.8-7.2-6.3-2.5.6-6.4.1-6.5 4.6zm-132.5-75.8c1.1-3.8-.4-5.4-3.8-5.5-3.5-.1-6.2 2.8-6.3 6.8-.1 3.6 2.9 7.2 6.2 7 6.5-.3 4.7-4.8 3.9-8.3zm75.8 50.4c-3.8.7-7-4.5-10.3.1-2.1 3-1.4 5.9.9 8.6 2 2.3 4.3 3.5 7.4 2.1 6.2-2.7.4-6.9 2-10.8zm81.9 10.5c4.9.1 9.4-3.7 8.8-7.2-.3-2.2-2.3-5.4-4-5.7-4.1-.8-8.8 4.5-8.2 9.1.3 1.6 2.7 3 3.4 3.8zm83.5-61.2c-.5-2.9-1.6-6-5.7-6.4-4.5-.4-5.3 2.2-4.7 6 .2 1.1-.7 2.4-.5 3.4.3 1.2.9 2.8 1.9 3.4 4 2.2 8.9-1 9-6.4zm-83.1 79c-1.5-1.2-3.7-3.9-6.4-4.7-3.5-1-2.7 2.6-3.1 4.7-.2 1.1-.8 2.2-1.5 3.1-2.8 3-.6 4.4 1.8 5.5 4.3 1.9 9.2-1.7 9.2-8.6zM439 399.5c-.6 1.4-2 3.3-1.9 5.2.1 3.9 2.9 6.7 6.7 6.4 2.1-.2 5.3-2.6 5.7-4.6.9-4.2-3.6-7.2-10.5-7zm79.5 13.6c5.8 0 9.6-2.8 9.1-6.5-.3-1.9-2.3-4.8-3.9-5.1-4.4-.8-8.9 3.9-8.4 8.6.1 1.3 2.6 2.4 3.2 3zm-78.4-.4c-1.4.9-2.8 1.4-3.7 2.4-1.3 1.4-3.6 3.7-3.2 4.7 1 2.6 2.8 5.3 5.1 6.6 1.3.8 4.2-.7 6.2-1.6.5-.2 1.1-1.9.8-2.5-1.5-3-3.3-6.1-5.2-9.6zm159.2-55.1c5.6 0 8.8-2.7 8.7-6.3-.1-3.3-1.7-5.9-5.2-6.2-3.3-.3-7.1 4.3-6.5 8 .3 2 2.3 3.6 3 4.5zm-165.2 44.8c-3.4 1.6-8.4-4-9.6 2.6-.4 2.3 1.1 6 3 7.5 2.7 2.1 6.5 2.2 9.3-1-.6-1.5-1.2-2.7-1.5-3.9-.5-1.5-.7-3-1.2-5.2zm80.4-.3c-.6-.6-1.8-3-3.2-3.2-5.7-.5-10 2.9-9 7.2.4 1.8 3.4 3.9 5.5 4.2 3.6.7 6.7-2.9 6.7-8.2zm-136.1 17.3c4.5-1.1 20.9-25.8 20.3-29.8-7.4 9.4-15.4 18-20.3 29.8zM552.8 388c-.6.3-1.3.6-1.9.9 6.2 9.5 12.4 19 18.7 28.4.3.5 1.6.4 3.3.8-4.5-12.3-13.1-20.7-20.1-30.1zm-186.3-7.5c-1.5-2.2-2.7-4.1-4.1-5.9-.9-1.1-2.2-2.9-3.2-2.8-1.5.2-3.5 1.3-4.3 2.7-2 3.3-1.1 6.4 2 8.7 3.3 2.4 6.4 1.5 9.6-2.7zm-11.3-27.1c-.2-3.3-4.2-8.1-6.3-7-2.2 1.2-4.3 4-4.8 6.4-.7 3.5 3 6.2 6.9 5.8 3.1-.2 4.8-1.8 4.2-5.2zm10.6 4.9c.7-.6 3.3-1.7 3.8-3.5 1-3.9-2.6-8.5-5.9-7.9-2.6.5-6.3 1.2-6.1 5.3.3 3.8 2.4 6.1 8.2 6.1zm219.6 21c3.2 4.4 6.4 5.1 9.7 2.3 3-2.5 3.2-6.9.6-9.7-2.3-2.4-4.5-2.7-6.3.6-1.3 2.3-2.7 4.5-4 6.8zm-3-28.5c-.8 5.4 2.1 6.2 4.6 6.4 3.7.3 6.3-1.9 6.9-5.7.7-4.1-2.9-5.4-5.5-5.7-4.1-.4-6 2.6-6 5zm-77.9 46.6c5.4 0 9.6-3.3 8.5-6.5-.8-2.4-3.5-4.5-5.9-5.7-1.9-.9-5.6 5.1-5.3 9.4.1 1.3 2.3 2.4 2.7 2.8zm-58.3.8c.7-.6 3.2-1.5 3.6-3 .8-3.3-3.5-10.3-5.2-9.5-2.3 1.2-5 3.3-5.8 5.6-1.1 3.3 2.7 6.8 7.4 6.9zm-7.1-56.2c2.2-.7 3.5-.7 3.9-1.3 1.5-2.3 4-4.9 3.8-7.1-.5-4-3.6-1.6-5.7-.9-.6.2-1.3.2-2 .2-2.8 0-6.2.6-5.5 3.9.6 2.2 3.9 3.7 5.5 5.2zm73-1c1.3-1.2 4.3-2.6 4.8-4.7.7-3.1-2.2-4.3-5.2-4.4-1.1 0-2.3-.3-3.3-.7-4-1.9-4.9.6-4.6 3.6.5 3.9 3.2 5.5 8.3 6.2zm6.2-8.8c2.6 2.4 5.7 3.4 8.4 1.1 1.8-1.5 3-4.2 3.5-6.5.3-1.3-1.3-4.2-2.2-4.3-1.6-.2-3.9.9-5 2.1-2 2.1-3.2 4.9-4.7 7.6zm76.6 25.1c-2.9.9-5.6 1.5-7.9 2.6-1.4.7-2.7 2.3-3.2 3.8-.2.9 1.1 2.6 2.2 3.4 2.9 2.4 5.7.9 8.1-1.1 2.7-2.4 2.9-5.3.8-8.7zm-161.7-23.5c-2.1-3.6-3.2-6.2-5-8.3-1.2-1.3-3.3-2.4-5-2.3-.8 0-2.6 3-2.2 4.2.8 2.6 2.2 5.6 4.3 6.9 1.7 1 4.8-.2 7.9-.5zm-61 33c-3 2.5-5.2 4.4-7.4 6.2 1.9 1.8 3.6 4.4 5.9 5.2 2.8 1 7.1-2.8 6.5-5.9-.4-1.7-2.8-3.1-5-5.5zm210.1 10.1c1.2-1.3 3.1-3.3 4.9-5.3-2.3-1.6-4.5-3.9-7-4.4-2-.4-5.7-.1-5.6 3.9.1 3.8 2.6 5.4 7.7 5.8zm-220-6.3c2.3-2.1 4-3.5 5.7-5-1.5-1.7-2.9-3.4-4.6-4.9-.6-.6-1.9-.5-2.8-.6-1.4-.2-3.8-.6-3.9-.2-.6 1.6-1.2 3.9-.5 5.1 1.2 1.9 3.5 3.3 6.1 5.6zm96.8-42.9c-2.3 1.5-4.1 3.6-6.4 4.1-3 .7-3.8 2.5-2.7 4.5.8 1.4 3.4 2.8 5 2.6 5.2-.6 7.1-6.1 4.1-11.2zM444 364.4c-.4.4-.7.9-1.1 1.3-2.2-.6-5-.7-6.5-2.1-1.9-1.8-2.7-4.7-4.4-7.8-2.2 1.3-4.2 2.5-6.3 3.8 3.7 2 6.8 3.2 9.3 5.2 2.6 2 4.7 4.8 7.2 7.3 1.8-1.4 3.1-2.4 4.5-3.6-.9-1.4-1.8-2.8-2.7-4.1zm-13.6-38.6c2.3 1.8 4.1 4.1 6.2 4.5 2.1.4 4.6-1 6.6-2.3.5-.3.3-3.3-.5-4.2-4.1-4.1-7.7-1.2-12.3 2zm89-1.4c-2.1-1.3-4.2-3.5-6.3-3.6-2.1-.1-4.2 2.1-6.3 3.3 1 1.7 1.6 4.1 3.1 5 4 2.2 7.8.1 9.5-4.7zm-27.7 3.1c-3 4.9-.9 10.2 4.3 10.7 1.6.1 3.4-1.7 5.1-2.6-.9-1.4-1.6-3.2-2.9-4.2-1.8-1.5-4-2.5-6.5-3.9zm78.2 30.9c-.5 3.1.7 5.6 4 6.6 3.5 1.1 6.2-.5 7.9-3.6.5-.8.5-2.5 0-3.2-.7-.8-2.2-1.4-3.3-1.4-2.8.4-5.5 1-8.6 1.6zm-187.8 1.5c-3.2-.6-5.8-1.2-8.5-1.5-1.2-.1-2.9.1-3.5.8-.6.8-.6 2.6-.2 3.6 1.5 3.4 4.5 4.3 7.9 3.4 3.3-.9 4.8-3.2 4.3-6.3zm-25.7 11.4c-1.5-3.8-2.1-5.8-3.2-7.6-.6-1.1-2-2.3-3.1-2.4-1.1 0-2.8 1-3.4 2.1-1.8 3.4-.3 6.5 2.6 8.1 1.6.9 4.3-.1 7.1-.2zm83.5-24c6.3 3.8 11.1 2.9 12.3-1.7.3-1.3 0-3.6-.9-4.3-.9-.7-3.2-.7-4.3 0-2.5 1.6-4.5 3.7-7.1 6zm70.1-.2c-.6-4.6-4.4-5.9-7.9-7-2.4-.7-4.1.7-3.7 3.7.8 4.7 6.3 8 11.6 3.3zm89.8 13c-1.4 2.8-3.1 4.7-3.1 6.6 0 5.2 3.2 6 6.4 2.6 1.5-1.6 1.7-5 1.6-7.6-.1-.6-3.4-1.1-4.9-1.6zm-47.9-29.6c.6.4 1.2.8 1.7 1.2 2.1-2.2 5.9-4.3 6-6.5.2-3.7-3.5-5.4-7.7-5.7v11zm-56.3-12.6c-3.3 4.9-1.7 9.8 3.7 10.9 1.4.3 3-.4 4.5-.7-.6-1.7-.8-3.8-1.9-5.1-1.7-1.9-4-3.3-6.3-5.1zm-40.2.8c-2.6 2-5.1 3.7-7.1 5.8-.9.9-1.5 2.9-1.1 3.9.3.8 2.4 1.4 3.7 1.3 5.7-.5 7.9-5.7 4.5-11zm-58 14.1c.5-.4 1-.8 1.6-1.2v-10.8c-.5-.3-1.1-.6-1.6-.9-1.8 2.2-5 4.3-5.1 6.5 0 2.2 3.2 4.3 5.1 6.4zm107.5 34.4c4.6 5.1 6.3 4.6 10.1-3-1.9-1.3-3.9-2.7-6.2-4.3-1.5 2.8-2.7 5-3.9 7.3zm-66.4-22.6c-2.3-1.8-4.5-3.7-6.9-5.4-1-.7-2.4-.9-3.6-1.3-.2 1.5-1 3.2-.5 4.4 1.9 4.6 6.6 5.4 11 2.3zm74-.5c5 3 10.2 1.4 11.3-3.7.2-1-.4-2.5-1.2-3.3-.4-.4-2.1.1-2.9.7-2.4 1.9-4.6 4-7.2 6.3zm-104.8 25.8c6-7.4 5.8-13.5 0-16.8v16.8zm13-51.7c-.5-4-7.9-8.6-11.6-7-.5.2-1.2 1.2-1.1 1.3.5.7 1.1 1.5 1.9 1.8 3.6 1.5 7.3 2.7 10.8 3.9zm122.7-6.4c-7.6-2.2-12.3.6-13.2 6 4.3-1.9 8.8-4 13.2-6zm-.1 39.5c-5 6.2-4.8 11.5 0 14.9v-14.9zm-122.1-49.6c-.7 2.8-1.1 4.8-1.6 6.7 2.4-.6 4.7-1.2 7.1-1.8-.1-.5-.1-.9-.2-1.4-1.4-.9-2.7-1.8-5.3-3.5zm109.5-.9c-2.7 1.9-4.1 2.9-5.5 3.9v1.4c2.1.5 4.2 1 6.3 1.6-.2-1.9-.4-3.8-.8-6.9z"/><path class="st0" d="M412 535.7c-2.5 2-4.9 4-7.9 6.4-1.3-2.6-2.3-4.5-3.5-6.8-2.7 1-5.3 2-7.9 2.9-3.6 1.2-4.9-.3-3.7-3.7 1.5-4.1 3.5-8.1 5.2-12.1-1.1-.8-4.4-2.2-4.3-3.2.2-2.2 1.8-4.7 3.6-6.1 2.3-2 5.4-3.1 8.3-4.6.5-5.7.5-5.7 11.5-6.3.1-1.2.2-2.5.3-3.9 3.6 1.1 7 2.1 10.4 3.1.1-.3.2-.6.3-.8-1.5-.9-3.6-1.4-4.4-2.7-1.5-2.4-3.5-5.6-2.9-7.9 1.4-5.2 4.1-9.9 6.4-14.8.4-.9 1.3-1.6 1.7-2.4 4-9.2 9.3-10.8 17.8-5.3 4.4-2.6 4.4-2.6 3.1-6-1.8.7-3.6 1.3-5.9 2.2-.4-2.4-.8-4.5-1.2-6.8-4 .1-8.4.4-7.5-5.9.1-.5-1.6-1.4-2.6-1.9-1.8-.8-3.6-1.4-5.5-2.1-.2-.5-.4-1-.5-1.5 3.1-2 6.2-4.1 9.7-6.4-.4-.7-1.1-2.1-1.8-3.6 3.1-3.3 6.5-2.9 10.2-1.8 1.5.4 3.3-.2 5-.5.6-.1 1.3-1 1.7-.8 3.5 1.3 7.5 2.1 10.3 4.4 3.3 2.6 5.9 6.3 8.2 10 1.1 1.8 2 4.8 1.2 6.5-2.9 6.1 2 8.4 4.3 12l1.8-.3v-9.2c0-5.8.1-11.7 0-17.5 0-2.8.7-4.4 3.9-4.4s3.8 1.5 3.8 4.4c-.2 7.2-.1 14.3-.1 21.5 0 5.7 1.7 7.7 7.3 8.5 3.9.6 10.5-4.9 10.6-8.8.1-4.5 3-6.9 6.5-8.7 1.8-.9 3.7-1.6 5.4-2.5 1.6-.8 3.1-1.8 4.9-2.9.4 1.3.7 2.4 1 3.6 2-.5 3.8-1 5.6-1.3 1-.2 2.7-.3 2.9.1 2.5 5.4 9.2 4.4 12.5 8.4.8 1 1.3 2.2 2.1 3.5-1.5 1.1-2.6 1.9-4.1 3 2.4 3.9 7.2 6.6 6.1 12.6-3-.2-5.9-.4-8.7-.6-2.5 5.8-2.5 5.8-9.4 2.2-5 5.5-5 5.5-9 .9-5.3 3.4-5.3 3.4-12.2-6.8-1.3 1.9-3.6 3.8-3.3 5.1.4 1.9 2.4 4.3 4.2 4.8 5.2 1.6 9.1 4.6 12.2 8.9.8 1.1 3.3 1.7 4.7 1.4 7.5-2 13 1.9 13.2 9.6 0 1.4.8 3.1 1.7 4.1 4 4.3 4.5 7.9 1.9 13-.7 1.3-1 3.1-.7 4.6.9 5.3.1 9.5-5.3 12.1-1.1.5-1.7 2.1-2.3 3.4-1.2 2.6-2.1 5.4-3.2 8.1 1.1-.2 2.7-.6 4.8-1 .1 1.3.3 2.5.4 3.9 1.7.2 3.5.4 5.3.7 1 .2 2.7.6 2.7 1 .5 5.5 6.2 5.6 8.8 8.8 3.1 3.7 2.7 5.9-1.7 8.2 1 2.8 2.4 5.5 2.9 8.4.8 4.6-.9 5.9-5.3 4.1-1.5-.6-2.9-1.5-4.4-2.3-4.3 5.1-4.3 5.1-11.6-.6-1 1.7-2.2 3.5-3.8 6.2-1.8-3.1-2.9-5-4.1-6.9-6.9.6-6.9.6-10.2-9.2-5.9.1-5.8.8-4.2 6.2 1.9 6.3 6.6 7.7 11.8 9.2 2.3.7 4.6 1.7 6.9 2.6-.1.7-.3 1.3-.4 2h-22.7c1.3 2.1 2 3.2 3.4 5.6-7.4.6-13.8 1.1-20.8 1.7 2 3.3 1.1 5.7-2.5 5-10.1-1.7-20.1-4-30.2-6.1-.4-.1-.6-.7-1.3-1.7 1.5-1.2 2.8-2.7 4.5-3.5 4.5-2.2 8.9-4.7 13.7-6.1 4.8-1.4 6.4-4.1 5.8-8.8-.2-1.6 0-3.3 0-5 0-18.1 0-18.2-11.4-32.2-.9-1.1-2.1-2.6-3.3-2.8-1.3-.3-4.1.8-4.1 1.2.2 3.8.1 7.8 1.5 11.2 1.6 3.8 3.4 7.1 1.1 11.2-.6 1.1-.4 3.1.2 4.4 2.8 6 1.7 10.8-4.2 13.9-2.4 1.3-3.2 2.6-3.5 5.3-.8 7.6-8.4 10.7-15 6.6-1.9-1.2-4.3-2-6.6-2.4-4.9-.9-8.1-4.3-8.8-9.3-.3-2-1.5-4.3-3-5.6-3.6-2.9-4.3-6.4-3.7-10.7.4-2.8.1-5.7.3-8.5.1-2.1 0-4.6 1-6.3 2-3.9.9-6.4-1.9-8.8zm89.9-41.2c-6.6 3.7-12.9 7-19 10.8-1.2.7-1.9 3-1.9 4.6-.2 5.1.4 10.4-.2 15.5-1.2 10.1 1.3 18.5 9.1 25.4 2 1.7 3.3 4.1 4.9 6.3 2.9 3.8 12 3.5 13.1-.9 1.3-5.4 4.7-7.8 9.8-9.8-5-3.1-9.4-5.8-13.7-8.7-1.3-.9-2.4-2.4-2.9-3.9-2.4-6.9-4.5-13.8-6.7-20.8-1.6-5-.3-8.9 4.5-11.3 3.4-2 3.4-4.5 3-7.2zm-84.8 12.9c-10.1-4.5-11.8-3.9-12.6 3.8-4.4 1.5-10.4.9-11.7 7.5 2.7.9 5 1.6 6.8 2.2-3.2 4.9-6.2 9.4-9.2 13.8.5.5 1 .9 1.5 1.4 3.3-1.4 6.5-2.8 10-4.3 1 2.1 2 4.2 3.2 6.7 2.5-2.7 4.6-4.9 6.9-7.4 1.9 2.4 3.5 4.5 4.7 6 2.9-3 5.2-7 8.5-8.4 3.7-1.6 6.1-3.2 6.4-8.3 5.4 2.5 10.2 4.6 15 6.8 3-3.2 2.2-5.8-1.7-7-7.5-2.3-13-7.7-18-13-3-3.1-5.6-4.6-9.8-4.8v5zM545.4 578c.6-.4 1.2-.9 1.8-1.3-2.1-3.7-4.2-7.3-6.3-11.1 2.3-.7 4.2-1.3 7.5-2.3-2.8-2.2-4.4-4.4-6.5-5-2.9-.8-5.5-.8-5.1-4.9.1-.5-3.2-1.7-4.9-1.9-1.3-.2-2.7.8-4.1 1.3-.5-1.6-.5-3.2-1.3-3.8-3.9-2.8-14.4 1.9-15.7 6.5-.5 1.7-2.1 3.4-3.6 4.6-1.4 1.1-3.5 1.2-5 2.1-.9.6-1.4 1.9-2 2.9 1.1.3 2.4 1 3.4.7 2.9-.7 5.6-1.8 8.5-2.7 1.9 10.5 1.9 10.5 10.1 9.3.5 1.8 1 3.6 1.7 5.8 2.1-2 3.8-3.5 5.4-5 1.8 2.3 3.3 4.2 5.2 6.5 1.7-2.3 2.9-4 4-5.5 2.4 1.3 4.6 2.6 6.9 3.8zm-14.2-107c2.6.5 4.9 1 7.2 1.5.3-.5.7-1 1-1.5-2.9-2.9-5.7-5.8-8.7-8.9 1.8-1.1 3.7-2.2 6.7-4-2.7-1.4-4.4-2.9-6-2.9-3.9-.1-7.1-.7-7.9-5.8-3.2 1.3-5.9 2.5-8.8 3.7-1.9-4.7-5.2-1.7-7.7-.7-3.2 1.3-6.7 3.1-5.9 7.5.6 3.2-.4 5-3.2 6.4-1.8.9-3.7 1.9-4.9 3.3-.9 1.1-.9 2.9-1.2 4.4 1.4-.2 3.2.1 4.2-.7 2.8-1.9 5.3-4.3 8-6.6 1.8 3.8 3.3 7.2 5.1 11 2.6-2 4.2-3.3 6-4.7 1.2 1.8 2.2 3.3 3.4 5.2 1.4-2.3 2.6-4.3 3.9-6.5 2.1 1.8 3.9 3.3 6.2 5.2 1.1-2.3 1.7-3.9 2.6-5.9zm-71.8-12.9c1.3 1.9 2.4 4 3.9 5.7 1.3 1.5 3.1 2.7 4.6 4.1-.5-1.9-1-3.8-1.6-5.6-.8-2.4-3-5.5-2.2-6.9 2.4-4 1.2-7-1.5-9.4-4.1-3.6-8.7-6.7-13.1-10-.4-.3-1.3-.4-1.4-.3-3.4 4.8-6.6.4-9.8-.2-1.1-.2-2.3 0-4.5 0 2.2 2.7 3.7 4.5 5.1 6.1-4 .9-7.8 1.7-11.5 2.6 0 .6.1 1.2.1 1.9 2 .6 4.5.6 5.7 2 1.3 1.4 1.2 4 1.8 6.4 1.9-.3 4-.6 6.3-.9.3 2.3.7 4.3 1 6.8 1.7-1.1 3-2 4.2-2.8 5.9 6.6 5.9 6.6 12.9.5zm13.9 20.5c-7.4.4-11.5 2.6-11.2 6.3.5 4.9-1.1 8.4-4.8 11.3-.8.6-1.2 1.9-1.4 3-1.1 6.3-3.6 8.5-9.6 9.5-3.3.6-6.3 2.3-9.5 3.5.1.6.1 1.2.2 1.8 4.8 2.1 9.5 4.5 14.5 6.3 2.5.9 4.5-.5 5-3.4 1.3-9.1 6.4-15.5 14-20.3 1.3-.8 2.6-2.8 2.8-4.3.2-4.4 0-8.9 0-13.7zm-.9 63.1c.5-.4 1.1-.7 1.6-1.1-1.9-3.3-3.4-6.9-5.8-9.9-8.5-11-2.6-23 7.2-27.4 4.4-2 9-3.6 13.2-6 2.6-1.5 5.3-3.6 6.9-6.1 1.9-3 3.7-3.3 6.6-2.3 1.9.7 4 1 6.1 1.4.2-.7.4-1.4.6-2-2.1-.9-4.2-2.3-6.5-2.7-3.3-.6-5-2.3-7.1-5-3.3-4.3-7.6-8.4-14-8.2 1.3 1.9 3.1 2.9 5 3.9 3.9 2 7.1 4.6 7.3 9.3.2 4.7-2.9 7.2-6.7 9-2 .9-4 1.7-5.9 2.7-3.8 1.9-7.9 3.6-11.4 6.1-7.2 5.1-9.1 12.7-8.9 21-10.1 1.8-10.1 1.8-11.1 6.3 13.3-7.9 16.5 4.7 22.9 11zm-42.6 2.6c4.1 0 7.5-3.1 7.4-7 0-4-3.7-7.4-7.8-7.4s-7.4 3.1-7.5 7.1c0 3.7 3.7 7.2 7.9 7.3zm27.6-69.8c.1-3.2-3.7-7.4-6.7-7.5-3.6-.2-7.9 4-7.8 7.6.1 3.5 4 6.8 7.9 6.7 3.2 0 6.5-3.4 6.6-6.8zm-5.2 64.7c.1-3.9-3.6-7.9-7.4-7.9-3.7 0-5.7 3.4-5.8 9.9 0 3.7 2.7 4.7 5.6 5 3.7.3 7.4-3.3 7.6-7zm-11.5-67c.2-3.9-2.2-5.2-5.6-5.3-4.7-.2-7.3 2.3-7.3 6.8 0 4.1 2.7 6.9 6.7 7.1 4.5.1 6-1.9 6.2-8.6zm41.6 89.3c-.5.2-.9.4-1.4.5 0 4.9-.2 9.8.1 14.6.1 1.2 1.7 3.2 2.8 3.4 3.2.5 6.6.2 11.4.2-4.8-7.1-8.9-12.9-12.9-18.7zm21.8-62.7c.1 3.3 3.6 6.6 6.9 6.5 3.8-.1 6.5-2.9 6.5-6.8 0-4.3-2.8-6.8-6.9-6.6-3.8.3-6.6 3.2-6.5 6.9zm-74.5 62.7c-.1-2.7-1.1-4.5-4.6-3.7-1.6.4-3.3.3-4.9 0-4.4-.7-6.1.7-5.4 5 .7 4.4 3.7 6 7.9 5.8 4.3-.2 6.9-2.8 7-7.1zm-10.3-19.7c-.9.8-2.5 1.6-2.6 2.6-.3 2.9-1.1 7 .4 8.6 1.8 1.8 5.9 2 8.8 1.6 1.4-.2 2.9-3.3 3.3-5.4.2-.9-2-2.5-3.4-3.4-1.8-1.4-3.9-2.4-6.5-4zm81.1-40.5c-1.9 3.9-3.9 6.4-4.3 9.1-.5 3.3 3.8 7 6.7 6.8 3-.2 7.5-5 6.1-7.3-1.6-3-4.7-5-8.5-8.6zm22.5 5.2c5.2-.2 8.8-3.8 8.3-7.2-.6-3.8-2.9-6.5-7-6.3-7.7.3-1.9 7-4.3 10-.3.2 2.4 2.8 3 3.5zm-101.3 68.2c-.1 3.7 3 7.1 6.7 7.3 3.3.2 6.9-2.6 7.1-5.7.1-1.9-5.5-7.2-7.5-6.5-2.5.9-6.4.5-6.3 4.9zm11.1-14.9c-.7 3.1-2.1 5.6-1.4 7.5.6 1.7 3.1 3.3 5.1 3.7 3.5.7 8.3-3.9 7.8-7.4-1.3-9-7.7-1.5-11.5-3.8zm22.9-9.2c-.8-.8-2.3-3.6-4.2-3.8-4.4-.5-8.6 4.2-7.9 8.8.2 1.5 2.9 3.3 4.7 3.6 4 .7 7.3-2.8 7.4-8.6zm-8.3 27.1c-1.6-1.2-4-3-6.5-4.8-1.1 1.5-2.2 3-3.1 4.6-.6 1-.7 2.3-1.4 3.1-3.1 3.8-.2 5 2.6 5.8 3.9 1.1 8.4-2.8 8.4-8.7zm34.8-29c-.7.5-1.4.9-2.1 1.4 6.7 9.6 13.5 19.2 20.2 28.7.5-.4 1.1-.7 1.6-1.1-4.2-11.2-12.5-19.7-19.7-29zm43.2-36.3c-.5 3.9.8 6.2 4.7 6.2 3.9 0 6.7-2 6.2-5.9-.3-2.3-2.2-5.2-4.2-6.3-2.1-1.3-6.7 3.5-6.7 6zm-69 52.4c-.9-.7-2.5-3.1-4.5-3.4-3.1-.5-8.1 5.4-7.4 9 .3 1.3 3.3 2.8 5.1 2.9 3.8.4 7-3.2 6.8-8.5zm71.3-26.9c-2.1-2.5-3.4-5-5.4-6.2-3-1.7-3.8 1.3-4.9 3.3-.6 1-1.8 1.8-2 2.8-.3 1.5-.5 4.2.1 4.5 2.1.9 4.8 1.8 6.8 1.2 1.9-.7 3.2-3.2 5.4-5.6zM436 557.6c2.8-.1 5.9-2.1 5.4-5.9-.3-2.5-2.8-6.1-5.1-6.8-3-.9-4.4 2.3-4.4 5.5 0 .6-.3 1.3-.6 1.9-1.5 4-.7 5.3 4.7 5.3zm78.4-39.8c5.7-.1 8.7-2.4 8.3-5.8-.3-2.2-3.9-5.1-6.3-5.4-4.1-.5-5.5 3.4-5.2 6.7.1 1.8 2.4 3.5 3.2 4.5zm-71.9-39c-2.6 3-4.5 5.1-6.4 7.3 2.1 1.7 4.2 4.7 6.3 4.7 2.1 0 4.3-2.9 6.5-4.5-1.9-2.2-3.8-4.5-6.4-7.5zm4.8 15.6c3.9-.4 7 .1 9.1-1.2 1.7-1 2.8-4 3-6.2.1-1.5-1.5-4.3-2.7-4.5-1.4-.3-3.7 1.2-4.7 2.6-1.6 2.2-2.5 4.9-4.7 9.3zm77.5 24c-3.7.8-6.3.8-8.3 1.9-1.6.8-3.4 2.7-3.6 4.4-.2 1.1 2.1 3.6 3.4 3.7 2.4.2 5.8-.2 7.1-1.8 1.3-1.9.9-5.2 1.4-8.2zm-84.5-17.8c.5-.1 1.8.1 2.4-.4 1.6-1.2 2.8-2.8 4.2-4.2-1.5-.9-3-1.8-4.6-2.5-1.5-.7-3.2-1-4.6-1.6-3.6-1.6-4.6.1-4.3 3.3.4 3.6 2.7 5.4 6.9 5.4zm75.8 31.1c-2-1.2-3.6-2.9-5.4-3-2.5-.1-6.4.2-7.4 1.7-1.8 2.9 1 5.1 3.7 6.4 3.8 1.6 6.6.1 9.1-5.1zm-17.5-11.9c-.7 3.8 1.6 5.7 4.9 6.5 3.4.8 5.9-.8 7-3.9.4-1.1.1-2.9-.6-3.9-.5-.6-2.2-.7-3.3-.5-2.5.3-5 1.1-8 1.8zm26.1 9.9c1.6 2.7 3.7 3.9 6.7 1.7 3.1-2.3 3.9-5.3 2.2-8.7-.5-.9-2.4-1.6-3.7-1.5-.9 0-2.2 1.2-2.7 2.1-1 1.9-1.7 4.1-2.5 6.4zm-105-43c.2 3.3-.6 6.8.7 8 2 1.8 5.3 2.3 8.2 2.9.6.1 2-1.6 2.2-2.7.2-.8-.7-2.2-1.5-2.7-2.6-1.7-5.4-3.2-9.6-5.5zm15.4.8c-3.5-3.7-6.6-7-9.8-10.3-2.5 3.1-3.7 5.8-.9 8.8 2.5 2.7 5.3 5 10.7 1.5zm5.3 20.4c-1.6-2.2-2.5-4.3-4-5.1-2.3-1.3-5-1.6-7.5-2.4-.3 1.5-1.3 3.9-.7 4.4 2.2 1.9 4.9 3.3 7.6 4.4 1 .5 2.6-.6 4.6-1.3zm40.4-15.5c3.1-1.9 5.2-2.6 6.2-4 .8-1.1 1.1-3.6.4-4.7-1.1-1.6-3.2-2.4-4.9-3.6-.6 1.5-1.4 3-1.6 4.6-.3 2-.1 4.1-.1 7.7zM440.3 505c3.2.4 5.8 1.5 7.8.8s3.7-3 5-4.9c.4-.6-.4-2.4-1.1-3.4-.2-.3-1.9-.1-2.5.4-2.7 1.9-5.3 4.1-9.2 7.1zm32.6 23.7v-17.1c-5.3 5.2-5.3 10 0 17.1zm.4-56.7c-7.8-2.2-13 .8-13.8 5.9 4.5-1.9 9.2-3.9 13.8-5.9zm-39.7 51.8c-.9 4.5 2 5.9 4.5 7.2.5.3 2.2-.8 2.6-1.6.3-.7 0-2.5-.7-2.9-1.8-1.1-4-1.8-6.4-2.7zm21.2-58.9-.3 1.5c2.1.6 4.3 1.2 6.4 1.7-.3-1.9-.6-3.9-1-6.6-2.5 1.6-3.8 2.5-5.1 3.4zM391.5 730.1c-4.1-1.5-5.6.1-5.9 3.4-.2 2.1-.5 4.3-1.2 6.3-.3.8-1.6 1.2-2.5 1.9-.6-.8-1.6-1.6-1.6-2.5-.1-1.6 0-3.4.5-4.9 1-3.6 1-6.6-4.1-7.3 0-.5.1-1 .1-1.5 1.7-.4 3.5-1.4 5.1-1.2 5.7.6 11.5 1.6 17.2 2.4 6.2.9 7.3 2.8 6 9-.5 2.2-.1 4.6.8 7.3l3-6c1-2.1 1.8-4.3 3.2-6.2.7-1 2.5-1.8 3.7-1.7.9.1 2.2 1.5 2.5 2.6 1.1 3.6 2 7.4 2.7 11.1.2 1.1-.4 2.4-.7 3.6-1.1-.4-2.7-.5-3.3-1.3-1.9-2.6-3.8-2.6-6.3-1-4.3 2.7-8.7 1.1-10.6-3.6-.4-1-1.7-2.2-2.6-2.4-.7-.1-1.7 1.4-2.5 2.2-1 1-2 2.1-2.9 3.1-.5-1.4-1.2-2.8-1.3-4.2-.1-1.5.3-3 .5-4.4.1-1.7.1-3.1.2-4.7zM428.9 739.2c-1.4 3.5-2.3 5.9-3.3 8.4-.8-.2-1.7-.4-2.5-.6.5-5.6.9-11.1 1.4-16.7 7.2-.6 5.8 6.1 9.2 8.7.4-2 .5-4 1.1-5.9.2-.7 1.3-1.2 2-1.8.6.7 1.6 1.4 1.6 2.1-.2 4.1-.6 8.3-1.2 12.4-.1.8-1.6 2-2.4 1.9-1.1-.1-2.4-1-3-2-1-1.9-1.8-4.1-2.9-6.5zM452.9 738.4c-2.5-.9-4.8-1.8-7-2.7 1.9 4.4 10.4 4.2 6.6 11.1-.9 1.7-4.8 2.7-7.2 2.6-3.2-.1-6-1.9-5.8-6.8 3 1.1 5.5 2 8.1 2.9-2.1-4.2-10.3-4.7-6-11.5 1.1-1.7 5.3-2.1 8-1.9 2.6.4 4.4 2.6 3.3 6.3zM469.4 744c.2-1.4.4-4 1-6.6.2-.9 1.4-1.5 2.1-2.3.7.9 2 1.8 2 2.8.1 2.3-.8 4.6-.6 6.9.1 1.3 1.4 2.5 2.2 3.8.9-1 2.2-1.9 2.6-3 .6-1.8.3-4 1-5.8.5-1.3 1.8-2.3 2.7-3.4.6 1.2 1.6 2.4 1.6 3.6.1 2.3-.3 4.6-.7 6.9-.9 5.1-3.2 7.2-7.5 6.7-4.7-.6-6.5-2.9-6.4-9.6zM509.9 744.7c-1-.5-2-.7-2.7-1.3-.6-.6-1.3-1.5-1.3-2.3 0-.4 1.2-1.4 1.8-1.3 3.4.3 6.9.7 10.2 1.3.3.1.2 2.1.4 3.3-4.5.3-4.3 3.7-4.6 6.9-.1 1.1-.2 2.4-.8 3.4-.6 1.1-1.8 1.8-2.7 2.7-.5-1.2-1.5-2.5-1.4-3.7 0-3 .7-5.9 1.1-9zM490.6 742.5c-.1 1 .1 2-.2 3-1.1 3.6 0 5.7 4 6 .9.1 1.8 1.4 2.6 2.1-1.1.6-2.1 1.6-3.2 1.6-2 .1-4.2 0-5.8-.8-1.3-.7-2.8-2.5-2.9-3.9-.2-2.8.3-5.6 1.1-8.3.5-1.7 2-3.1 3-4.7.7 1.6 1.4 3.1 2.1 4.7-.2.1-.4.2-.7.3zM455.3 733c4.5.5 8.1.9 11.7 1.4.7.1 1.4.7 1.8 1.3.2.3-.3 1.6-.6 1.7-6.2.8-4.1 6.1-5.3 9.6-.3.8 0 1.8-.4 2.4-.5.7-1.4 1.6-2.1 1.5-.7-.1-1.8-1.2-1.8-1.9-.1-1.6.4-3.2.4-4.9.1-2.9 1.7-6.4-2.8-7.8-.4-.1-.4-1.6-.9-3.3zM504.8 742.8c-.8 4.2-1.1 7.4-1.9 10.4-.3 1-1.6 1.6-2.5 2.4-.5-1.2-1.5-2.3-1.4-3.5.1-3 .3-6 1-8.8.3-1.5 1.6-2.7 2.5-4.1.8 1.4 1.8 2.9 2.3 3.6zM607.8 667.4c1.6-.2 3.1-.5 4.7-.4 1 .1 1.9.8 2.9 1.3-.7.8-1.2 1.9-2 2.3-1.6.8-3.3 1.1-5 1.6 0 .5.1 1.1.1 1.6 1.7 0 3.4-.2 5 .1 1.3.2 2.4 1.1 3.6 1.6-.9.8-1.7 2-2.7 2.3-3 .7-6.1 1.1-9.6 1.7-.8-4.8-1.9-9.2-2.1-13.6-.1-1.4 1.9-4 3.3-4.3 6.3-1.3 12.8-2.1 19.2-2.8 1.3-.2 2.7.5 4.1.8-.8 1.1-1.8 2.1-2.2 3.3-.6 2-.9 4.1-1.2 6.1-.4 2.5-.7 5-1.1 7.5-1.1-2.3-2.7-4.5-3.2-6.9-1.2-5.9-1.5-6.3-7.5-5.2-2.2.4-4.3.8-6.5 1.2 0 .6.1 1.2.2 1.8zM595.3 670.3c-.2-1.4-.8-2.8-.6-4.2.1-1.1 1.1-2 1.7-3 .9.8 2.4 1.4 2.6 2.3.8 3.7 1.3 7.5 1.6 11.3.1 1-.8 3-1.4 3.1-1.2.2-3-.3-3.9-1.2-1.8-1.7-3.1-3.8-5.2-6.5.3 3.6.6 6.2.8 8.8l-1.5.9c-1-1.2-2.5-2.2-2.8-3.6-.8-3.4-1.2-6.8-1.6-10.3-.1-1 .3-2.7.8-2.9 1.1-.4 2.8-.3 3.6.4 1.8 1.4 3.2 3.3 4.7 5.1.5-.1.9-.1 1.2-.2zM520.7 699.9c5.9.3 9.2-8.2 13.8-2 1.2 1.7.8 5.5-.3 7.8-1.5 3.1-4.7 3.7-9.3 2.3 2.7-2.4 4.8-4.3 6.9-6.1-.2-.5-.4-.9-.7-1.4-4.2 1.4-8.3 8-12.5 1.7-1.1-1.7.1-5.8 1.5-8 1.5-2.5 4.5-3.3 8-.4-2.3 1.9-4.3 3.6-7.4 6.1zM549.7 691.1c-2.1 2.1-3.7 4.9-5.9 5.5-2.2.7-5.8 0-7.5-1.5-2.4-2.1-3.8-5.4-5.3-8.4-.4-.8.4-2.2.6-3.3 1 .3 2.4.3 2.9 1 1.6 2.1 2.8 4.6 4.4 6.6.7.9 2.3 1.1 3.6 1.6.2-1.3 1-2.8.5-3.9-.9-2.3-2.7-4.3-3.6-6.5-.4-1.1.3-2.6.5-3.9 1.1.5 2.6.7 3.2 1.6 2.3 3.3 4.1 6.8 6.6 11.2zM559.5 683.8c-3.4-2.6-11.3 2.7-11-6 .1-3.7 2.8-5 6.1-5.3 2.6-.2 5.4-.6 5.9 3.7-2.6.2-5.1.5-7.5.7 0 .6.1 1.2.1 1.7 1.6 0 3.5-.5 4.9.1 2.2.9 5.8 2.4 5.8 3.7.1 2.2-1.7 5.6-3.7 6.4-2.3 1-5.5 0-8.3-.3-.3 0-.7-1.9-.5-2.1.8-.6 1.9-1 2.9-1.1 1.7-.2 3.5 0 5.2 0 .1-.5.1-1 .1-1.5zM575.9 669.8c-4.8 1.6-4.9 4.5-3.3 8 .6 1.4 1 2.9 1 4.3 0 1.1-.8 2.1-1.2 3.2-1-.7-2.3-1.2-2.8-2.2-.8-1.8-1.1-3.8-1.6-5.7-.6-2.2-.7-4.9-4.3-4-.3.1-1.6-2.1-1.4-2.6.9-2.1 10.8-3.1 13.6-1zM583.1 683.4c-1.2-.9-3.1-1.7-3.4-2.8-1.1-3.8-1.8-7.7-2.4-11.6-.1-.9.6-1.9 1-2.8 1 .6 2.7 1 2.9 1.8 1.3 4.7 2.2 9.5 3.3 14.3-.6.4-1 .7-1.4 1.1zM310.3 696.6c-2.6-1.1-4.8-1.9-6.9-2.9-4.4-2.1-5.9-5.6-4.5-10.2 1.6-5.4 4.9-7.7 9.8-6.9 5.8.9 8.4 5.6 6.1 11.6-1 2.7-2.8 5.3-4.5 8.4zm-6.1-7.6c3.1-1.2 7.7-.5 6.6-5.8-.2-1.1-3-2.9-3.8-2.6-3.6 1.5-4.3 4.6-2.8 8.4zM323.5 700.9c-7.3-.2-10.1-4.2-8.2-9.8.9-2.5 1.8-5 3-7.4.5-.9 2-1.2 3.1-1.7.3 1.1 1.2 2.4.9 3.3-.7 2.5-2.1 4.9-2.8 7.5-.3 1 .5 2.2.9 3.4 1.1-.4 2.8-.5 3.3-1.3 1.4-2.3 2.1-4.9 3.3-7.2.5-.9 1.9-1.4 2.9-2 .4 1.2 1.4 2.6 1.1 3.6-.8 2.9-1.8 5.8-3.4 8.2-1 1.7-3.2 2.7-4.1 3.4zM338.1 690.1c-2 4.5-3.8 8.9-5.9 13.2-.2.5-2 .8-2.5.4-.6-.4-1.2-1.8-.9-2.5 1.5-4 3.1-8 4.9-11.9.3-.7 1.9-1 2.9-1.1.4 0 .9 1.1 1.5 1.9z"/></svg>